<svg width="107" height="48" viewBox="0 0 107 48" fill="none" xmlns="http://www.w3.org/2000/svg"><g clip-path="url(#clip0)"><path fill-rule="evenodd" clip-rule="evenodd" d="M0 23.998C0 12.873 23.733 4 53.333 4c29.41 0 53.334 8.968 53.334 19.998C106.667 35.027 82.743 44 53.333 44 23.928 44 0 35.056 0 23.998zm74.59 4.46c-.115-.043-.234-.129-.248-.224a.243.243 0 01.019-.182c.43-.873.734-1.984-.23-2.447-.925-.444-2.341.377-3.625 1.951-1.05 1.293-1.622 2.605-1.64 3.888-.005.453.166 1.016.567 1.226.906.472 1.999-.234 2.79-.887.52-.43.955-.873 1.337-1.446l.168-.25c.332-.491.594-.88.88-1.486.049-.1.03-.129-.018-.143zm9.918-10.41c.157 0 .224.091.157.215v-.004c-.113.192-.785 1.232-1.712 2.663v.001c-2.441 3.773-6.643 10.267-6.999 11.155-.157.396-.176.692-.014.907.41.548 1.317.229 1.889-.167 1.214-.84 2.162-1.804 3.083-2.74.36-.366.716-.728 1.082-1.076.071-.053.2-.077.286 0 .073.07.16.147.25.227h.001c.144.127.295.26.412.383.095.1.057.196.01.253-1.27 1.55-2.672 3.015-4.017 4.05-2.09 1.617-4.174 2.032-5.205.997a2.293 2.293 0 01-.62-1.407c-.014-.253-.143-.267-.262-.148-1.236 1.221-3.378 2.566-5.324 1.612-1.632-.81-2.009-2.752-1.703-4.388.01-.034-.029-.267-.23-.13-.333.244-.781.511-1.335.716a3.759 3.759 0 01-1.622.344 2.305 2.305 0 01-2.003-1.126c-.287-.425-.396-1.069-.43-1.536 0-.052-.066-.148-.143-.024-1.068 1.627-2.078 3.214-3.115 4.845l-.773 1.214c-.066.095-.129.157-.267.166H53.3c-.162 0-.238-.123-.152-.276.176-.338.645-1.072 1.253-2.023 1.005-1.573 2.39-3.74 3.46-5.696.472-.863.377-1.307.081-1.498-.367-.238-1.097.12-1.717.592-1.424 1.077-2.657 2.665-3.436 3.67h-.001c-.142.184-.27.347-.38.485-.138.17-.275.367-.434.598-.327.475-.751 1.09-1.493 1.892-1.736 1.89-4.04 2.972-6.259 2.223a3.769 3.769 0 01-2.423-2.58c-.067-.23-.2-.296-.324-.144-.358.449-1.093 1.107-1.703 1.522-.067.048-.234.148-.377.076a3.81 3.81 0 01-.673-.887.306.306 0 01.072-.353c.877-.768 1.354-1.207 1.736-1.684.323-.426.579-.9.758-1.402.53-1.346 1.746-3.855 4.165-5.153.926-.49 1.86-.849 2.9-.968.444-.048.812.005.945.358l.253.696c.048.143.01.253-.157.315-1.427.544-2.858 1.384-3.85 2.71-1.121 1.507-1.422 3.315-.673 4.355.549.759 1.436.892 2.285.62 1.293-.405 2.39-1.612 2.958-2.948a7.113 7.113 0 00.262-4.703c-.076-.263-.01-.463.162-.606.294-.241.683-.433.875-.528l.08-.04a.625.625 0 01.81.196c.495.815.754 1.751.75 2.704.033.215.123.22.224.105.218-.231.432-.467.645-.701.613-.675 1.218-1.34 1.883-1.875.82-.653 1.875-1.188 2.857-1.164 1.27.029 1.904.893 1.86 2.428-.004.191.135.182.23.048a5.2 5.2 0 011.068-1.173c.878-.725 1.78-1.05 2.715-.983a2.052 2.052 0 011.889 2.338 2.357 2.357 0 01-1.25 1.803c-.606.3-1.307.248-1.798-.191a1.488 1.488 0 01-.43-1.431c.024-.11-.119-.215-.238-.09-1.13 1.173-1.212 2.694-.477 3.377.815.753 2.032.248 2.924-.33.949-.62 1.771-1.368 2.58-2.103.584-.53 1.16-1.052 1.77-1.517.974-.735 2.076-1.389 3.316-1.56a3.863 3.863 0 012.018.238c.887.358 1.45 1.107 1.522 1.756.014.19.162.215.276.048.245-.383.863-1.319 1.577-2.4 1.333-2.02 3.001-4.547 3.203-4.933.091-.186.196-.214.396-.214h2.696zM47.914 19.7c.033.177.105.21.186.191a1.913 1.913 0 001.087-.782c.239-.344.349-.84.115-1.04-.21-.177-.549-.129-.802.095a1.77 1.77 0 00-.586 1.536zM28.007 35.007c-2.91.02-5.477-1.779-5.773-4.899a6.287 6.287 0 011.303-4.532c.868-1.13 2.337-2.065 3.578-2.294.4-.076.944-.029 1.168.238.353.41.253.859-.1 1.04-.95.482-2.09 1.312-2.652 2.443a2.996 2.996 0 00.148 3.096c1.169 1.765 4.431 1.813 7.46-1.002a26.167 26.167 0 002.104-2.137c1.336-1.527 1.78-2.085 3.554-4.546.02-.029.029-.067.02-.082-.015-.033-.039-.038-.091-.047-1.183.038-2.218.391-3.22 1.14-.286.21-.706.181-.888-.096-.2-.314-.057-.725.277-.954 1.46-1.02 3.047-1.28 4.673-1.547l.508-.084s.124 0 .229-.129c.307-.396.583-.775.857-1.151.385-.53.767-1.055 1.227-1.616.797-.973 1.823-1.87 2.605-2.542.936-.802 1.584-1.149 2.195-1.476l.314-.17c.191-.095-.023-.215-.08-.215l-.88-.167h-.001c-3.71-.71-7.53-1.443-11.194-.086-2.738 1.021-3.94 3.197-3.363 4.647.41 1.03 1.765 1.192 3.034.572a6.849 6.849 0 002.72-2.414c.381-.596 1.197-.167.758.869-1.16 2.719-3.368 4.875-6.059 4.966-2.294.076-3.773-1.613-3.768-3.693.01-4.102 4.58-6.802 9.374-7.208 4.045-.333 7.94.32 11.88.982 1.693.284 3.393.57 5.117.778 4.398.53 8.615.544 13.037-.477.525-.11.888.225.859.75-.048.763-.64 1.497-2.094 2.29-1.656.91-3.387 1.187-5.2 1.201-3.002.027-5.864-.771-8.73-1.57-1.307-.364-2.614-.729-3.935-1.015 0 .034.003.07.005.106.012.158.023.321-.1.418-2.338 1.718-4.452 3.469-5.869 5.925-.047.058-.019.115.063.105.339-.017.669-.032.992-.046a65.75 65.75 0 002.49-.145c.196-.014.205-.061.19-.21a2.849 2.849 0 01.888-2.475c.763-.682 1.717-.763 2.352-.267.715.558.653 1.57.262 2.323a2.804 2.804 0 01-1.698 1.379s-.134.028-.115.147c.015.114.33.332.597.516.18.125.338.234.367.286.072.124.033.31-.095.453a.549.549 0 01-.42.2c-.144 0-.233-.049-.412-.148l-.017-.01a4.083 4.083 0 01-1.193-.963c-.115-.138-.172-.143-.444-.124-1.24.072-3.177.258-4.484.42-.32.038-.367.1-.43.21l-.138.23c-2.05 3.378-4.238 6.986-6.635 9.42-2.624 2.667-4.809 3.368-7.127 3.387zm-23.981-11c0-9.212 22.073-16.735 49.307-16.735 27.23 0 49.307 7.528 49.307 16.735S80.567 40.74 53.333 40.74 4.026 33.214 4.026 24.007zm-1.799 0c0 10.08 22.88 18.251 51.106 18.251 28.222 0 51.101-8.171 51.101-18.251 0-10.085-22.88-18.252-51.101-18.252-28.227 0-51.106 8.167-51.106 18.252z" fill="#B7BFC7"/></g><defs><clipPath id="clip0"><path fill="#fff" d="M0 0h106.667v48H0z"/></clipPath></defs></svg>