<svg fill="none" height="42" viewBox="0 0 124 42" width="124" xmlns="http://www.w3.org/2000/svg" xmlns:xlink="http://www.w3.org/1999/xlink"><clipPath id="a"><path d="m0 0h124v42h-124z"/></clipPath><g clip-path="url(#a)" fill="#b7bfc7"><path d="m42.8984 22.9865c-1.0558-.5835-1.6115-1.0558-1.6115-1.7227 0-.8613.7502-1.3892 1.9449-1.3892 1.3892 0 2.6117.5835 2.6117.5835l.9725-2.9729s-.8891-.6946-3.5286-.6946c-3.6675 0-6.2236 2.1116-6.2236 5.0567 0 1.667 1.1947 2.9451 2.7784 3.862 1.278.7224 1.7226 1.2503 1.7226 2.0004 0 .8058-.6391 1.4448-1.8338 1.4448-1.7781 0-3.4452-.9169-3.4452-.9169l-1.028 2.9729s1.5559 1.028 4.1398 1.028c3.7787 0 6.4737-1.8615 6.4737-5.1956.0556-1.8337-1.3336-3.1118-2.9729-4.0564zm15.0589-6.2514c-1.8615 0-3.3063.889-4.4454 2.2227l-.0556-.0278 1.6115-8.4463h-4.2232l-4.0842 21.477h4.1954l1.3892-7.335c.5557-2.7784 1.9726-4.4732 3.3063-4.4732.9446 0 1.3058.639 1.3058 1.5559 0 .5835-.0555 1.2781-.1945 1.8615l-1.5837 8.4186h4.1954l1.6393-8.6686c.1945-.9169.3056-2.0005.3056-2.7507.0556-2.4172-1.1669-3.8341-3.3619-3.8341zm12.9196 0c-5.0567 0-8.4185 4.5565-8.4185 9.641 0 3.2507 2.0004 5.8902 5.779 5.8902 4.9734 0 8.3074-4.4454 8.3074-9.641.0278-3.0285-1.7226-5.8902-5.6679-5.8902zm-2.056 12.2805c-1.4448 0-2.0282-1.2225-2.0282-2.7506 0-2.4172 1.2502-6.3348 3.5285-6.3348 1.5004 0 1.9727 1.2781 1.9727 2.5284 0 2.6117-1.2503 6.557-3.473 6.557zm18.5041-12.2805c-2.8339 0-4.4454 2.5005-4.4454 2.5005h-.0556l.2501-2.2505h-3.7231c-.1945 1.5281-.5279 3.8342-.8613 5.5846l-2.9173 15.3368h4.1954l1.1669-6.2237h.0834s.8613.5557 2.4727.5557c4.9456 0 8.1685-5.0567 8.1685-10.1689 0-2.8062-1.2502-5.3345-4.3343-5.3345zm-4.0009 12.3638c-1.0835 0-1.7226-.6112-1.7226-.6112l.6946-3.9176c.5001-2.6117 1.8616-4.362 3.3063-4.362 1.2781 0 1.6671 1.1947 1.6671 2.306 0 2.6951-1.6115 6.5848-3.9454 6.5848zm14.3366-18.393c-1.3336 0-2.4172 1.0558-2.4172 2.445 0 1.2503.7779 2.1116 1.9726 2.1116h.0556c1.3059 0 2.445-.8891 2.4728-2.445.0278-1.2503-.8058-2.1116-2.0838-2.1116zm-5.8902 21.2548h4.2231l2.8618-14.8922h-4.251zm17.7535-14.92h-2.917l.139-.6946c.25-1.4448 1.084-2.7229 2.501-2.7229.75 0 1.333.2223 1.333.2223l.834-3.2785s-.723-.3612-2.279-.3612c-1.5 0-2.972.4168-4.112 1.3892-1.444 1.2225-2.111 2.9729-2.445 4.7511l-.111.6946h-1.945l-.6108 3.1674h1.9448l-2.2227 11.7526h4.1957l2.222-11.7526h2.89zm10.114.0278s-2.64 6.6126-3.807 10.2245h-.055c-.083-1.167-1.028-10.2245-1.028-10.2245h-4.418l2.529 13.6697c.055.3056.027.5001-.084.6946-.5.9446-1.306 1.8615-2.278 2.5283-.778.5835-1.667.9447-2.362 1.1947l1.167 3.5564c.861-.1945 2.612-.8891 4.112-2.2783 1.917-1.806 3.695-4.5566 5.501-8.3352l5.14-11.0302z"/><path d="m20.7831 7.39971s-.389.11114-1.028.30563c-.1112-.3612-.2779-.77796-.5002-1.2225-.7223-1.3892-1.8059-2.13937-3.084-2.13937-.0833 0-.1667 0-.2778.02779-.0278-.05557-.0834-.08336-.1112-.13892-.5556-.61125-1.278-.88909-2.1393-.86131-1.6671.05557-3.3341 1.25028-4.66774 3.38965-.94465 1.50034-1.66703 3.38962-1.86152 4.86222-1.9171.5834-3.25073 1.0002-3.27852 1.028-.97244.3056-1.00022.3334-1.11136 1.2503-.08335.6946-2.6394756 20.2545-2.6394756 20.2545l21.0047156 3.6397v-30.42347c-.1667 0-.2501.02778-.3056.02778zm-4.8622 1.50034c-1.1114.33341-2.3339.72238-3.5286 1.08357.3334-1.30584 1.0002-2.61169 1.7782-3.473.3056-.30562.7224-.66681 1.1947-.88908.4723 1.00022.5834 2.36164.5557 3.27851zm-2.2783-4.38987c.389 0 .7224.08335 1.0002.25005-.4445.22227-.8891.58347-1.3058 1.00023-1.0558 1.13914-1.8616 2.91732-2.195 4.61214-1.0002.3056-2.00043.6112-2.9173.8891.61125-2.66728 2.8617-6.69596 5.4179-6.75152zm-3.223 15.28122c.1112 1.7782 4.8067 2.1671 5.0845 6.3625.1945 3.3063-1.7504 5.5568-4.5566 5.7235-3.38962.2223-5.25115-1.7782-5.25115-1.7782l.72239-3.0562s1.86153 1.417 3.36186 1.3058c.9724-.0555 1.3336-.8613 1.3058-1.4169-.1389-2.3339-3.97306-2.195-4.22312-6.0292-.22227-3.2229 1.88931-6.4736 6.55702-6.7793 1.806-.1111 2.7228.3334 2.7228.3334l-1.0558 4.0009s-1.1947-.5556-2.6117-.4445c-2.056.1389-2.0838 1.4448-2.056 1.7782zm6.6126-11.22476c0-.83352-.1111-2.02823-.5001-3.02846 1.2781.25006 1.8893 1.66704 2.1672 2.52835-.5001.13892-1.0558.30562-1.6671.50011zm4.6955 29.17316 8.7242-2.1671s-3.7508-25.3668-3.7786-25.5335c-.0278-.16671-.1667-.27785-.3057-.27785-.1389 0-2.5839-.05557-2.5839-.05557s-1.5003-1.44476-2.056-2.00044z"/></g></svg>