<svg width="131" height="30" viewBox="0 0 131 30" fill="none" xmlns="http://www.w3.org/2000/svg"><path d="M64.966 7.38c-5.08 0-8.748 3.321-8.748 8.292 0 4.97 4.124 8.291 9.204 8.291 3.082 0 5.773-1.215 7.466-3.256l-3.516-2.04c-.933 1.02-2.344 1.606-3.929 1.606-2.214 0-4.08-1.15-4.775-2.995h12.915c.109-.521.152-1.042.152-1.606-.022-4.993-3.668-8.292-8.77-8.292zm-4.363 6.664c.586-1.845 2.149-2.996 4.363-2.996 2.214 0 3.777 1.15 4.363 2.996h-8.726zm53.961-6.664c-5.079 0-8.748 3.321-8.748 8.292 0 4.97 4.125 8.291 9.204 8.291 3.082 0 5.774-1.215 7.467-3.256l-3.517-2.04c-.933 1.02-2.344 1.606-3.929 1.606-2.214 0-4.08-1.15-4.775-2.995h12.915c.109-.521.152-1.042.152-1.606 0-4.993-3.668-8.292-8.769-8.292zm-4.341 6.664c.586-1.845 2.149-2.996 4.363-2.996 2.214 0 3.776 1.15 4.363 2.996h-8.726zM92.25 15.672c0 2.756 1.802 4.601 4.602 4.601 1.888 0 3.321-.868 4.059-2.257l3.538 2.04c-1.454 2.431-4.211 3.907-7.597 3.907-5.101 0-8.748-3.32-8.748-8.291s3.669-8.292 8.748-8.292c3.386 0 6.121 1.476 7.597 3.907l-3.538 2.04c-.738-1.41-2.149-2.257-4.06-2.257-2.8-.022-4.6 1.823-4.6 4.602zM130.236 2.3v21.185h-4.146V2.3h4.146zM17.018 0l17.017 29.477H0L17.017 0zm42.565 2.3L46.82 24.42 34.057 2.3h4.797l7.987 13.828L54.83 2.3h4.754zm27.132 5.536v4.471a5.384 5.384 0 00-1.476-.217c-2.67 0-4.601 1.845-4.601 4.602v6.816h-4.146V7.835h4.146v4.232c0-2.344 2.713-4.232 6.077-4.232z" fill="#B7BFC7"/></svg>