<svg width="96" height="48" viewBox="0 0 96 48" fill="none" xmlns="http://www.w3.org/2000/svg"><g clip-path="url(#clip0)"><path fill-rule="evenodd" clip-rule="evenodd" d="M52.043 4v5.42l-6.702 1.443V5.415L52.043 4zm13.939 8.438c-2.617 0-4.3 1.228-5.234 2.082l-.347-1.655h-5.875V44l6.676-1.415.027-7.557c.961.694 2.376 1.682 4.726 1.682 4.78 0 9.133-3.845 9.133-12.31-.027-7.743-4.433-11.962-9.106-11.962zM64.38 30.835c-1.576 0-2.51-.561-3.151-1.255l-.027-9.907c.694-.774 1.656-1.308 3.178-1.308 2.43 0 4.112 2.723 4.112 6.221 0 3.578-1.656 6.249-4.112 6.249zm31.75-6.169c0-6.836-3.312-12.23-9.64-12.23-6.356 0-10.2 5.394-10.2 12.177 0 8.037 4.539 12.096 11.054 12.096 3.178 0 5.58-.72 7.397-1.736v-5.34c-1.816.908-3.899 1.469-6.543 1.469-2.59 0-4.886-.908-5.18-4.06h13.058c0-.146.01-.48.02-.866v-.002c.016-.523.033-1.139.033-1.508zM82.937 22.13c0-3.017 1.843-4.272 3.525-4.272 1.629 0 3.364 1.255 3.364 4.273h-6.889zm-30.895-9.237h-6.702v23.364h6.702V12.893zm-14.312 0l.427 1.975c1.576-2.884 4.7-2.296 5.554-1.976v6.142c-.827-.294-3.498-.668-5.073 1.388v15.835h-6.676V12.892h5.768zM24.807 7.096L18.29 8.486l-.026 21.389c0 3.952 2.964 6.862 6.916 6.862 2.19 0 3.791-.4 4.673-.88v-5.421c-.855.347-5.074 1.575-5.074-2.377v-9.48h5.074v-5.687H24.78l.027-5.795zM9.025 18.232c-1.415 0-2.27.4-2.27 1.442 0 1.137 1.471 1.637 3.296 2.258 2.974 1.011 6.889 2.343 6.905 7.275 0 4.78-3.818 7.53-9.372 7.53a18.51 18.51 0 01-7.29-1.522V28.86c2.243 1.228 5.073 2.136 7.29 2.136 1.495 0 2.563-.4 2.563-1.63 0-1.258-1.594-1.834-3.519-2.53C3.698 25.779 0 24.444 0 19.995c0-4.726 3.605-7.556 9.025-7.556 2.217 0 4.406.347 6.623 1.228v6.275c-2.03-1.095-4.593-1.709-6.623-1.709z" fill="#B7BFC7"/></g><defs><clipPath id="clip0"><path fill="#fff" d="M0 0h96v48H0z"/></clipPath></defs></svg>