<svg width="52" height="52" viewBox="0 0 52 52" fill="none" xmlns="http://www.w3.org/2000/svg">
<g filter="url(#filter0_d)">
<path fill-rule="evenodd" clip-rule="evenodd" d="M26 27C32.6274 27 38 21.6274 38 15C38 8.37258 32.6274 3 26 3C19.3726 3 14 8.37258 14 15C14 21.6274 19.3726 27 26 27ZM31.2501 13.4998C31.2501 15.3899 30.2513 17.0467 28.7527 17.9712C30.5168 18.8345 31.8716 20.4053 32.4474 22.3139C30.7288 23.8299 28.4718 24.7498 25.9999 24.7498C23.2477 24.7498 20.7618 23.6095 18.989 21.7755C19.7015 19.9579 21.1392 18.5043 22.9461 17.7706C21.6165 16.8181 20.7501 15.2601 20.7501 13.4998C20.7501 10.6003 23.1006 8.24982 26.0001 8.24982C28.8996 8.24982 31.2501 10.6003 31.2501 13.4998Z" fill="white" fill-opacity="0.5"/>
</g>
<g filter="url(#filter1_d)">
<rect x="34.0797" y="20" width="8.92035" height="7" rx="2" fill="white"/>
<path d="M38.5398 16.9844C37.2626 16.9844 36.2273 18.0197 36.2273 19.2969V21.8906H40.8523V19.2969C40.8523 18.0197 39.817 16.9844 38.5398 16.9844Z" stroke="white" stroke-width="2"/>
</g>
<path d="M8 34V33C8 31.8954 8.89543 31 10 31H26H42C43.1046 31 44 31.8954 44 33V34" stroke="white" stroke-width="2" stroke-linecap="round" stroke-linejoin="round"/>
<path d="M26 32V36.9208" stroke="white" stroke-width="2" stroke-linecap="round"/>
<g filter="url(#filter2_d)">
<circle cx="26" cy="45" r="4" stroke="white" stroke-opacity="0.5" stroke-width="2"/>
</g>
<g filter="url(#filter3_d)">
<circle cx="44" cy="41" r="3" stroke="white" stroke-opacity="0.5" stroke-width="2"/>
</g>
<g filter="url(#filter4_d)">
<circle cx="8" cy="41" r="3" stroke="white" stroke-opacity="0.5" stroke-width="2"/>
</g>
<defs>
<filter id="filter0_d" x="14" y="3" width="24" height="25" filterUnits="userSpaceOnUse" color-interpolation-filters="sRGB">
<feFlood flood-opacity="0" result="BackgroundImageFix"/>
<feColorMatrix in="SourceAlpha" type="matrix" values="0 0 0 0 0 0 0 0 0 0 0 0 0 0 0 0 0 0 127 0"/>
<feOffset dy="1"/>
<feColorMatrix type="matrix" values="0 0 0 0 0.105882 0 0 0 0 0.121569 0 0 0 0 0.137255 0 0 0 0.05 0"/>
<feBlend mode="normal" in2="BackgroundImageFix" result="effect1_dropShadow"/>
<feBlend mode="normal" in="SourceGraphic" in2="effect1_dropShadow" result="shape"/>
</filter>
<filter id="filter1_d" x="34.0797" y="15.9844" width="8.92035" height="12.0156" filterUnits="userSpaceOnUse" color-interpolation-filters="sRGB">
<feFlood flood-opacity="0" result="BackgroundImageFix"/>
<feColorMatrix in="SourceAlpha" type="matrix" values="0 0 0 0 0 0 0 0 0 0 0 0 0 0 0 0 0 0 127 0"/>
<feOffset dy="1"/>
<feColorMatrix type="matrix" values="0 0 0 0 0.105882 0 0 0 0 0.121569 0 0 0 0 0.137255 0 0 0 0.05 0"/>
<feBlend mode="normal" in2="BackgroundImageFix" result="effect1_dropShadow"/>
<feBlend mode="normal" in="SourceGraphic" in2="effect1_dropShadow" result="shape"/>
</filter>
<filter id="filter2_d" x="21" y="40" width="10" height="11" filterUnits="userSpaceOnUse" color-interpolation-filters="sRGB">
<feFlood flood-opacity="0" result="BackgroundImageFix"/>
<feColorMatrix in="SourceAlpha" type="matrix" values="0 0 0 0 0 0 0 0 0 0 0 0 0 0 0 0 0 0 127 0"/>
<feOffset dy="1"/>
<feColorMatrix type="matrix" values="0 0 0 0 0.105882 0 0 0 0 0.121569 0 0 0 0 0.137255 0 0 0 0.05 0"/>
<feBlend mode="normal" in2="BackgroundImageFix" result="effect1_dropShadow"/>
<feBlend mode="normal" in="SourceGraphic" in2="effect1_dropShadow" result="shape"/>
</filter>
<filter id="filter3_d" x="40" y="37" width="8" height="9" filterUnits="userSpaceOnUse" color-interpolation-filters="sRGB">
<feFlood flood-opacity="0" result="BackgroundImageFix"/>
<feColorMatrix in="SourceAlpha" type="matrix" values="0 0 0 0 0 0 0 0 0 0 0 0 0 0 0 0 0 0 127 0"/>
<feOffset dy="1"/>
<feColorMatrix type="matrix" values="0 0 0 0 0.105882 0 0 0 0 0.121569 0 0 0 0 0.137255 0 0 0 0.05 0"/>
<feBlend mode="normal" in2="BackgroundImageFix" result="effect1_dropShadow"/>
<feBlend mode="normal" in="SourceGraphic" in2="effect1_dropShadow" result="shape"/>
</filter>
<filter id="filter4_d" x="4" y="37" width="8" height="9" filterUnits="userSpaceOnUse" color-interpolation-filters="sRGB">
<feFlood flood-opacity="0" result="BackgroundImageFix"/>
<feColorMatrix in="SourceAlpha" type="matrix" values="0 0 0 0 0 0 0 0 0 0 0 0 0 0 0 0 0 0 127 0"/>
<feOffset dy="1"/>
<feColorMatrix type="matrix" values="0 0 0 0 0.105882 0 0 0 0 0.121569 0 0 0 0 0.137255 0 0 0 0.05 0"/>
<feBlend mode="normal" in2="BackgroundImageFix" result="effect1_dropShadow"/>
<feBlend mode="normal" in="SourceGraphic" in2="effect1_dropShadow" result="shape"/>
</filter>
</defs>
</svg>
