<svg width="52" height="52" viewBox="0 0 52 52" fill="none" xmlns="http://www.w3.org/2000/svg">
<path opacity="0.5" d="M31 25H37" stroke="white" stroke-width="2"/>
<g opacity="0.5" filter="url(#filter0_d)">
<path fill-rule="evenodd" clip-rule="evenodd" d="M50 42C50 38.1341 46.8659 35 43 35C39.4736 35 36.5561 37.6077 36.0709 41H35C34.4477 41 34 41.4477 34 42C34 42.5523 34.4477 43 35 43H36.0709C36.5561 46.3923 39.4736 49 43 49C46.8659 49 50 45.8659 50 42Z" fill="white"/>
</g>
<g filter="url(#filter1_d)">
<path fill-rule="evenodd" clip-rule="evenodd" d="M20 12C20 7.0295 15.9705 3 11 3C6.0295 3 2 7.0295 2 12C2 16.9705 6.0295 21 11 21C15.9705 21 20 16.9705 20 12ZM15.0937 10.8276L9.18356 7.5464C8.98606 7.43675 8.76388 7.37921 8.53798 7.37921C7.80344 7.37921 7.20798 7.97467 7.20798 8.70921V15.2104C7.20798 15.4327 7.26371 15.6515 7.37006 15.8467C7.72148 16.4917 8.52926 16.7297 9.17428 16.3783L15.0845 13.1584C15.3059 13.0377 15.4885 12.8566 15.611 12.636C15.9675 11.9938 15.7359 11.1842 15.0937 10.8276Z" fill="white"/>
</g>
<path opacity="0.5" fill-rule="evenodd" clip-rule="evenodd" d="M10 38V21V19.5V18.5H12V19.5V21C12 22.6569 13.3431 24 15 24H19.5C20.0523 24 20.5 24.4477 20.5 25C20.5 25.5523 20.0523 26 19.5 26H15C13.8744 26 12.8357 25.6281 12 25.0004V38C12 39.6569 13.3431 41 15 41H18.0709C18.5561 37.6077 21.4736 35 25 35C28.8659 35 32 38.1341 32 42C32 45.8659 28.8659 49 25 49C21.4736 49 18.5561 46.3923 18.0709 43H15C12.2386 43 10 40.7614 10 38Z" fill="white"/>
<g filter="url(#filter2_d)">
<path fill-rule="evenodd" clip-rule="evenodd" d="M32 25C32 21.1341 28.8659 18 25 18C21.1341 18 18 21.1341 18 25C18 28.8659 21.1341 32 25 32C28.8659 32 32 28.8659 32 25ZM28.7072 23.707C29.0977 23.3164 29.0976 22.6832 28.707 22.2928C28.3164 21.9023 27.6832 21.9024 27.2928 22.293L24.0008 25.5863L22.7065 24.2943C22.3156 23.9042 21.6824 23.9047 21.2922 24.2956C20.9021 24.6865 20.9027 25.3197 21.2935 25.7098L23.2951 27.7078C23.6858 28.0977 24.3186 28.0974 24.7088 27.707L28.7072 23.707Z" fill="white"/>
</g>
<g filter="url(#filter3_d)">
<path fill-rule="evenodd" clip-rule="evenodd" d="M50 25C50 21.1341 46.8659 18 43 18C39.1341 18 36 21.1341 36 25C36 28.8659 39.1341 32 43 32C46.8659 32 50 28.8659 50 25ZM46.7072 23.707C47.0977 23.3164 47.0976 22.6832 46.707 22.2928C46.3164 21.9023 45.6832 21.9024 45.2928 22.293L42.0008 25.5863L40.7065 24.2943C40.3156 23.9042 39.6824 23.9047 39.2922 24.2956C38.9021 24.6865 38.9027 25.3197 39.2935 25.7098L41.2951 27.7078C41.6858 28.0977 42.3186 28.0974 42.7088 27.707L46.7072 23.707Z" fill="white"/>
</g>
<circle cx="23" cy="42" r="1" fill="white"/>
<circle cx="27" cy="42" r="1" fill="white"/>
<defs>
<filter id="filter0_d" x="34" y="35" width="16" height="15" filterUnits="userSpaceOnUse" color-interpolation-filters="sRGB">
<feFlood flood-opacity="0" result="BackgroundImageFix"/>
<feColorMatrix in="SourceAlpha" type="matrix" values="0 0 0 0 0 0 0 0 0 0 0 0 0 0 0 0 0 0 127 0"/>
<feOffset dy="1"/>
<feColorMatrix type="matrix" values="0 0 0 0 0.105882 0 0 0 0 0.121569 0 0 0 0 0.137255 0 0 0 0.05 0"/>
<feBlend mode="normal" in2="BackgroundImageFix" result="effect1_dropShadow"/>
<feBlend mode="normal" in="SourceGraphic" in2="effect1_dropShadow" result="shape"/>
</filter>
<filter id="filter1_d" x="2" y="3" width="18" height="19" filterUnits="userSpaceOnUse" color-interpolation-filters="sRGB">
<feFlood flood-opacity="0" result="BackgroundImageFix"/>
<feColorMatrix in="SourceAlpha" type="matrix" values="0 0 0 0 0 0 0 0 0 0 0 0 0 0 0 0 0 0 127 0"/>
<feOffset dy="1"/>
<feColorMatrix type="matrix" values="0 0 0 0 0.105882 0 0 0 0 0.121569 0 0 0 0 0.137255 0 0 0 0.05 0"/>
<feBlend mode="normal" in2="BackgroundImageFix" result="effect1_dropShadow"/>
<feBlend mode="normal" in="SourceGraphic" in2="effect1_dropShadow" result="shape"/>
</filter>
<filter id="filter2_d" x="18" y="18" width="14" height="15" filterUnits="userSpaceOnUse" color-interpolation-filters="sRGB">
<feFlood flood-opacity="0" result="BackgroundImageFix"/>
<feColorMatrix in="SourceAlpha" type="matrix" values="0 0 0 0 0 0 0 0 0 0 0 0 0 0 0 0 0 0 127 0"/>
<feOffset dy="1"/>
<feColorMatrix type="matrix" values="0 0 0 0 0.105882 0 0 0 0 0.121569 0 0 0 0 0.137255 0 0 0 0.05 0"/>
<feBlend mode="normal" in2="BackgroundImageFix" result="effect1_dropShadow"/>
<feBlend mode="normal" in="SourceGraphic" in2="effect1_dropShadow" result="shape"/>
</filter>
<filter id="filter3_d" x="36" y="18" width="14" height="15" filterUnits="userSpaceOnUse" color-interpolation-filters="sRGB">
<feFlood flood-opacity="0" result="BackgroundImageFix"/>
<feColorMatrix in="SourceAlpha" type="matrix" values="0 0 0 0 0 0 0 0 0 0 0 0 0 0 0 0 0 0 127 0"/>
<feOffset dy="1"/>
<feColorMatrix type="matrix" values="0 0 0 0 0.105882 0 0 0 0 0.121569 0 0 0 0 0.137255 0 0 0 0.05 0"/>
<feBlend mode="normal" in2="BackgroundImageFix" result="effect1_dropShadow"/>
<feBlend mode="normal" in="SourceGraphic" in2="effect1_dropShadow" result="shape"/>
</filter>
</defs>
</svg>
