<svg width="52" height="52" viewBox="0 0 52 52" fill="none" xmlns="http://www.w3.org/2000/svg">
<g filter="url(#filter0_d)">
<path fill-rule="evenodd" clip-rule="evenodd" d="M51 42C51 37.0295 46.9705 33 42 33C37.0295 33 33 37.0295 33 42C33 46.9705 37.0295 51 42 51C46.9705 51 51 46.9705 51 42ZM43.1348 39.1C43.1348 38.5477 42.6871 38.1 42.1348 38.1C41.5825 38.1 41.1348 38.5477 41.1348 39.1V41.1744H39.0604C38.5081 41.1744 38.0604 41.6221 38.0604 42.1744C38.0604 42.7267 38.5081 43.1744 39.0604 43.1744H41.1348V45.2488C41.1348 45.8011 41.5825 46.2488 42.1348 46.2488C42.6871 46.2488 43.1348 45.8011 43.1348 45.2488V43.1744H45.2092C45.7615 43.1744 46.2092 42.7267 46.2092 42.1744C46.2092 41.6221 45.7615 41.1744 45.2092 41.1744H43.1348V39.1Z" fill="white"/>
</g>
<path fill-rule="evenodd" clip-rule="evenodd" d="M45.1304 6H6.86957C6.38932 6 6 6.40701 6 6.90909V45.0909C6 45.593 6.38932 46 6.86957 46H41.4747C41.2663 45.8167 41.1348 45.5481 41.1348 45.2488V43.1744H39.0604C38.5081 43.1744 38.0604 42.7267 38.0604 42.1744C38.0604 41.6221 38.5081 41.1744 39.0604 41.1744H41.1348V39.1C41.1348 38.5477 41.5825 38.1 42.1348 38.1C42.6871 38.1 43.1348 38.5477 43.1348 39.1V41.1744H45.2092C45.5309 41.1744 45.8171 41.3263 46 41.5622V6.90909C46 6.40701 45.6107 6 45.1304 6ZM45.1304 46H42.7949C43.0033 45.8167 43.1348 45.5481 43.1348 45.2488V43.1744H45.2092C45.5309 43.1744 45.8171 43.0225 46 42.7866V45.0909C46 45.593 45.6107 46 45.1304 46ZM17 20H23C23.5523 20 24 20.4477 24 21V27C24 27.5523 23.5523 28 23 28H17C16.4477 28 16 27.5523 16 27V21C16 20.4477 16.4477 20 17 20Z" fill="white" fill-opacity="0.5"/>
<g filter="url(#filter1_d)">
<path fill-rule="evenodd" clip-rule="evenodd" d="M12.8235 17H39.1765C39.6313 17 40 17.3687 40 17.8235V30.1765C40 30.6313 39.6313 31 39.1765 31H12.8235C12.3687 31 12 30.6313 12 30.1765V17.8235C12 17.3687 12.3687 17 12.8235 17ZM27 21.25C26.4477 21.25 26 21.6977 26 22.25C26 22.8023 26.4477 23.25 27 23.25H31C31.5523 23.25 32 22.8023 32 22.25C32 21.6977 31.5523 21.25 31 21.25H27ZM26 25.75C26 25.1977 26.4477 24.75 27 24.75H35C35.5523 24.75 36 25.1977 36 25.75C36 26.3023 35.5523 26.75 35 26.75H27C26.4477 26.75 26 26.3023 26 25.75ZM17 20H23C23.5523 20 24 20.4477 24 21V27C24 27.5523 23.5523 28 23 28H17C16.4477 28 16 27.5523 16 27V21C16 20.4477 16.4477 20 17 20Z" fill="white"/>
</g>
<path fill-rule="evenodd" clip-rule="evenodd" d="M6.86957 6H45.1304C45.6107 6 46 6.38376 46 6.85714V12H6V6.85714C6 6.38376 6.38932 6 6.86957 6Z" fill="white"/>
<defs>
<filter id="filter0_d" x="33" y="33" width="18" height="19" filterUnits="userSpaceOnUse" color-interpolation-filters="sRGB">
<feFlood flood-opacity="0" result="BackgroundImageFix"/>
<feColorMatrix in="SourceAlpha" type="matrix" values="0 0 0 0 0 0 0 0 0 0 0 0 0 0 0 0 0 0 127 0"/>
<feOffset dy="1"/>
<feColorMatrix type="matrix" values="0 0 0 0 0.105882 0 0 0 0 0.121569 0 0 0 0 0.137255 0 0 0 0.05 0"/>
<feBlend mode="normal" in2="BackgroundImageFix" result="effect1_dropShadow"/>
<feBlend mode="normal" in="SourceGraphic" in2="effect1_dropShadow" result="shape"/>
</filter>
<filter id="filter1_d" x="12" y="17" width="28" height="15" filterUnits="userSpaceOnUse" color-interpolation-filters="sRGB">
<feFlood flood-opacity="0" result="BackgroundImageFix"/>
<feColorMatrix in="SourceAlpha" type="matrix" values="0 0 0 0 0 0 0 0 0 0 0 0 0 0 0 0 0 0 127 0"/>
<feOffset dy="1"/>
<feColorMatrix type="matrix" values="0 0 0 0 0.105882 0 0 0 0 0.121569 0 0 0 0 0.137255 0 0 0 0.05 0"/>
<feBlend mode="normal" in2="BackgroundImageFix" result="effect1_dropShadow"/>
<feBlend mode="normal" in="SourceGraphic" in2="effect1_dropShadow" result="shape"/>
</filter>
</defs>
</svg>
