<svg fill="none" height="31" viewBox="0 0 201 31" width="201" xmlns="http://www.w3.org/2000/svg" xmlns:xlink="http://www.w3.org/1999/xlink"><clipPath id="a"><path d="m.5 0h200v31h-200z"/></clipPath><g clip-path="url(#a)" fill="#8b949e"><path clip-rule="evenodd" d="m179.162 21.984.01.029 3.484 5.7889c1.08 1.7349 2.859 2.5223 5.075 2.5223h8.963l-10.493-12.7148-.009-.0056c-3.501-.1947-7.151 2.276-7.02 4.4042z" fill-rule="evenodd"/><path d="m179.172 22.0103-3.132-5.1789c-.377-.5875-.481-1.1016-.481-1.7005 0-.6588.281-1.02 1.36-1.592 1.256-.6015 3.786-.8631 6.393-.8631 4.237 0 5.253 1.3598 5.686 2.8272 0 0-.599-.2377-2.006-.2377-4.464 0-8.032 2.1668-8.032 5.4477 0 .6885.212 1.2973.212 1.2973z"/><path d="m165.719-.0195312h4.213c1.777 0 2.506.7268492 3.224 1.4399812.823.74785 3.318 4.12479 8.593 10.71575h-5.709c-2.334 0-3.073-.3977-3.976-1.7745z"/><path d="m199.319 28.9531.305 1.0957h.006l.31-1.0957h.259l.201 1.3718h-.208l-.142-1.1192h-.005l-.32 1.1192h-.222l-.311-1.1147h-.003l-.143 1.1147h-.197l.2-1.3718zm-.645 0v.1763h-.405v1.1955h-.199v-1.1955h-.404v-.1763z"/><path d="m99.8006 12.1508h-.0471l-2.3978 6.778h4.8483zm4.2914 12.118-1.174-3.3295h-6.2774l-1.1764 3.3295h-2.6796l5.6229-14.82011h2.9865l5.536 14.82011zm22.744-15.41394h2.622v2.47754h-2.622zm.03 4.12544h2.561v11.2885h-2.561zm-18.916-4.12654h2.623v2.47864h-2.623zm.031 4.12654h2.561v11.2885h-2.561zm16.088-4.11194h-2.561v15.40044h2.561zm-8.165 9.89544v5.505h-2.57v-8.3878c0-.806-.092-2.3405-.123-2.8984h2.069c.223 0 .287.0943.294.3143.004.3334.022 1.3987.022 1.3987h.059c.202-.4883.93-1.9499 3.059-1.9499.712 0 1.24.2301 1.326.2649 0 .4861-.05 1.5525-.076 1.8343-.016.1852-.096.2458-.188.2458-.088 0-.128-.0202-.177-.0392-.159-.0674-.532-.1808-1.049-.1808-1.368 0-2.646.9868-2.646 3.8931zm23.331 5.505v-7.2899c0-1.392-.635-2.2406-1.827-2.2406-1.576 0-2.623 1.6771-2.623 3.9402v5.5903h-2.563v-8.2924c0-.9126-.083-2.2428-.125-2.9938h2.059c.232 0 .298.0954.3.3042.007.2413.027 1.4088.027 1.4088h.059c.308-.531 1.098-1.951 3.459-1.951 2.435 0 3.796 1.6648 3.796 3.5338v7.9904zm7.09-6.8039h4.742c.098-1.8196-.858-2.8389-2.299-2.8389-1.509 0-2.374 1.0911-2.443 2.8389zm6.321 4.3253c.143 0 .185.1246.196.2525.044.4816.085 1.5705.078 1.8478-.274.0875-1.651.5939-3.501.5939-3.593 0-5.755-1.859-5.755-5.8609 0-3.4362 1.843-5.8778 5.157-5.8778 3.253 0 4.8 2.1755 4.8 4.8764 0 .3177-.035.8543-.091 1.5671h-7.237c0 1.9274 1.228 3.3105 3.498 3.3105 1.25 0 2.245-.448 2.64-.6388.078-.0382.124-.0707.215-.0707zm6.002 2.6942c3.335 0 4.931-1.364 4.931-3.3914 0-1.9959-1.418-2.8355-2.92-3.3317-.431-.1392-.853-.2807-1.247-.4131-1.028-.3402-1.561-.7869-1.561-1.4537 0-.7039.642-1.1967 1.975-1.1967 1.186 0 2.155.4839 2.538.6691.064.0292.122.0707.224.0707.081 0 .181-.0505.194-.2503.026-.3783.071-1.0642.071-1.7231-.311-.1426-1.433-.7185-3.237-.7185-2.755 0-4.449 1.4335-4.449 3.325 0 1.8343 1.253 2.6718 2.633 3.1286.318.1078.907.3009 1.252.4176 1.44.4783 1.851.9126 1.851 1.5862 0 .879-.936 1.3134-2.547 1.3134-1.321 0-2.23-.485-2.594-.6556-.075-.0325-.118-.0707-.221-.0707-.189 0-.193.2526-.195.2941-.008.1213-.068 1.2909-.068 1.6805.302.1302 1.611.7196 3.37.7196zm-151.03225-12.3336h-.04716l-2.39891 6.778h4.84502zm4.29045 12.118-1.1753-3.3295h-6.27741l-1.17532 3.3295h-2.678439l5.622919-14.82121h2.98376l5.53649 14.82121zm41.8705-15.41504h2.62v2.47754h-2.62zm.0303 4.12654h2.5594v11.2885h-2.5594zm-5.5006 5.7835v5.505h-2.565v-8.3878c0-.8071-.0921-2.3417-.1258-2.9007h2.07c.2234 0 .2897.0965.2908.3154.0067.3323.0269 1.3999.0269 1.3999h.0573c.2032-.4883.9295-1.9499 3.059-1.9499.7105 0 1.2426.229 1.3302.2638 0 .4861-.0528 1.5525-.0775 1.8354-.0168.1841-.0987.2436-.1897.2436-.0864 0-.1302-.018-.1773-.037-.1617-.0685-.5333-.1819-1.0463-.1819-1.3684 0-2.6526.9879-2.6526 3.8942zm-18.923 5.505v-7.2226c0-1.301-.5501-2.3102-1.8781-2.3102-1.4952 0-2.3574 1.6367-2.3574 3.929v5.6038h-2.5605v-7.245c0-1.1832-.4939-2.2878-1.868-2.2878-1.5165 0-2.3652 1.6334-2.3652 4.0098v5.523h-2.5662v-8.2217c0-1.0619-.0943-2.5639-.1246-3.0668h2.0509c.2313 0 .3076.0763.3121.3154.0056.2998.0236 1.3999.0236 1.3999h.0583c.1561-.3222.9991-1.951 3.352-1.951 2.1924 0 3.0309 1.5727 3.2386 2.0577.2021-.4266 1.1753-2.0577 3.3834-2.0577 2.2968 0 3.8639 1.2325 3.8639 3.7089v7.8153zm7.0878-6.8061h4.7429c.0976-1.8163-.8543-2.8378-2.299-2.8378-1.5088 0-2.372 1.0923-2.4439 2.8378zm6.3246 4.3275c.1403 0 .1829.1246.1942.2525.0437.4816.0853 1.5716.0785 1.8478-.2727.0875-1.6501.5939-3.5001.5939-3.5945 0-5.7565-1.8613-5.7565-5.8632 0-3.4317 1.8421-5.8755 5.1593-5.8755 3.2498 0 4.8001 2.1744 4.8001 4.8764 0 .3177-.036.8543-.0932 1.5648h-7.2372c0 1.9297 1.2292 3.3128 3.4957 3.3128 1.2516 0 2.2485-.448 2.6425-.6411.0786-.0381.1235-.0684.2167-.0684zm32.1412-3.2487h-.4356c-3.2195 0-3.8526 1.1192-3.8526 2.2563 0 .9295.6129 1.8097 1.8163 1.8097 1.5985 0 2.4719-1.5436 2.4719-3.1679zm.6174 5.7273c-.2066 0-.3783-.0685-.4008-.3682-.0247-.3682-.0752-1.081-.0752-1.081h-.0348c-.1515.2077-1.0855 1.6648-3.4305 1.6648-2.2463 0-3.535-1.7311-3.535-3.6316 0-2.6346 2.5583-3.9581 6.3537-3.9581h.5052v-.4142c0-1.1821-.8408-1.8152-2.4124-1.8152-1.4144 0-2.5886.4962-3.0455.7285-.0303.0146-.1134.0629-.1897.0629-.1213 0-.1897-.0752-.1965-.2088-.0202-.4243-.064-1.2404-.0707-1.7579.4625-.1763 1.9959-.7454 3.6831-.7454 3.3542 0 4.7945 1.557 4.7945 4.0435v4.4016c0 1.6052.1493 2.6559.2021 3.0791zm-8.8559-2.4786c.0674 0 .1628.0449.1852.2425.0494.5377.0696 1.4177.0719 1.6939-.5119.2526-1.621.7578-2.9816.7578-3.4193 0-5.5162-1.9848-5.5162-5.8677 0-3.6382 1.8645-5.871 5.5162-5.871 1.2113 0 2.326.4221 2.9816.7589 0 .4019-.0393 1.3122-.0719 1.695-.0157.1605-.0932.238-.1852.238-.1022 0-.137-.027-.1976-.0539-.8251-.4041-1.6007-.5995-2.299-.5995-2.1766 0-3.0724 1.4246-3.0724 3.8325 0 2.1463.7162 3.8291 3.0724 3.8291.9003 0 1.7209-.3211 2.2294-.5658.137-.064.1606-.0898.2672-.0898zm20.0321 2.4786v-7.2899c0-1.3931-.6353-2.2418-1.8253-2.2418-1.5772 0-2.6256 1.676-2.6256 3.9414v5.5903h-2.5606v-8.2924c0-.9126-.0831-2.2429-.1235-2.9961h2.0554c.2346 0 .302.0977.3031.3065.0056.2391.0247 1.4088.0247 1.4088h.0561c.3121-.5321 1.1002-1.9522 3.462-1.9522 2.4382 0 3.7988 1.666 3.7988 3.5328v7.9926z"/></g></svg>