<svg width="52" height="52" viewBox="0 0 52 52" fill="none" xmlns="http://www.w3.org/2000/svg">
<g filter="url(#filter0_d)">
<path fill-rule="evenodd" clip-rule="evenodd" d="M48.0001 42C48.0001 37.0295 43.9706 33 39.0001 33C34.0296 33 30.0001 37.0295 30.0001 42C30.0001 46.9705 34.0296 51 39.0001 51C43.9706 51 48.0001 46.9705 48.0001 42ZM43.0939 40.8276L37.1837 37.5464C36.9862 37.4367 36.764 37.3792 36.5381 37.3792C35.8036 37.3792 35.2081 37.9747 35.2081 38.7092V45.2104C35.2081 45.4327 35.2638 45.6515 35.3702 45.8467C35.7216 46.4917 36.5294 46.7297 37.1744 46.3783L43.0846 43.1584C43.3061 43.0377 43.4887 42.8566 43.6111 42.636C43.9676 41.9938 43.7361 41.1842 43.0939 40.8276Z" fill="white"/>
</g>
<path fill-rule="evenodd" clip-rule="evenodd" d="M16.0002 6C16.0002 4.89543 16.8956 4 18.0002 4H44.0002C45.1048 4 46.0002 4.89543 46.0002 6V36.3427C44.3502 34.3037 41.8275 33 39.0002 33C34.0296 33 30.0002 37.0294 30.0002 42C30.0002 43.4368 30.3369 44.795 30.9357 46H18.0002C16.8956 46 16.0002 45.1046 16.0002 44V6ZM15.2387 44.0428L0.171852 21.6874C-0.0292661 21.4477 -0.0493401 21.1334 0.127016 20.9854L6.32847 16.1093L15.2387 44.0428Z" fill="white" fill-opacity="0.5"/>
<path d="M6.06287 16.3203L6.32849 16.1172L15.2504 44.0625L14.6566 43.1953L6.06287 16.3203Z" fill="black" fill-opacity="0.05"/>
<g filter="url(#filter1_d)">
<path fill-rule="evenodd" clip-rule="evenodd" d="M41.2144 8H20.7858C20.3519 8 20.0001 8.39606 20.0001 8.88462V30.1154C20.0001 30.6039 20.3519 31 20.7858 31H41.2144C41.6483 31 42.0001 30.6039 42.0001 30.1154V8.88462C42.0001 8.39606 41.6483 8 41.2144 8ZM23.0001 12C23.0001 11.4477 23.4478 11 24.0001 11H33.0001C33.5524 11 34.0001 11.4477 34.0001 12C34.0001 12.5523 33.5524 13 33.0001 13H24.0001C23.4478 13 23.0001 12.5523 23.0001 12ZM27.0001 16C26.4478 16 26.0001 16.4477 26.0001 17C26.0001 17.5523 26.4478 18 27.0001 18H30.5094C31.0617 18 31.5094 17.5523 31.5094 17C31.5094 16.4477 31.0617 16 30.5094 16H27.0001ZM34.5187 16C33.9664 16 33.5187 16.4477 33.5187 17C33.5187 17.5523 33.9664 18 34.5187 18H38.0001C38.5524 18 39.0001 17.5523 39.0001 17C39.0001 16.4477 38.5524 16 38.0001 16H34.5187ZM30.0001 22C30.0001 21.4477 30.4478 21 31.0001 21H38.0001C38.5524 21 39.0001 21.4477 39.0001 22C39.0001 22.5523 38.5524 23 38.0001 23H31.0001C30.4478 23 30.0001 22.5523 30.0001 22ZM32.5317 25.9677C31.9795 25.9605 31.526 26.4024 31.5188 26.9546C31.5116 27.5069 31.9534 27.9604 32.5056 27.9676L34.9871 27.9999C35.5393 28.0071 35.9928 27.5653 36 27.013C36.0072 26.4608 35.5654 26.0073 35.0132 26.0001L32.5317 25.9677ZM24.0005 26C23.4482 25.9998 23.0003 26.4473 23.0001 26.9996C22.9999 27.5519 23.4475 27.9998 23.9997 28L28.5078 28.0017C29.0601 28.0019 29.508 27.5544 29.5082 27.0021C29.5084 26.4498 29.0608 26.0019 28.5086 26.0017L24.0005 26Z" fill="white"/>
</g>
<path d="M15.239 44.0374C15.3748 44.4104 15.7195 44.6741 15.994 44.5742L16.0699 44.5376C16.0699 44.5376 16.026 44.3542 16.0195 44.2516C16.0131 44.149 15.994 43.9235 15.994 43.9235L15.9941 6.90539L5.16392 10.8472C4.88942 10.9472 4.77697 11.3306 4.91276 11.7037L15.239 44.0374Z" fill="white" fill-opacity="0.7"/>
<defs>
<filter id="filter0_d" x="30.0001" y="33" width="18" height="19" filterUnits="userSpaceOnUse" color-interpolation-filters="sRGB">
<feFlood flood-opacity="0" result="BackgroundImageFix"/>
<feColorMatrix in="SourceAlpha" type="matrix" values="0 0 0 0 0 0 0 0 0 0 0 0 0 0 0 0 0 0 127 0"/>
<feOffset dy="1"/>
<feColorMatrix type="matrix" values="0 0 0 0 0.105882 0 0 0 0 0.121569 0 0 0 0 0.137255 0 0 0 0.05 0"/>
<feBlend mode="normal" in2="BackgroundImageFix" result="effect1_dropShadow"/>
<feBlend mode="normal" in="SourceGraphic" in2="effect1_dropShadow" result="shape"/>
</filter>
<filter id="filter1_d" x="20.0001" y="8" width="22" height="24" filterUnits="userSpaceOnUse" color-interpolation-filters="sRGB">
<feFlood flood-opacity="0" result="BackgroundImageFix"/>
<feColorMatrix in="SourceAlpha" type="matrix" values="0 0 0 0 0 0 0 0 0 0 0 0 0 0 0 0 0 0 127 0"/>
<feOffset dy="1"/>
<feColorMatrix type="matrix" values="0 0 0 0 0.105882 0 0 0 0 0.121569 0 0 0 0 0.137255 0 0 0 0.05 0"/>
<feBlend mode="normal" in2="BackgroundImageFix" result="effect1_dropShadow"/>
<feBlend mode="normal" in="SourceGraphic" in2="effect1_dropShadow" result="shape"/>
</filter>
</defs>
</svg>
