<svg fill="none" height="49" viewBox="0 0 117 49" width="117" xmlns="http://www.w3.org/2000/svg" xmlns:xlink="http://www.w3.org/1999/xlink"><clipPath id="a"><path d="m.893555.503662h115.672v47.538h-115.672z"/></clipPath><g clip-path="url(#a)" fill="#b1bac4"><path d="m107.915 33.7997c-.31 0-.523-.2146-.523-.5231v-15.3259h-5.206c-.31 0-.523-.2136-.523-.5225v-2.114c0-.3096.213-.5237.523-.5237h13.858c.309 0 .522.2144.522.5237v2.1139c0 .3087-.213.5226-.522.5226h-5.206v15.3257c0 .3087-.214.5233-.523.5233zm-39.8816-7.6516-2.733-7.8405-2.7574 7.8405zm6.0615 7.0323c.1195.3097-.0711.6193-.4039.6193h-2.4717c-.3567 0-.5709-.1659-.6901-.5001l-1.4018-4.038h-7.677l-1.4043 4.038c-.1179.3343-.3327.5001-.6885.5001h-2.3287c-.3094 0-.5237-.3097-.4047-.6193l6.4415-17.9137c.1192-.3338.333-.4754.6889-.4754h3.1852c.3569 0 .5946.1417.7134.4754zm18.4638-1.9474c1.5206 0 2.5432-.7354 3.3754-1.9953l-3.8501-4.1349c-1.4744.8323-2.4257 1.6628-2.4257 3.3266.0002 1.6398 1.3307 2.8036 2.9004 2.8036zm1.0695-13.924c-1.2357 0-1.9487.7849-1.9487 1.8302 0 .8077.427 1.5207 1.4019 2.5664 1.6875-.9749 2.401-1.5686 2.401-2.6137 0-.975-.6178-1.7829-1.8542-1.7829zm10.5308 15.8253c.309.3329.119.6654-.262.6654h-3.019c-.404 0-.618-.0956-.8793-.4048l-1.8065-1.995c-1.212 1.6158-2.9011 2.8273-5.7053 2.8273-3.4702 0-6.2045-2.0908-6.2045-5.678 0-2.7572 1.4745-4.2307 3.7092-5.466-1.0943-1.2592-1.5925-2.5899-1.5925-3.7536 0-2.9471 2.0678-4.9664 5.1811-4.9664 3.1852 0 5.1347 1.8778 5.1347 4.6572 0 2.3761-1.711 3.7055-3.5181 4.7042l2.6626 2.876 1.4972-2.6147c.19-.3084.4041-.4276.7834-.4276h2.306c.381 0 .595.262.358.6658l-2.663 4.5613zm-23.7216.6654c.309 0 .524-.2146.524-.5231v-15.3259h5.2048c.309 0 .5227-.2136.5227-.5225v-2.114c0-.3096-.2137-.5237-.5227-.5237h-13.8583c-.3095 0-.523.2144-.523.5237v2.1139c0 .3087.2136.5226.523.5226h5.2048v15.3257c0 .3087.2146.5233.5233.5233z"/><path d="m10.0902 43.044c4.0312 3.1205 9.0909 4.9954 14.5806 4.9954 6.0075 0 11.4841-2.2304 15.6639-5.8916.0506-.0448.0257-.0744-.0243-.0448-1.8756 1.2527-7.2212 3.987-15.6394 3.987-7.3157 0-11.939-1.6323-14.5498-3.0896-.05-.0246-.0685.0129-.031.0436zm16.1946 1.215c5.8512 0 12.281-1.5951 16.1266-4.7525 1.0523-.8602 2.0547-2.0052 2.9524-3.5439.5168-.8854 1.0223-1.9373 1.434-2.9712.0183-.0504-.0128-.0749-.0508-.0183-3.5761 5.2627-13.9317 8.5451-24.6244 8.5451-7.558 0-15.69027-2.4169-18.87412-7.0318-.03133-.0427-.06267-.0244-.04359.0246 2.96598 6.3041 11.96411 9.748 23.07991 9.748zm-6.393-10.4582c-12.16948 0-17.90763-5.6679-18.948519-9.5357-.012837-.056-.049726-.0437-.049726.0066 0 1.3021.130325 2.9825.354555 4.0978.10697.543.54884 1.395 1.19666 2.0742 2.94679 3.0716 10.29353 7.3755 23.01693 7.3755 17.335 0 21.2986-5.7744 22.108-7.6734.5788-1.3581.8787-3.8124.8787-5.874 0-.4989-.0125-.8974-.0314-1.2886 0-.0635-.0368-.0687-.0495-.0068-.8663 4.6466-15.6771 10.8244-28.4757 10.8244zm-16.70599-19.7255c-.69732 1.3839-1.47027 3.7186-1.70005 4.9269-.10073.5177-.05782.7664.12373 1.1527 1.45859 3.0947 8.83641 8.0463 26.04601 8.0463 10.4991 0 18.6551-2.5794 19.9764-7.2864.2433-.8665.2564-1.7813-.0562-3.0141-.3492-1.3775-1.0033-2.9839-1.5569-4.1119-.0182-.0367-.0505-.0313-.0439.0122.2056 6.1736-17.0108 10.1525-25.6975 10.1525-9.4092 0-17.25904-3.7488-17.25904-8.4825 0-.4549.09413-.9098.21162-1.3832.0118-.0433-.02521-.0504-.04417-.0125zm37.18739-7.57999c.0999.15658.1498.32369.1498.54861 0 2.6408-8.0824 7.31248-20.9483 7.31248-9.4535 0-11.22341-3.5069-11.22341-5.73721 0-.79723.30576-1.61297.97914-2.44143.03678-.04926.00555-.06823-.03689-.03157-1.22811 1.04078-2.35654 2.21188-3.34644 3.47608-.47297.59783-.76659 1.12753-.76659 1.44483 0 4.6219 11.58919 7.9729 22.42539 7.9729 11.5461 0 16.6991-3.7692 16.6991-7.0817 0-1.1838-.4608-1.8749-1.6397-3.21468-.7652-.87159-1.489-1.58128-2.2551-2.27988-.037-.03052-.0628-.00566-.037.03157zm-3.5397-2.64021c-3.5634-2.13591-7.7014-3.351072-12.1625-3.351072-4.4922 0-8.7549 1.257602-12.3311 3.450062-1.0727.66019-1.6765 1.18926-1.6765 1.86935 0 2.00476 4.6853 4.16033 12.9975 4.16033 8.2259 0 14.6061-2.36106 14.6061-4.63377 0-.54248-.4741-.92201-1.4335-1.4949z"/></g></svg>