<svg fill="none" height="36" viewBox="0 0 120 36" width="120" xmlns="http://www.w3.org/2000/svg" xmlns:xlink="http://www.w3.org/1999/xlink"><clipPath id="a"><path d="m.827881.54541h118.568v35.4545h-118.568z"/></clipPath><g clip-path="url(#a)"><path d="m22.3315 19.3385c.3882.1305.8399.3246 1.3553.5823.9035.5186 1.6765 1.2281 2.3257 2.1316.7763 1.2917 1.1612 2.841 1.1612 4.648 0 6.2008-3.7479 9.2995-11.2371 9.2995h-14.52646c-.38817 0-.582259-.194-.582259-.5822v-29.83604c0-.38818.194089-.58226.582259-.58226h15.30616c2.7139 0 4.9058.74623 6.5856 2.22866 1.6766 1.48578 2.5198 3.45674 2.5198 5.90964 0 1.4222-.3246 2.6804-.9671 3.778-.6491 1.101-1.4891 1.9074-2.5231 2.4228zm-6.5856 12.2041c2.1952 0 3.8081-.3547 4.8422-1.0641 1.0306-.7095 1.5493-1.9376 1.5493-3.681 0-1.7435-.5187-2.9682-1.5493-3.681-1.0341-.7094-2.6504-1.0641-4.8422-1.0641h-9.10542c-.51868 0-.77635.1941-.77635.5822v8.3324c0 .3882.25767.5823.77635.5823h9.10542zm-9.10542-22.08587c-.38817 0-.58226.19409-.58226.58227v6.9738c0 .3882.19409.5822.58226.5822h8.91132c3.3564 0 5.0363-1.3552 5.0363-4.0691s-1.6799-4.06917-5.0363-4.06917zm47.07972 9.88177c.3882.1305.7764.3246 1.1612.5823 1.0307.5186 1.807 1.2281 2.3257 2.1316.9035 1.2917 1.3553 2.841 1.3553 4.648 0 6.2008-3.7479 9.2995-11.237 9.2995h-14.5299c-.3882 0-.5822-.194-.5822-.5822v-29.83604c0-.38818.194-.58226.5822-.58226h15.3062c2.5834 0 4.7451.74623 6.4919 2.22866 1.7435 1.48578 2.6169 3.45674 2.6169 5.90964 0 1.4222-.3246 2.6804-.9671 3.778-.6526 1.101-1.4925 1.9074-2.5232 2.4228zm-15.8884-9.88177c-.3882 0-.5823.19409-.5823.58227v6.9738c0 .3882.1941.5822.5823.5822h9.1054c3.3564 0 5.0362-1.3552 5.0362-4.0691s-1.6798-4.06917-5.0362-4.06917zm9.2995 22.08587c2.1952 0 3.8081-.3547 4.8421-1.0641 1.0307-.7095 1.5494-1.9376 1.5494-3.681 0-1.7435-.5187-2.9682-1.5494-3.681-1.034-.7094-2.6503-1.0641-4.8421-1.0641h-9.2995c-.3882 0-.5823.1941-.5823.5822v8.3324c0 .3882.1941.5823.5823.5823h9.2995zm39.1355-26.15503c.1271-.25767.2576-.38817.3882-.38817h5.0362c.1272 0 .2577.06692.3882.19408.1271.13051.1271.26102 0 .38818l-16.0792 30.22424c-.1305.1305-.2911.194-.4852.194s-.3581-.0635-.4853-.194l-16.0791-30.22424c-.1306-.12716-.164-.25767-.0971-.38818.0636-.12716.2242-.19408.4852-.19408h4.8422c.2577 0 .4518.1305.5823.38817l10.2665 19.37533c0 .1305.1272.1941.3882.1941.2577 0 .4518-.0636.5823-.1941zm5.8126 25.77023c-.1305.261-.3246.3882-.5823.3882h-5.0362c-.1305 0-.2276-.0636-.2912-.1941-.0669-.1272-.097-.2577-.097-.3882l16.0823-30.224202c.127-.127161.321-.194088.582-.194088.258 0 .452.066927.583.194088l16.076 30.224202c0 .1305-.034.261-.097.3882-.067.1305-.164.1941-.292.1941h-5.036c-.261 0-.455-.1272-.582-.3882l-10.076-19.3754c-.13-.2576-.325-.3881-.582-.3881-.261 0-.455.1305-.582.3881z" fill="#b1bac4"/></g></svg>