<svg fill="none" height="73" viewBox="0 0 73 73" width="73" xmlns="http://www.w3.org/2000/svg" xmlns:xlink="http://www.w3.org/1999/xlink"><clipPath id="a"><path d="m.117188 0h72.5454v72.5454h-72.5454z"/></clipPath><g clip-path="url(#a)"><path d="m57.8849 36.2726c0 11.8792-9.6158 21.495-21.4949 21.495v-21.495zm-21.4949-21.4949v21.4949h-21.495c0-11.8791 9.6158-21.4949 21.495-21.4949z" fill="#63707b"/><g fill="#b1bac4"><path d="m36.39 14.7777c11.8791 0 21.4949 9.6158 21.4949 21.4949h-21.4949zm-21.495 21.4949h21.495v21.495c-11.8792 0-21.495-9.6158-21.495-21.495z"/><path d="m36.3899 14.7778v1.1785c11.2014 0 20.3164 9.1129 20.3164 20.3164h1.1785c0-11.8706-9.6243-21.4949-21.4949-21.4949zm0 41.8113c-11.2014 0-20.3164-9.1129-20.3164-20.3164h-1.1785c0 11.8706 9.6243 21.4949 21.4949 21.4949m0-57.7676c-20.0323 0-36.272712 16.2404-36.272712 36.2727s16.240412 36.2727 36.272712 36.2727 36.2727-16.2404 36.2727-36.2727-16.2404-36.2727-36.2727-36.2727zm33.9139 36.2727c0 18.7292-15.1825 33.914-33.9139 33.914s-33.91396-15.1848-33.91396-33.914 15.18476-33.91395 33.91396-33.91395 33.9139 15.18475 33.9139 33.91395z"/><path d="m20.8889 18.7741c1.1591-1.2125 1.8153-2.6133.6562-3.9507-.6307-.7258-1.6896-.8845-2.5675-.5269l-.0873.0339.0276-.0762c.13-.3449.2131-1.4452-.7308-2.2049-.4602-.3703-1.0376-.5078-1.6215-.4486-1.0888.11-1.9261.8485-4.206 3.373-.6882.7617-1.6896 1.9636-2.2905 2.7423l6.2622 5.8995c2.0753-2.2811 2.9212-3.1296 4.5576-4.8414zm-8.1713-1.4432c1.2614-1.532 2.6016-2.9222 3.2088-3.4724.1918-.1735.4006-.347.6542-.4147.4112-.1122.8352.1777.9311.5967.0959.4211-.1705.821-.4666 1.1511-.667.747-3.113 3.2883-3.113 3.2883zm2.4524 2.3107s2.3822-2.5011 3.1599-3.301c.3089-.3174.5071-.5099.7202-.6136.2748-.1333.5752-.1608.8437.0169.2642.1756.3857.4782.3196.7787-.0788.3576-.3729.6983-.6158.9586-.3281.3491-3.1534 3.3518-3.1577 3.356zm21.9357-7.9033 2.005-4.46064.1279-.3957-.0362.41263.2109 5.96081c.7031.0656 1.4297.163 2.1456.2815l-.326-8.8281c-1.0014-.11004-1.9986-.18833-2.9958-.23065l-1.9751 4.86899-.0703.36184-.0704-.36184-1.973-4.86899c-.9972.04232-1.9944.12061-2.9958.23065l-.326 8.8281c.7159-.1185 1.4425-.2137 2.1456-.2815l.211-5.96081-.0362-.41263.1278.3957 2.005 4.46064zm16.6516 9.228c.4922.5247 1.2017 1.3712 1.6001 1.8853l7.3382-4.6256c-.3665-.4761-.9503-1.1998-1.3871-1.7098l-4.6471 3.0514-.3174.2708.2365-.3428 2.0518-4.067-1.451-1.441-4.0973 2.0377-.3452.2349.2748-.3153 3.0747-4.6129c-.5412-.4571-1.0611-.8761-1.7238-1.38391l-4.6577 7.28131c.5902.4507 1.3679 1.113 1.8644 1.5637l4.385-2.2599.2812-.2053-.2067.2793z"/></g></g></svg>