<svg width="48" height="49" viewBox="0 0 48 49" fill="none" xmlns="http://www.w3.org/2000/svg">
<path opacity="0.5" fill-rule="evenodd" clip-rule="evenodd" d="M35.0497 42.5947C31.5455 44.7542 27.4183 46 23 46C10.2975 46 0 35.7025 0 23C0 10.2975 10.2975 0 23 0C35.7025 0 46 10.2975 46 23C46 28.2437 44.2452 33.0776 41.2908 36.9464L36.9687 34.5469C36.7712 34.4372 36.5491 34.3797 36.3232 34.3797C35.5886 34.3797 34.9932 34.9752 34.9932 35.7097V42.2109C34.9932 42.3414 35.0124 42.4707 35.0497 42.5947Z" fill="white"/>
<g filter="url(#filter0_d)">
<path fill-rule="evenodd" clip-rule="evenodd" d="M4.03906 9.96875C6.44244 11.7709 12.0586 14.8073 16.6643 10.0073C20.1416 6.3833 19.1598 1.71416 18.6953 0.398438C15.4297 1.03125 12.75 2.21875 10.3672 3.78125C7.89544 5.40207 5.74219 7.52344 4.03906 9.96875Z" fill="white" fill-opacity="0.7"/>
</g>
<g filter="url(#filter1_d)">
<path fill-rule="evenodd" clip-rule="evenodd" d="M0.843775 16.7969C1.18203 15.481 1.97 14.8416 2.94534 15.2954C3.92068 15.7493 4.32449 18.6052 5.82645 19.1741C7.3284 19.7429 10.8124 17.8928 12.4398 17.1836C14.0672 16.4744 17.4952 15.4138 19.3269 17.5813C21.1587 19.7488 19.5994 24.7251 19.3269 25.3272C19.0545 25.9292 17.8017 29.0322 20.186 29.7852C22.5703 30.5381 23.7054 29.3045 26.6314 29.7852C29.5574 30.2659 32.3486 32.2847 32.8555 36.4939C33.0483 38.0953 33.9235 42.0649 33.5313 43.4688C32.1875 44.0938 30.9079 44.7099 28.6407 45.2812C25.7188 46.25 15.9219 47.3594 8.00004 40.4375C-1.21241 32.3879 -0.593713 21.7969 0.843775 16.7969Z" fill="white" fill-opacity="0.7"/>
</g>
<g filter="url(#filter2_d)">
<path d="M34.5977 15.2809C31.8538 14.3234 27.0626 12.8436 25.1875 9.0624C23.3125 5.28115 24.604 1.72665 26.0208 0.199219C40.2188 2.20303 44.3594 14.4374 44.3594 14.4374C45.1719 16.0312 47.9375 25.1844 43.6875 32.9188H36.3445C34.4092 28.2292 36.9095 22.605 37.3728 21.2123C38.033 19.2282 37.3416 16.2384 34.5977 15.2809Z" fill="white" fill-opacity="0.7"/>
</g>
<g filter="url(#filter3_d)">
<path fill-rule="evenodd" clip-rule="evenodd" d="M48 39C48 34.0295 43.9705 30 39 30C34.0295 30 30 34.0295 30 39C30 43.9705 34.0295 48 39 48C43.9705 48 48 43.9705 48 39ZM42.8858 37.8276L36.9756 34.5464C36.7781 34.4367 36.5559 34.3792 36.33 34.3792C35.5955 34.3792 35 34.9747 35 35.7092V42.2104C35 42.4327 35.0557 42.6515 35.1621 42.8467C35.5135 43.4917 36.3213 43.7297 36.9663 43.3783L42.8765 40.1584C43.098 40.0377 43.2806 39.8566 43.403 39.636C43.7595 38.9938 43.528 38.1842 42.8858 37.8276Z" fill="white"/>
</g>
<defs>
<filter id="filter0_d" x="4.03906" y="0.398438" width="15.1468" height="13.188" filterUnits="userSpaceOnUse" color-interpolation-filters="sRGB">
<feFlood flood-opacity="0" result="BackgroundImageFix"/>
<feColorMatrix in="SourceAlpha" type="matrix" values="0 0 0 0 0 0 0 0 0 0 0 0 0 0 0 0 0 0 127 0"/>
<feOffset dy="1"/>
<feColorMatrix type="matrix" values="0 0 0 0 0.105882 0 0 0 0 0.121569 0 0 0 0 0.137255 0 0 0 0.05 0"/>
<feBlend mode="normal" in2="BackgroundImageFix" result="effect1_dropShadow"/>
<feBlend mode="normal" in="SourceGraphic" in2="effect1_dropShadow" result="shape"/>
</filter>
<filter id="filter1_d" x="0.0106201" y="15.1501" width="33.6206" height="31.8508" filterUnits="userSpaceOnUse" color-interpolation-filters="sRGB">
<feFlood flood-opacity="0" result="BackgroundImageFix"/>
<feColorMatrix in="SourceAlpha" type="matrix" values="0 0 0 0 0 0 0 0 0 0 0 0 0 0 0 0 0 0 127 0"/>
<feOffset dy="1"/>
<feColorMatrix type="matrix" values="0 0 0 0 0.105882 0 0 0 0 0.121569 0 0 0 0 0.137255 0 0 0 0.05 0"/>
<feBlend mode="normal" in2="BackgroundImageFix" result="effect1_dropShadow"/>
<feBlend mode="normal" in="SourceGraphic" in2="effect1_dropShadow" result="shape"/>
</filter>
<filter id="filter2_d" x="24.2517" y="0.199219" width="21.7435" height="33.7195" filterUnits="userSpaceOnUse" color-interpolation-filters="sRGB">
<feFlood flood-opacity="0" result="BackgroundImageFix"/>
<feColorMatrix in="SourceAlpha" type="matrix" values="0 0 0 0 0 0 0 0 0 0 0 0 0 0 0 0 0 0 127 0"/>
<feOffset dy="1"/>
<feColorMatrix type="matrix" values="0 0 0 0 0.105882 0 0 0 0 0.121569 0 0 0 0 0.137255 0 0 0 0.05 0"/>
<feBlend mode="normal" in2="BackgroundImageFix" result="effect1_dropShadow"/>
<feBlend mode="normal" in="SourceGraphic" in2="effect1_dropShadow" result="shape"/>
</filter>
<filter id="filter3_d" x="30" y="30" width="18" height="19" filterUnits="userSpaceOnUse" color-interpolation-filters="sRGB">
<feFlood flood-opacity="0" result="BackgroundImageFix"/>
<feColorMatrix in="SourceAlpha" type="matrix" values="0 0 0 0 0 0 0 0 0 0 0 0 0 0 0 0 0 0 127 0"/>
<feOffset dy="1"/>
<feColorMatrix type="matrix" values="0 0 0 0 0.105882 0 0 0 0 0.121569 0 0 0 0 0.137255 0 0 0 0.05 0"/>
<feBlend mode="normal" in2="BackgroundImageFix" result="effect1_dropShadow"/>
<feBlend mode="normal" in="SourceGraphic" in2="effect1_dropShadow" result="shape"/>
</filter>
</defs>
</svg>
