<svg width="52" height="52" viewBox="0 0 52 52" fill="none" xmlns="http://www.w3.org/2000/svg">
<path opacity="0.5" fill-rule="evenodd" clip-rule="evenodd" d="M45.1304 6H6.86957C6.38932 6 6 6.40701 6 6.90909V45.0909C6 45.593 6.38932 46 6.86957 46H43H45.1304C45.6107 46 46 45.593 46 45.0909V6.90909C46 6.40701 45.6107 6 45.1304 6ZM43 46C42.4477 46 42 45.5523 42 45C42 44.4477 42.4477 44 43 44C43.5523 44 44 44.4477 44 45C44 45.5523 43.5523 46 43 46ZM42.9928 43C43.5451 43 43.9928 42.5523 43.9928 42V39C43.9928 38.4477 43.5451 38 42.9928 38C42.4405 38 41.9928 38.4477 41.9928 39V42C41.9928 42.5523 42.4405 43 42.9928 43ZM34 19C34 19.5523 33.5523 20 33 20C32.4477 20 32 19.5523 32 19C32 18.4477 32.4477 18 33 18C33.5523 18 34 18.4477 34 19ZM33 25C33.5523 25 34 24.5523 34 24C34 23.4477 33.5523 23 33 23C32.4477 23 32 23.4477 32 24C32 24.5523 32.4477 25 33 25ZM19 18C19.5523 18 20 18.4477 20 19V25C20 25.5523 19.5523 26 19 26C18.4477 26 18 25.5523 18 25V19C18 18.4477 18.4477 18 19 18ZM24 22C24 21.4477 23.5523 21 23 21C22.4477 21 22 21.4477 22 22V25C22 25.5523 22.4477 26 23 26C23.5523 26 24 25.5523 24 25V22ZM15 23C15.5523 23 16 23.4477 16 24V25C16 25.5523 15.5523 26 15 26C14.4477 26 14 25.5523 14 25V24C14 23.4477 14.4477 23 15 23ZM18 34C17.4477 34 17 34.4477 17 35C17 35.5523 17.4477 36 18 36H23C23.5523 36 24 35.5523 24 35C24 34.4477 23.5523 34 23 34H18ZM14 39C14 38.4477 14.4477 38 15 38H18C18.5523 38 19 38.4477 19 39C19 39.5523 18.5523 40 18 40H15C14.4477 40 14 39.5523 14 39ZM23 38C22.4477 38 22 38.4477 22 39C22 39.5523 22.4477 40 23 40H28C28.5523 40 29 39.5523 29 39C29 38.4477 28.5523 38 28 38H23Z" fill="white"/>
<path opacity="0.7" fill-rule="evenodd" clip-rule="evenodd" d="M31.25 31H11.75C11.3358 31 11 31.2066 11 31.4615V42.5385C11 42.7934 11.3358 43 11.75 43H31.25C31.6642 43 32 42.7934 32 42.5385V31.4615C32 31.2066 31.6642 31 31.25 31ZM17 35C17 34.4477 17.4477 34 18 34H23C23.5523 34 24 34.4477 24 35C24 35.5523 23.5523 36 23 36H18C17.4477 36 17 35.5523 17 35ZM15 38C14.4477 38 14 38.4477 14 39C14 39.5523 14.4477 40 15 40H18C18.5523 40 19 39.5523 19 39C19 38.4477 18.5523 38 18 38H15ZM23 38C22.4477 38 22 38.4477 22 39C22 39.5523 22.4477 40 23 40H28C28.5523 40 29 39.5523 29 39C29 38.4477 28.5523 38 28 38H23Z" fill="white"/>
<path opacity="0.7" fill-rule="evenodd" clip-rule="evenodd" d="M11.5714 15H26.4286C26.7442 15 27 15.2239 27 15.5V27.5C27 27.7761 26.7442 28 26.4286 28H11.5714C11.2558 28 11 27.7761 11 27.5V15.5C11 15.2239 11.2558 15 11.5714 15ZM14 25C14 25.5523 14.4477 26 15 26C15.5523 26 16 25.5523 16 25V24C16 23.4477 15.5523 23 15 23C14.4477 23 14 23.4477 14 24V25ZM19 26C18.4477 26 18 25.5523 18 25V19C18 18.4477 18.4477 18 19 18C19.5523 18 20 18.4477 20 19V25C20 25.5523 19.5523 26 19 26ZM22 25C22 25.5523 22.4477 26 23 26C23.5523 26 24 25.5523 24 25V22C24 21.4477 23.5523 21 23 21C22.4477 21 22 21.4477 22 22V25Z" fill="white"/>
<path opacity="0.7" fill-rule="evenodd" clip-rule="evenodd" d="M40.6071 15H30.3929C30.1759 15 30 15.2239 30 15.5V27.5C30 27.7761 30.1759 28 30.3929 28H40.6071C40.8241 28 41 27.7761 41 27.5V15.5C41 15.2239 40.8241 15 40.6071 15ZM34 19C34 19.5523 33.5523 20 33 20C32.4477 20 32 19.5523 32 19C32 18.4477 32.4477 18 33 18C33.5523 18 34 18.4477 34 19ZM33 25C33.5523 25 34 24.5523 34 24C34 23.4477 33.5523 23 33 23C32.4477 23 32 23.4477 32 24C32 24.5523 32.4477 25 33 25Z" fill="white"/>
<g filter="url(#filter0_d)">
<path d="M44.0154 18C44.5677 18 45.0154 18.4477 45.0154 19C45.0154 19.5523 44.5677 20 44.0154 20V18ZM38.012 20C37.4597 20 37.012 19.5523 37.012 19C37.012 18.4477 37.4597 18 38.012 18V20ZM44.0154 20H38.012V18H44.0154V20Z" fill="white"/>
</g>
<g filter="url(#filter1_d)">
<rect x="43" y="15" width="8" height="8" rx="2" fill="white"/>
</g>
<g filter="url(#filter2_d)">
<path d="M7.98535 18C7.43307 18 6.98535 18.4477 6.98535 19C6.98535 19.5523 7.43307 20 7.98535 20V18ZM14 20C14.5523 20 15 19.5523 15 19C15 18.4477 14.5523 18 14 18V20ZM7.98535 20H14V18H7.98535V20Z" fill="white"/>
</g>
<g filter="url(#filter3_d)">
<rect x="1" y="15" width="8" height="8" rx="2" fill="white"/>
</g>
<g filter="url(#filter4_d)">
<path d="M7.98535 34C7.43307 34 6.98535 34.4477 6.98535 35C6.98535 35.5523 7.43307 36 7.98535 36V34ZM14 36C14.5523 36 15 35.5523 15 35C15 34.4477 14.5523 34 14 34V36ZM7.98535 36H14V34H7.98535V36Z" fill="white"/>
</g>
<g filter="url(#filter5_d)">
<rect x="1" y="31" width="8" height="8" rx="2" fill="white"/>
</g>
<path fill-rule="evenodd" clip-rule="evenodd" d="M6.86957 6H45.1304C45.6107 6 46 6.38376 46 6.85714V12H6V6.85714C6 6.38376 6.38932 6 6.86957 6Z" fill="white"/>
<g filter="url(#filter6_d)">
<path fill-rule="evenodd" clip-rule="evenodd" d="M49.4097 34.3416C50.3363 34.5355 51 35.3525 51 36.2992V41.3053C51 43.078 50.739 45.2532 48.8884 47.3422C46.3166 49.9527 43.1925 50.9983 43.0028 51C42.8131 51.0017 39.4873 49.8349 37.1263 47.3422C35.319 45.4339 35 43.0739 35 41.3053V36.2992C35 35.3525 35.6637 34.5355 36.5903 34.3416L43 33L49.4097 34.3416ZM42.9928 43C43.5451 43 43.9928 42.5523 43.9928 42V39C43.9928 38.4477 43.5451 38 42.9928 38C42.4405 38 41.9928 38.4477 41.9928 39V42C41.9928 42.5523 42.4405 43 42.9928 43ZM44 45C44 44.4477 43.5523 44 43 44C42.4477 44 42 44.4477 42 45C42 45.5523 42.4477 46 43 46C43.5523 46 44 45.5523 44 45Z" fill="white"/>
</g>
<defs>
<filter id="filter0_d" x="37.012" y="18" width="8.00342" height="3" filterUnits="userSpaceOnUse" color-interpolation-filters="sRGB">
<feFlood flood-opacity="0" result="BackgroundImageFix"/>
<feColorMatrix in="SourceAlpha" type="matrix" values="0 0 0 0 0 0 0 0 0 0 0 0 0 0 0 0 0 0 127 0"/>
<feOffset dy="1"/>
<feColorMatrix type="matrix" values="0 0 0 0 0.105882 0 0 0 0 0.121569 0 0 0 0 0.137255 0 0 0 0.05 0"/>
<feBlend mode="normal" in2="BackgroundImageFix" result="effect1_dropShadow"/>
<feBlend mode="normal" in="SourceGraphic" in2="effect1_dropShadow" result="shape"/>
</filter>
<filter id="filter1_d" x="43" y="15" width="8" height="9" filterUnits="userSpaceOnUse" color-interpolation-filters="sRGB">
<feFlood flood-opacity="0" result="BackgroundImageFix"/>
<feColorMatrix in="SourceAlpha" type="matrix" values="0 0 0 0 0 0 0 0 0 0 0 0 0 0 0 0 0 0 127 0"/>
<feOffset dy="1"/>
<feColorMatrix type="matrix" values="0 0 0 0 0.105882 0 0 0 0 0.121569 0 0 0 0 0.137255 0 0 0 0.05 0"/>
<feBlend mode="normal" in2="BackgroundImageFix" result="effect1_dropShadow"/>
<feBlend mode="normal" in="SourceGraphic" in2="effect1_dropShadow" result="shape"/>
</filter>
<filter id="filter2_d" x="6.98535" y="18" width="8.01465" height="3" filterUnits="userSpaceOnUse" color-interpolation-filters="sRGB">
<feFlood flood-opacity="0" result="BackgroundImageFix"/>
<feColorMatrix in="SourceAlpha" type="matrix" values="0 0 0 0 0 0 0 0 0 0 0 0 0 0 0 0 0 0 127 0"/>
<feOffset dy="1"/>
<feColorMatrix type="matrix" values="0 0 0 0 0.105882 0 0 0 0 0.121569 0 0 0 0 0.137255 0 0 0 0.05 0"/>
<feBlend mode="normal" in2="BackgroundImageFix" result="effect1_dropShadow"/>
<feBlend mode="normal" in="SourceGraphic" in2="effect1_dropShadow" result="shape"/>
</filter>
<filter id="filter3_d" x="1" y="15" width="9" height="9" filterUnits="userSpaceOnUse" color-interpolation-filters="sRGB">
<feFlood flood-opacity="0" result="BackgroundImageFix"/>
<feColorMatrix in="SourceAlpha" type="matrix" values="0 0 0 0 0 0 0 0 0 0 0 0 0 0 0 0 0 0 127 0"/>
<feOffset dx="1" dy="1"/>
<feColorMatrix type="matrix" values="0 0 0 0 0.105882 0 0 0 0 0.121569 0 0 0 0 0.137255 0 0 0 0.05 0"/>
<feBlend mode="normal" in2="BackgroundImageFix" result="effect1_dropShadow"/>
<feBlend mode="normal" in="SourceGraphic" in2="effect1_dropShadow" result="shape"/>
</filter>
<filter id="filter4_d" x="6.98535" y="34" width="8.01465" height="3" filterUnits="userSpaceOnUse" color-interpolation-filters="sRGB">
<feFlood flood-opacity="0" result="BackgroundImageFix"/>
<feColorMatrix in="SourceAlpha" type="matrix" values="0 0 0 0 0 0 0 0 0 0 0 0 0 0 0 0 0 0 127 0"/>
<feOffset dy="1"/>
<feColorMatrix type="matrix" values="0 0 0 0 0.105882 0 0 0 0 0.121569 0 0 0 0 0.137255 0 0 0 0.05 0"/>
<feBlend mode="normal" in2="BackgroundImageFix" result="effect1_dropShadow"/>
<feBlend mode="normal" in="SourceGraphic" in2="effect1_dropShadow" result="shape"/>
</filter>
<filter id="filter5_d" x="1" y="31" width="9" height="9" filterUnits="userSpaceOnUse" color-interpolation-filters="sRGB">
<feFlood flood-opacity="0" result="BackgroundImageFix"/>
<feColorMatrix in="SourceAlpha" type="matrix" values="0 0 0 0 0 0 0 0 0 0 0 0 0 0 0 0 0 0 127 0"/>
<feOffset dx="1" dy="1"/>
<feColorMatrix type="matrix" values="0 0 0 0 0.105882 0 0 0 0 0.121569 0 0 0 0 0.137255 0 0 0 0.05 0"/>
<feBlend mode="normal" in2="BackgroundImageFix" result="effect1_dropShadow"/>
<feBlend mode="normal" in="SourceGraphic" in2="effect1_dropShadow" result="shape"/>
</filter>
<filter id="filter6_d" x="35" y="33" width="16" height="19" filterUnits="userSpaceOnUse" color-interpolation-filters="sRGB">
<feFlood flood-opacity="0" result="BackgroundImageFix"/>
<feColorMatrix in="SourceAlpha" type="matrix" values="0 0 0 0 0 0 0 0 0 0 0 0 0 0 0 0 0 0 127 0"/>
<feOffset dy="1"/>
<feColorMatrix type="matrix" values="0 0 0 0 0.105882 0 0 0 0 0.121569 0 0 0 0 0.137255 0 0 0 0.05 0"/>
<feBlend mode="normal" in2="BackgroundImageFix" result="effect1_dropShadow"/>
<feBlend mode="normal" in="SourceGraphic" in2="effect1_dropShadow" result="shape"/>
</filter>
</defs>
</svg>
