<svg fill="none" height="36" viewBox="0 0 147 36" width="147" xmlns="http://www.w3.org/2000/svg" xmlns:xlink="http://www.w3.org/1999/xlink"><clipPath id="a"><path d="m.5 0h146v36h-146z"/></clipPath><g clip-path="url(#a)"><path d="m19.2271.5c-1.915 0-4.357 2.516-4.357 6.895v2.135c-1.265-.832-2.74-1.284-4.586-1.284-5.21804.018-9.27604 4.252-9.27604 9.5 0 5.249 3.883 9.484 9.24104 9.484 2.583 0 4.621-.96 5.956-2.28.879 1.248 1.968 1.936 2.917 1.936.738 0 1.107-.416 1.107-1.34v-23.796c0-.833-.37-1.25-1.002-1.25zm-8.574 21.753c-2.58204 0-4.21604-1.937-4.21604-4.524 0-2.588 1.634-4.525 4.21604-4.525 2.583 0 4.217 1.937 4.217 4.524 0 2.607-1.634 4.525-4.217 4.525zm29.359-13.303h-1.81c-1.3 0-1.774.543-1.774 1.828v6.823c0 2.75-1.37 4.38-3.584 4.38-2.285 0-3.444-1.557-3.444-4.453v-6.75c0-1.339-.527-1.828-1.775-1.828h-1.81c-1.247 0-1.774.489-1.774 1.828v6.895c0 5.9 2.882 9.556 7.942 9.556 2.248 0 4.251-.905 5.657-2.48.843 1.376 2.003 2.136 3.04 2.136.632 0 1.106-.416 1.106-1.34v-14.765c0-1.339-.527-1.828-1.774-1.828zm14.266 18.28c5.43 0 9.47-4.235 9.47-9.483 0-5.375-4.058-9.483-9.47-9.483-5.394 0-9.47 4.235-9.47 9.483 0 5.375 4.076 9.483 9.47 9.483zm0-4.977c-2.442 0-4.058-1.937-4.058-4.524 0-2.588 1.598-4.525 4.058-4.525 2.478 0 4.059 1.937 4.059 4.524-.018 2.607-1.581 4.525-4.059 4.525zm14.196 4.289h1.8099c1.2301 0 1.7741-.489 1.7741-1.828v-22.875c0-.923-.3681-1.339-1.1071-1.339-1.81 0-4.2509 2.516-4.2509 6.895v17.319c0 1.34.527 1.828 1.774 1.828zm10.419-20.106c1.634 0 3.022-1.303 3.022-2.968s-1.388-2.968-3.022-2.968c-1.67 0-3.022 1.303-3.022 2.968s1.335 2.968 3.022 2.968zm-.9141 20.106h1.8101c1.3 0 1.774-.543 1.774-1.828v-13.935c0-1.285-.474-1.828-1.774-1.828h-1.8101c-1.3 0-1.7739.543-1.7739 1.828v13.935c0 1.267.4739 1.828 1.7739 1.828zm17.6751-18.278c-1.091-.00298-2.1705.22246-3.1691.66181-.9985.43935-1.8941 1.08289-2.6289 1.88919-.878-1.447-2.038-2.207-3.04-2.207-.737 0-1.106.416-1.106 1.339v14.767c0 1.34.527 1.828 1.774 1.828h1.81c1.3 0 1.774-.543 1.774-1.828v-6.84c0-2.733 1.547-4.38 3.813-4.38 2.302 0 3.514 1.592 3.514 4.452v6.768c0 1.34.527 1.828 1.7739 1.828h1.81c1.247 0 1.774-.489 1.774-1.828v-7.04c0-5.755-2.846-9.41-8.0989-9.41zm25.8439 12.83c1.582-1.212 2.548-3.04 2.548-5.139 0-.869-.176-1.647-.51-2.407 1.775-.905 2.443-2.552 2.443-4.108s-.598-2.009-1.476-1.593c-3.145 1.484-3.584 1.557-5.657 1.177-1.301-.235-2.249-.416-3.514-.416-2.337 0-4.252.76-5.869 2.135-1.51 1.303-2.284 3.203-2.284 5.212 0 2.1.932 3.927 2.548 5.14-2.108 1.14-3.584 3.547-3.584 6.406 0 4.723 3.689 7.999 9.435 7.999 6.026 0 9.47-3.62 9.47-8.343.035-2.86-1.441-4.996-3.55-6.063zm-5.885-7.998c1.95 0 3.145 1.031 3.145 3.112-.002.4109-.085.8175-.244 1.1964-.159.3788-.391.7227-.683 1.0118s-.639.5178-1.019.673c-.381.1553-.788.234-1.199.2318-1.81 0-3.11-1.448-3.11-3.113 0-1.954 1.23-3.112 3.11-3.112zm0 17.862c-2.337 0-4.076-1.557-4.076-3.547 0-2.208 1.634-3.548 4.076-3.548 2.477 0 4.111 1.34 4.111 3.548 0 2.026-1.704 3.547-4.111 3.547zm20.925-3.728c5.429 0 9.47-4.235 9.47-9.483 0-5.375-4.059-9.483-9.47-9.483-5.394 0-9.47 4.235-9.47 9.483 0 5.375 4.076 9.483 9.47 9.483zm0-4.977c-2.442 0-4.059-1.937-4.059-4.524 0-2.588 1.599-4.525 4.059-4.525 2.477 0 4.058 1.937 4.058 4.524 0 2.607-1.581 4.525-4.058 4.525z" fill="#8b949e"/></g></svg>