<svg fill="none" height="38" viewBox="0 0 123 38" width="123" xmlns="http://www.w3.org/2000/svg" xmlns:xlink="http://www.w3.org/1999/xlink"><clipPath id="a"><path d="m0 0h122.314v37.4545h-122.314z" transform="matrix(1 0 0 -1 .579346 38)"/></clipPath><g clip-path="url(#a)" fill="#b1bac4"><path d="m.579346 18.6274v18.082h4.798764 4.79879v-7.594-7.5939h4.7888 4.7939l-.1138.4997c-.2325 1.024-.2919 1.6622-.287 3.087 0 .9845.0248 1.4743.0841 1.87.4403 2.8793 1.6227 5.2935 3.5224 7.1834 2.0333 2.0332 4.7444 3.2997 7.8215 3.6609.747.089 2.4538.0989 3.285.0198 4.9719-.4601 8.5239-3.0178 10.5572-7.6088l.2227-.4997h-4.121-4.1161l-.2325.3166c-.3166.4305-.8608.9598-1.1923 1.1626-.6382.3859-1.3951.5492-2.528.5541-1.0933.005-1.781-.1682-2.5973-.6629-1.3555-.8163-2.3004-2.3153-2.4092-3.8341l-.0297-.4056h8.3805 8.3805l.1138.6678c.3463 2.0581 1.217 4.0963 2.4538 5.7536 1.9541 2.6121 4.7641 4.2744 7.8957 4.6602.7223.0891 2.0877.0644 2.7506-.0494 2.0432-.3513 3.8885-1.4792 5.155-3.1514.1484-.1979.2869-.3611.3117-.3611.0247 0 .0445.5244.0445 1.1626v1.1626h14.2726 14.2726v-4.032-4.032h-5.7882-5.7882v-3.5867-3.5867h5.7882 5.7882v-3.8588-3.8588h-5.7882-5.7882v-2.5725-2.57253h5.7882 5.7882v-4.03195-4.031949h-14.2726-14.2726v7.396029c0 4.0666-.0148 7.396-.0297 7.396-.0198 0-.282-.2374-.5838-.5343-.3067-.2918-.7371-.6579-.9597-.8212-1.0735-.7619-2.5478-1.2962-4.027-1.4594-.6135-.0693-2.2163-.0693-2.7605-.005-3.8391.475-7.0399 2.7358-8.8951 6.283-.3215.6085-.6678 1.4346-.8558 2.0184-.0643.193-.1287.3414-.1435.3216-.0198-.0248-.1039-.2474-.1929-.4997-1.0241-2.993-2.9634-5.3429-5.5656-6.7628-2.0432-1.1131-4.7691-1.6523-7.5494-1.5039-2.1174.1138-3.7945.5392-5.5705 1.405-1.969.9647-3.5867 2.4191-4.7394 4.2545l-.2771.4403v-2.3598-2.3598h-5.3924-5.3924v-2.5725-2.57253h5.8871 5.8872v-4.03195-4.031949h-10.6859-10.685954zm32.977854-.6975c1.7415.3759 2.9931 1.6177 3.4037 3.3937l.0693.2969h-4.5663-4.5662l.0692-.2721c.1188-.4403.381-1.0241.6778-1.4743.7173-1.1032 1.7958-1.7958 3.1266-2.0185.3513-.0544 1.3753-.0148 1.7859.0743zm25.76 1.1378c1.875.559 3.0079 2.0729 3.4581 4.6306.0989.5738.0841 2.528-.0198 3.1019-.2523 1.3307-.7866 2.4142-1.5732 3.181-.5739.559-1.3011.9449-2.1026 1.118-.5936.1287-1.6078.1188-2.1718-.0197-1.9294-.475-3.3443-2.1026-3.8489-4.4278-.1434-.6728-.1533-2.1223-.0198-2.8792.188-1.0389.5888-2.0828 1.0736-2.8001.2968-.4453.8954-1.0488 1.311-1.3259.4403-.2968 1.0092-.5343 1.5534-.653.6332-.1385 1.7414-.1039 2.34.0742z"/><path d="m92.0874 14.1898c3.0623 3.4234 9.7856 11.0075 9.7856 11.0421 0 .0297-7.3121 8.2816-10.0132 11.2895l-.1633.188h5.1946 5.1949l2.493-2.8199c1.365-1.5485 2.498-2.8199 2.513-2.815.015 0 1.148 1.2665 2.523 2.815l2.499 2.8149 5.387.005h5.392l-.153-.1633c-.079-.0841-2.399-2.6814-5.155-5.7585l-5.001-5.6052 4.957-5.5754c2.73-3.0673 5.016-5.6398 5.075-5.714l.119-.1386h-5.17-5.165l-2.438 2.7952c-1.91 2.1866-2.454 2.7803-2.509 2.7407-.034-.0297-1.182-1.2862-2.547-2.7951l-2.489-2.7408h-5.3577-5.3628z"/></g></svg>