<svg fill="none" height="40" viewBox="0 0 108 40" width="108" xmlns="http://www.w3.org/2000/svg" xmlns:xlink="http://www.w3.org/1999/xlink"><clipPath id="a"><path d="m.5 0h107v40h-107z"/></clipPath><g clip-path="url(#a)"><path clip-rule="evenodd" d="m.5 19.9976c0-11.12461 23.7329-19.9976 53.3333-19.9976 29.4097 0 53.3337 8.9684 53.3337 19.9976s-23.924 20.0024-53.3337 20.0024c-29.4049 0-53.3333-8.9445-53.3333-20.0024zm74.5899 4.4602c-.1145-.043-.2338-.1288-.2481-.2242-.0174-.0606-.0105-.1256.0191-.1813.4293-.873.7346-1.9845-.229-2.4472-.9255-.4437-2.3423.3768-3.6255 1.9511-1.0495 1.2928-1.622 2.6046-1.641 3.8879-.0048.4532.1669 1.0161.5676 1.226.9064.4722 1.9988-.2338 2.7907-.8873.52-.4294.9541-.873 1.3358-1.4455.0584-.0873.1146-.1706.169-.251.3313-.4906.5936-.8789.8804-1.4854.0478-.1002.0287-.1288-.019-.1431zm9.9177-10.4091c.1574 0 .2242.0906.1574.2147v-.0048c-.1128.1929-.7854 1.2324-1.7115 2.6637l-.0007.0011c-2.4411 3.7729-6.6424 10.2664-6.9986 11.1551-.1574.396-.1765.6918-.0143.9064.4103.5486 1.3166.229 1.8891-.1669 1.2142-.8404 2.162-1.804 3.0829-2.7402.3598-.3658.7158-.7277 1.0817-1.0762.0715-.0525.2003-.0763.2862 0 .0736.07.1608.1471.2511.2269.1434.1268.295.2608.412.3837.0954.1002.0572.1956.0095.2529-1.2689 1.5503-2.6714 3.0149-4.0167 4.0501-2.0894 1.6171-4.1741 2.0322-5.2045.997-.3816-.3912-.5915-.9398-.6202-1.4073-.0143-.2528-.1431-.2671-.2623-.1479-1.2356 1.2212-3.3775 2.5665-5.3238 1.6124-1.6315-.811-2.0084-2.7525-1.7031-4.3888.0096-.0334-.0286-.2671-.229-.1288-.3339.2433-.7823.5105-1.3357.7156-.5083.2338-1.0624.3511-1.6219.3435-.4033.0041-.8006-.0978-1.1522-.2953-.3516-.1976-.6452-.484-.8514-.8306-.2862-.4245-.3959-1.0685-.4293-1.536 0-.0525-.0668-.1479-.1431-.0239-1.0682 1.6271-2.0779 3.2143-3.1156 4.8453-.2554.4013-.5124.8053-.7723 1.2132-.0668.0954-.1288.1574-.2672.1669h-2.6046c-.1622 0-.2386-.124-.1527-.2767.1762-.338.6451-1.0717 1.253-2.0229 1.005-1.5727 2.3902-3.7399 3.4602-5.6956.4723-.8635.3769-1.3071.0811-1.4979-.3673-.2386-1.0972.1192-1.7174.5915-1.4238 1.0769-2.6566 2.6654-3.436 3.6697l-.0007.0009c-.1422.1831-.2692.3468-.3796.4844-.1388.17-.2751.3675-.4341.5981-.3275.4746-.7515 1.0894-1.4932 1.8921-1.7364 1.8891-4.0405 2.972-6.2588 2.223-.5844-.1988-1.111-.5381-1.5336-.9881-.4225-.45-.7281-.9969-.8897-1.5927-.0668-.229-.2004-.2957-.3244-.1431-.3578.4484-1.0924 1.1067-1.7031 1.5218-.0667.0477-.2337.1479-.3768.0763-.2665-.2612-.4931-.5602-.6727-.8873-.027-.0588-.0346-.1247-.0218-.1882.0129-.0634.0456-.1212.0934-.1648.8778-.7681 1.3548-1.2069 1.7364-1.684.3228-.4261.5786-.8991.7585-1.4025.5296-1.3452 1.746-3.8545 4.1646-5.1521.9255-.4913 1.8605-.8491 2.9004-.9683.4437-.0478.811.0047.9446.3577l.2528.6965c.0477.1431.0096.2529-.1574.3149-1.4264.5438-2.8575 1.3834-3.8497 2.7096-1.1211 1.5074-1.4216 3.3154-.6727 4.3554.5486.7585 1.4359.892 2.2851.6201 1.2927-.4055 2.3899-1.6124 2.9576-2.9481.6154-1.4597.7156-3.1866.2624-4.7036-.0763-.2624-.0095-.4628.1622-.6059.294-.2409.6823-.4328.8748-.528.0325-.0161.0593-.0294.0793-.0397.1355-.073.2932-.0934.4429-.0573.1496.0361.2807.1262.368.2529.4945.8152.7537 1.7514.749 2.7049.0334.2146.124.2194.2242.1049.218-.2315.4321-.4671.6453-.7017.6128-.6743 1.2177-1.3399 1.883-1.8743.8206-.6536 1.8748-1.1879 2.8575-1.164 1.269.0286 1.9034.8921 1.8605 2.4281-.0048.1909.1336.1813.229.0477.294-.4435.6544-.8393 1.0685-1.1735.8778-.7251 1.7794-1.0495 2.7144-.9827.2814.0195.5557.0967.8059.227.2502.1302.4708.3107.6481.5301.1773.2193.3074.4729.3823.7448.0748.272.0928.5564.0528.8356-.0465.3794-.1845.7418-.4023 1.056-.2177.3141-.5086.5706-.8476.7472-.6058.3006-1.307.2481-1.7984-.1908-.1914-.1795-.3319-.4064-.4073-.6578-.0754-.2513-.083-.5181-.022-.7733.0238-.1097-.1193-.2147-.2386-.0906-1.1305 1.1735-1.2116 2.6953-.477 3.3774.8157.7538 2.0322.2481 2.9243-.3291.9486-.6213 1.7714-1.3684 2.5809-2.1035.5828-.5291 1.1587-1.0521 1.7697-1.5173.9732-.7346 2.0751-1.3882 3.3154-1.5599.6819-.102 1.3786-.0196 2.0179.2385.8873.3578 1.4502 1.1067 1.5218 1.7555.0143.1908.1622.2147.2767.0477.2446-.3827.8623-1.3184 1.5763-2.3999 1.3331-2.0193 3.0017-4.547 3.2036-4.9322.0907-.1861.1956-.2147.396-.2147zm-36.5939 1.6505c.0334.1765.1049.2099.186.1909.445-.1212.8313-.399 1.0877-.7824.2385-.3435.3482-.8396.1145-1.0399-.2099-.1766-.5486-.1288-.8015.0954-.2148.1894-.3804.4282-.4826.6957-.1022.2676-.1379.5559-.1041.8403zm-19.907 15.3083c-2.91.0191-5.4765-1.7793-5.7722-4.8992-.1703-1.6224.2967-3.2474 1.3023-4.5319.8682-1.1306 2.3375-2.0656 3.5778-2.2946.4007-.0763.9446-.0286 1.1688.2385.353.4103.2528.8587-.1002 1.04-.9493.4818-2.0894 1.3119-2.6524 2.4425-.2599.4804-.3836 1.0229-.3575 1.5686.026.5457.2008 1.0738.5054 1.5274 1.1688 1.765 4.4317 1.8127 7.461-1.0018.7537-.6917 1.4216-1.3548 2.1037-2.1372 1.3357-1.5265 1.7794-2.0847 3.554-4.5462.0191-.0286.0286-.0668.0191-.0811-.0143-.0334-.0382-.0382-.0907-.0477-1.183.0382-2.2182.3912-3.22 1.1401-.2862.2099-.706.1813-.8873-.0954-.2004-.3148-.0572-.7251.2767-.9541 1.4607-1.0199 3.0468-1.2803 4.673-1.5472.1688-.0277.3381-.0555.5077-.0842 0 0 .124 0 .2289-.1288.3071-.3962.5829-.7751.8568-1.1515.3857-.5299.7676-1.0547 1.2279-1.6154.7967-.9732 1.8223-1.87 2.6047-2.5426.9357-.8015 1.5835-1.1485 2.1948-1.47589.1055-.05648.2098-.11238.3144-.16993.1908-.0954-.0238-.21467-.0811-.21467-.2925-.055-.5858-.11118-.8799-.1675-3.7097-.71053-7.5299-1.44223-11.194-.08533-2.7383 1.02092-3.9404 3.19622-3.3632 4.64642.4103 1.0304 1.7651 1.1926 3.034.5724 1.0495-.5104 2.0274-1.3452 2.7192-2.4138.3816-.5963 1.1973-.167.7584.8682-1.1592 2.7191-3.3679 4.8754-6.0584 4.966-2.2946.0763-3.7734-1.6124-3.7686-3.6923.0095-4.1026 4.5796-6.80261 9.3739-7.2081 4.045-.33374 7.9405.32018 11.881.98166 1.6919.28401 3.3921.56941 5.116.77863 4.3983.52951 8.6154.54383 13.0375-.47704.5248-.10973.8873.2242.8587.74895-.0477.76327-.6392 1.4979-2.0942 2.2898-1.6553.9112-3.387 1.1878-5.1998 1.2022-3.0019.0262-5.8642-.7716-8.7307-1.5706-1.3062-.364-2.6132-.7283-3.9347-1.01502.0009.03462.0034.07039.006.10646.0112.15776.0228.32126-.1014.41826-2.3375 1.7174-4.4508 3.4681-5.8677 5.9249-.0477.0572-.019.1145.0621.1049.3394-.0171.669-.032.9925-.0466.8497-.0385 1.6573-.0751 2.4899-.1442.1956-.0143.2051-.062.1908-.2099-.062-.4536-.0137-.9155.1407-1.3465.1545-.4309.4106-.8183.7466-1.1293.7632-.6822 1.7173-.7633 2.3518-.2672.7156.5582.6536 1.5695.2624 2.3232-.1763.3319-.4175.6249-.7092.8617-.2918.2369-.6281.4126-.9891.517 0 0-.1336.0286-.1145.1479.0143.1139.3295.3316.5965.5159.1801.1244.3383.2336.3671.2855.0716.124.0334.3101-.0954.4532-.051.0621-.115.1122-.1876.1469-.0725.0346-.1518.0528-.2322.0534-.1433 0-.2329-.0493-.412-.1478l-.0173-.0096c-.4548-.243-.8595-.57-1.1926-.9636-.1145-.1383-.1717-.1431-.4437-.124-1.2403.0715-3.1771.2576-4.4842.4198-.3196.0381-.3673.1001-.4293.2099l-.139.2292c-2.0494 3.379-4.2373 6.9863-6.635 9.4213-2.6237 2.6667-4.8086 3.3679-7.127 3.387zm-23.98078-11.0007c0-9.2117 22.07278-16.73465 49.30708-16.73465 27.2296 0 49.307 7.52775 49.307 16.73465s-22.0726 16.7346-49.307 16.7346c-27.2343 0-49.30708-7.5277-49.30708-16.7346zm-1.79845 0c0 10.0799 22.87893 18.2516 51.10553 18.2516 28.2218 0 51.101-8.1717 51.101-18.2516 0-10.08468-22.8792-18.25164-51.101-18.25164-28.2266 0-51.10553 8.16696-51.10553 18.25164z" fill="#8b949e" fill-rule="evenodd"/></g></svg>