<svg fill="none" height="54" viewBox="0 0 81 54" width="81" xmlns="http://www.w3.org/2000/svg" xmlns:xlink="http://www.w3.org/1999/xlink"><clipPath id="a"><path d="m.662598.96814h79.7489v52.6091h-79.7489z"/></clipPath><g clip-path="url(#a)" fill="#b1bac4"><path d="m56.707 2.56394c2.8966-1.42266 4.3321-1.23596 4.3644.20605.0387 1.87325-.2382 4.36431-.4378 6.16678-1.0751 9.79673-2.871 17.80193-3.0062 27.86063 4.7313-12.2486 8.6966-20.7617 13.8077-31.24657 1.6223-3.34092 2.6586-2.71647 3.991-3.30873 5.1884-2.3108995 5.3816-.89476 4.7055 1.9312-2.5168 10.4668-8.9606 43.4223-9.9452 48.4968-.2834 1.4683-1.8797.8458-2.2918.2717-1.8473-2.5556-3.933-2.5955-3.7014-4.2949 1.1588-8.4604 5.33-29.6875 6.418-34.6892-5.5426 11.3628-11.2908 25.5677-14.2455 33.6219-.6245 1.7103-1.7639 1.5849-2.4718.3335-.9979-1.7579-2.9354-2.6554-3.2574-4.7327-1.0105-6.6044 1.1588-19.1929 1.4612-27.157-3.0188 8.6998-8.0849 25.5902-10.3058 33.2214-.914 3.1575-3.9653 2.6424-3.1543-.4351 3.373-12.8067 10.6408-35.4571 13.7821-43.60007.7405-1.91838 2.678-1.85401 4.2873-2.64569z"/><path d="m38.3096.993287c-.9784-.238123-3.8173 1.293923-5.5618 1.596413-.5535.09656-1.0814.6823-1.2681 1.10081-2.7938 6.41789-5.2978 12.53569-7.4671 18.10889-2.7745.4738-6.0187 1.0976-9.6493 1.9131 2.6006-6.6708 5.227-13.2502 7.789-19.57793 1.2616-3.11563-2.0599-3.411699-3.3474-.25747-1.6737 4.10053-4.8086 11.7833-8.2782 20.738-2.54915.625-5.25269 1.3395-8.07866 2.1558-2.053525.5928-2.137102 1.14-1.24876 2.3714.48919.6857 1.49984.6166 1.96326 1.1052 1.19736 1.2663 1.92477 2.7809 4.06822 3.0101-1.91185 5.1142-3.82367 10.3883-5.55524 15.4665-1.087867 3.1876 2.00837 3.8397 3.19932.4666 1.91826-5.4375 3.93954-10.9406 6.01876-16.4276 1.7315-.4024 5.9221-1.3049 9.7908-2.1443-3.0705 8.4159-5.0919 14.8074-5.8578 17.9185-.1416.5986.0966.9308.2253 1.1747 1.0363 1.5082 2.0213 1.57 3.3538 3.4348.3605.5086 1.5708.7828 1.9826-.4693 2.8452-8.5942 5.7742-16.658 8.5035-23.887 1.1329-.2478 3.1734-.7402 4.4222-2.6038 2.2208-3.3075 2.8581-2.6367 3.3925-3.6422.6695-1.2623.2252-2.4474-2.1436-2.1546 0 0-.8948.0637-2.5491.2524 2.6263-6.7622 4.9244-12.49779 6.5787-16.86851.5668-1.48017.6376-2.56162-.2829-2.780503z"/><path d="m34.4343 44.852c.6115 1.5455 2.5234 1.0775 1.7959-.7879-.7403-1.9003-2.5813-7.621-3.0642-9.464-.6565-2.4834 2.1887-1.8043.7468-.1807-1.2359 1.3961-2.0599 1.9555-4.3451 4.6102-2.2079 2.5626-1.6092 5.8881.7532 6.6226 2.6649.8291 5.0146-2.1075 6.4693-4.262 1.4097-2.0863.045-3.31-1.3775-2.0766-.9142.793-1.9698 2.0109-3.0385 2.6675-.869.5285-1.5514-.0393-.3926-1.6343 1.3454-1.8468 2.8516-3.3943 3.9717-5.1395 2.2852-3.5565-2.2337-5.6067-4.1777-3.2964-1.0429 1.2314-.7789 2.4404-.4957 3.478.4571 1.662 2.1566 6.9675 3.1544 9.4631z"/></g></svg>