<svg fill="none" height="36" viewBox="0 0 201 36" width="201" xmlns="http://www.w3.org/2000/svg" xmlns:xlink="http://www.w3.org/1999/xlink"><clipPath id="a"><path d="m.411621.54541h200.158v35.4547h-200.158z"/></clipPath><g clip-path="url(#a)" clip-rule="evenodd" fill="#b1bac4" fill-rule="evenodd"><path d="m181.784 27.6068h7.604v-27.06139h-7.604z"/><path d="m200.569.54541v27.06139h-7.603v-27.06139z"/><path d="m16.6248 11.0561h-6.1498v-10.51069h-10.063379v27.06139h10.063379v-13.4184h6.1498v13.4184h10.0645v-27.06139h-10.0645z"/><path d="m63.8693 10.609-.6155-1.78867h-8.2748v18.78657h8.2748v-11.2944c0-2.4605 1.5662-3.8019 2.9077-3.8019 1.1179 0 2.5712.2235 2.5712 2.684v12.4123h8.2748v-12.1885c0-6.82155-7.6583-9.50464-13.1382-4.8094z"/><path d="m148.853 19.7228-3.857-10.90249h-5.647l-3.859 11.34979-4.026-11.34979h-7.882-.057-3.13l-3.97 9.55999-5.591-9.55999h-9.449l11.126 19.01009-1.453 3.5772c-.504 1.1191-1.709 1.1745-1.945.1119 0-1.9212-1.558-3.4781-3.479-3.4781-1.922 0-3.479 1.5569-3.479 3.4781.013 2.0133 2.026 4.641 5.995 4.4729 3.97-.1672 5.647-3.4657 6.206-4.8636l9.195-22.23525 6.628 18.71335h6.038l3.69-10.7918 3.803 10.7918h5.702l6.43-18.78659h-3.299z"/><path d="m40.9453 7.86536c-6.3315 0-11.4634 4.70784-11.4634 10.51494 0 5.8091 5.1319 10.517 11.4634 10.517 6.3326 0 11.4657-4.7079 11.4657-10.517 0-5.8071-5.1331-10.51494-11.4657-10.51494zm2.8524 15.43484c0 1.5755-1.2769 2.8523-2.8524 2.8523-1.5734 0-2.8502-1.2768-2.8502-2.8523v-9.8388c0-1.5744 1.2768-2.8501 2.8502-2.8501 1.5755 0 2.8524 1.2757 2.8524 2.8501z"/><path d="m102.303 19.8901c.061-.44.092-1.0542.092-1.5098 0-5.8071-5.133-10.51494-11.4645-10.51494-6.3326 0-11.4657 4.70784-11.4657 10.51494 0 5.8091 5.1331 10.517 11.4657 10.517 4.3505 0 8.1348-2.2234 10.0775-5.4988l-2.5321-.9371c-1.5305 2.339-4.3369 3.9054-7.5454 3.9054-1.5755 0-2.8523-1.4911-2.8523-3.0666v-3.4092zm-14.2248-6.4287c0-1.5744 1.2768-2.8501 2.8523-2.8501 1.5744 0 2.8512 1.2757 2.8512 2.8501v3.7456h-5.7035z"/><path d="m178.899 19.8901c.062-.44.093-1.0542.093-1.5098 0-5.8071-5.133-10.51494-11.465-10.51494s-11.465 4.70784-11.465 10.51494c0 5.8091 5.133 10.517 11.465 10.517 4.351 0 8.135-2.2234 10.079-5.4988l-2.533-.9371c-1.531 2.339-4.337 3.9054-7.546 3.9054-1.575 0-2.852-1.4911-2.852-3.0666v-3.4092zm-14.224-6.4287c0-1.5744 1.277-2.8501 2.852-2.8501s2.852 1.2757 2.852 2.8501v3.7456h-5.704z"/></g></svg>