<svg fill="none" height="37" viewBox="0 0 90 37" width="90" xmlns="http://www.w3.org/2000/svg" xmlns:xlink="http://www.w3.org/1999/xlink"><clipPath id="a"><path d="m0 .307129h89.8279v35.9312h-89.8279z"/></clipPath><g clip-path="url(#a)"><path clip-rule="evenodd" d="m35.2883 19.1167c.0871 5.159 3.279 9.2848 7.1297 9.2157 3.85-.0692 6.9-4.3072 6.8129-9.4663-.0879-5.1597-3.2797-9.28544-7.1304-9.21559-3.85.06912-6.9001 4.30719-6.8122 9.46619zm27.976-6.5314s.2102.4904.1216.2938zm3.061 20.4757.0243-.0456c.7538-1.4933 1.8504-3.8363 2.8246-6.0777l-5.7883-14.0586c-.0389-.0857-.1339-.3017-.3276-.7445-.4442-1.0181-.8575-1.9585-2.1075-2.43225-.6696-.22681-1.3824-.34562-2.2112-.34562-1.9045 0-4.3403.84817-4.3403 3.66787-.0322 1.8581 1.0478 2.3848 3.8151 3.734l.0006.0003c.3883.1893.8098.3949 1.2662.6226 3.0479 1.332 5.8596 2.8016 5.8762 6.2052 0 5.6745-5.5579 6.6566-8.2631 6.666-2.1471 0-4.1358-.4745-5.4153-1.304v-3.6808c2.0974 1.9153 3.9861 2.9053 6.401 2.9053 2.4719.0188 4.6694-1.1974 4.6694-3.5382 0-1.9534-1.7216-3.0961-4.7975-4.4044l-.2942-.1279c-2.4584-1.0685-4.2906-1.8649-5.2659-3.4449.1238.7136.1887 1.4509.1887 2.2055 0 6.3355-4.5679 11.4722-10.2029 11.4722-5.6349 0-10.2028-5.1367-10.2028-11.4722 0-3.8198 1.6604-7.2032 4.2129-9.2884h-6.9043v16.4361l.0007.0655v3.3777h-3.0666v-3.2675c.0022-.0576.0029-.1159.0029-.1757v-16.4361h-2.7037v-2.06864h2.7433c.3542-4.17328 2.924-6.533539 6.4817-6.533539 2.3069 0 3.5735.241929 4.305.582509v2.82899c-.0115.21097-.0115.33985-.0115.33985-.0317-.0036-.1073-.00504-.1073-.00504-1.1102-1.03036-2.2054-1.79719-4.7637-1.79431-2.0377 0-3.3855 1.66543-2.9147 4.58154h11.4773c.4745-.0756.9583-.11521 1.4508-.11521 4.0876 0 7.6144 2.70295 9.2424 6.60695-.0152-.2167-.0224-.4428-.0224-.679 0-4.07315 3.9191-5.80554 7.9902-5.7969.1555-.00071.3081 0 .4579.0036 1.4329-.02304 3.4742.44714 4.7205.77691l1.133 2.79979-.0011-.0032 1.2845 3.1746 3.4533 8.4733.4054 1.3609.4514-1.3609 4.367-10.876c.8057-2.99463 3.9947-4.29068 7.5171-4.28348 1.7511-.00792 3.0443.20449 4.5952.75315v3.28913c-1.9095-1.3962-3.2768-2.20765-5.4434-2.20765-1.9045 0-4.1934.84825-4.1934 3.66785-.0331 1.9093.9895 2.4128 3.905 3.848.3201.1576.6631.3264 1.03.5096 3.0479 1.3313 5.8596 2.8009 5.8762 6.2045 0 5.6745-5.5572 6.6574-8.2624 6.666-2.4149 0-4.6283-.5998-5.8595-1.6301v-3.7463l.198.1648c2.1968 2.0636 4.138 3.1329 6.6466 3.1329 2.4726.0187 4.6693-1.1981 4.6693-3.539 0-1.9534-1.7216-3.0961-4.7975-4.4044-2.9399-1.2802-4.8689-2.1284-5.6573-4.2489-1.1988 2.9414-6.7754 16.6039-8.088 19.5243h-3.0069l.7141-1.3413-.0041.0071.63-1.183zm0 0c-.254.5014-.4679.9038-.6225 1.1692zm.8573-18.7872-1.1426-2.8146c-.0528-.1248-.1-.2433-.1408-.3568zm-66.400281-9.76038-.000703-.04249v-3.40068h3.393504v24.94245l.00141.0778v3.3654h-3.394914v-3.4007l.000703-.0425zm9.762981 5.68608-.0374-2.48267h-2.98167l-.00075 2.85847v18.8806h3.06452v-3.351l-.0015-.0914v-12.4508c.0907-1.9505 2.8225-3.87732 4.9509-3.87732 2.5604 0 4.6521 1.73382 4.6521 4.13152l.0008 11.5802v4.0559h3.0629v-3.3754-.0677l-.0036-13.6028c-.0929-1.9232-2.4063-4.97829-5.9805-4.97829-3.7341 0-5.3052 1.33565-6.5515 2.67999-.0504.0655-.1038.1533-.1434.257l-.033.0007z" fill="#b1bac4" fill-rule="evenodd"/></g></svg>