<svg fill="none" height="45" viewBox="0 0 113 45" width="113" xmlns="http://www.w3.org/2000/svg"><path clip-rule="evenodd" d="m44.4984 23.4524c.1087 6.4324 4.0884 11.5765 8.8896 11.4903 4.8002-.0861 8.6031-5.3703 8.4945-11.8027-.1096-6.4333-4.0893-11.5774-8.8904-11.4903-4.8003.0861-8.6032 5.3703-8.4937 11.8027zm34.8813-8.1435s.2621.6114.1517.3663zm3.8165 25.5298.0303-.057c.94-1.8619 2.3072-4.7832 3.5219-7.5779l-7.217-17.5286c-.0485-.1068-.167-.3762-.4085-.9283-.5539-1.2694-1.0692-2.4419-2.6277-3.0326-.8349-.2828-1.7237-.4309-2.757-.4309-2.3745 0-5.4116 1.0575-5.4116 4.5731-.0402 2.3169 1.3065 2.9735 4.7567 4.6557.4843.2361 1.0104.4927 1.5796.7766 3.8002 1.6609 7.3059 3.4932 7.3265 7.7369 0 7.0751-6.9297 8.2997-10.3026 8.3114-2.6771 0-5.1567-.5917-6.752-1.6259v-4.5893c2.6152 2.388 4.97 3.6224 7.9811 3.6224 3.082.0234 5.8219-1.4929 5.8219-4.4115 0-2.4356-2.1466-3.8603-5.9818-5.4916l-.3667-.1595c-3.0652-1.3322-5.3497-2.3251-6.5657-4.2951.1544.8897.2352 1.809.2352 2.7498 0 7.8993-5.6953 14.3039-12.7212 14.3039-7.0258 0-12.7211-6.4046-12.7211-14.3039 0-4.7626 2.0702-8.9811 5.2528-11.581h-8.6086v20.493l.0009.0817v4.2113h-3.8235v-4.074c.0027-.0718.0036-.1445.0036-.219v-20.493h-3.3711v-2.57924h3.4204c.4417-5.20337 3.6458-8.146204 8.0816-8.146204 2.8764 0 4.4556.301654 5.3677.726284v3.52727c-.0144.26304-.0144.42374-.0144.42374-.0395-.00449-.1337-.00629-.1337-.00629-1.3844-1.28468-2.7499-2.24079-5.9396-2.2372-2.5406 0-4.2212 2.07651-3.6341 5.7124h14.3102c.5916-.09426 1.1949-.14364 1.8089-.14364 5.0966 0 9.4938 3.37018 11.5237 8.23778-.0189-.2702-.0279-.5521-.0279-.8466 0-5.0786 4.8865-7.23856 9.9624-7.22778.1939-.0009.3842-.00001.5709.00448 1.7865-.02873 4.3317.55751 5.8857.96868l1.4127 3.49092-.0015-.0041 1.6016 3.9582 4.3057 10.5648.5054 1.6967.5629-1.6967 5.4449-13.5606c1.0046-3.7337 4.9809-5.34968 9.3729-5.3407 2.183-.00987 3.795.25497 5.729.939v4.101c-2.381-1.7408-4.086-2.7525-6.787-2.7525-2.375 0-5.2285 1.0575-5.2285 4.5731-.0412 2.3807 1.2339 3.0084 4.8685 4.7978l.002.0006c.398.1963.826.4067 1.283.6348 3.8 1.66 7.306 3.4923 7.326 7.736 0 7.0751-6.929 8.3006-10.301 8.3113-3.0115 0-5.7712-.7478-7.3064-2.0325v-4.671l.2469.2056c2.7391 2.573 5.1594 3.9061 8.2875 3.9061 3.083.0234 5.822-1.4938 5.822-4.4124 0-2.4356-2.147-3.8604-5.982-5.4916-3.6656-1.5962-6.0707-2.6537-7.0538-5.2976-1.4947 3.6673-8.4478 20.7022-10.0844 24.3435h-3.749l.8904-1.6726-.0052.009.7855-1.475zm0 0c-.3166.6251-.5833 1.1267-.776 1.4575zm1.069-23.4246-1.4247-3.5093c-.0658-.1556-.1245-.3033-.1754-.4448zm-82.78984-12.16956-.00087-.05297v-4.240074h4.23112v31.099004l.00175.097v4.1961h-4.23287v-4.2401l.00087-.053zm12.17274 7.08956-.0467-3.09545h-3.71756l-.00093 3.56405v23.5409h3.82089v-4.1782l-.0018-.114v-15.5239c.1131-2.432 3.5191-4.8344 6.1729-4.8344 3.1924 0 5.8004 2.1618 5.8004 5.1513l.0009 14.4385v5.0571h3.819v-4.2087-.0844l-.0045-16.9603c-.1158-2.3979-3.0002-6.20706-7.4567-6.20706-4.6557 0-6.6146 1.66536-8.1686 3.34146-.0629.0817-.1293.1912-.1787.3205l-.0413.0009z" fill="#8b949e" fill-rule="evenodd"/></svg>