<svg fill="none" height="77" viewBox="0 0 297 77" width="297" xmlns="http://www.w3.org/2000/svg"><g fill="#8b949e"><path d="m189.02 27.129c-1.689.449-3.211.72-5.102.922v.575c2.128 0 2.399.238 2.399 1.997v5.913c-1.251-2.028-2.232-2.635-4.055-2.635-3.616 0-6.147 3.412-6.147 8.28s2.566 8.283 6.249 8.283c1.926 0 3.243-.877 4.188-2.77.136 1.283.137 1.418.475 2.703 1.385-.44 1.958-.576 3.953-.812l.505-.069v-.574c-2.263-.067-2.465-.237-2.465-2.298zm-91.16.246c-1.0654.1238-2.1375.1809-3.21.171-.947 0-1.453-.033-2.769-.135v.842c2.33.136 2.802.474 2.802 2.03v.204l-.71 16.596c-.067 1.826-.403 2.095-2.768 2.265v.812c1.758-.136 2.43-.169 3.376-.169.947 0 1.621.033 3.346.169v-.812c-2.366-.17-2.805-.474-2.805-1.961v-.304l.676-17.543 5.54 14.975.406 1.182.475 1.317.472 1.32.373 1.083h.508l.369-1.116.439-1.287.472-1.248.406-1.119 5.576-15.074.304 17.51v.169c0 1.589-.506 1.96-2.805 2.096v.812c2.129-.203 2.939-.27 4.224-.27 1.282 0 2.094.067 4.223.27v-.812c-2.433-.17-2.738-.439-2.771-2.265l-.37-16.596v-.237c0-1.522.506-1.86 2.804-1.997v-.842c-1.284.102-1.825.135-2.669.135-1.014 0-1.722-.035-3.243-.171l-6.385 17.106zm131.426.135v.848c2.432.134 2.771.403 2.771 2.229v16.393c0 1.826-.27 2.061-2.771 2.265v.812h8.549c2.499 0 3.851-.304 5.269-1.182 1.691-1.082 2.805-3.146 2.805-5.276 0-1.824-.777-3.479-2.095-4.493-.711-.54-1.454-.846-2.67-1.083 2.433-.912 3.719-2.636 3.719-5.001 0-1.76-.745-3.316-2.029-4.295-1.149-.845-2.467-1.218-4.663-1.218zm5.609 1.05h2.871c2.839 0 4.088 1.384 4.088 4.529 0 1.554-.369 2.67-1.113 3.549-.743.845-1.656 1.116-3.55 1.116h-2.296zm-77.705 4.833-.914 1.723c-1.081-1.048-1.993-1.42-3.445-1.42-3.987 0-6.691 3.45-6.691 8.485 0 4.935 2.67 8.25 6.589 8.25 3.042 0 4.966-1.963 5.405-5.58h-1.386c-.405 2.975-1.656 4.464-3.752 4.464-2.6 0-3.917-2.4-3.917-7.134 0-4.834 1.489-7.57 4.022-7.57 2.062 0 3.31 1.418 3.917 4.358h.746v-5.576zm60.538.102-.574 1.384c-1.149-.776-2.127-1.08-3.445-1.08-2.974 0-5.068 1.825-5.068 4.496 0 1.96.779 2.906 3.243 4.057l1.554.707 1.284.575c1.655.744 2.299 1.521 2.299 2.67 0 1.725-1.488 3.044-3.481 3.044-2.365 0-3.785-1.487-4.394-4.563l-.74.033v5.646h.607l.809-1.522c1.284 1.014 2.5 1.42 4.055 1.42 3.177 0 5.441-2.026 5.441-4.867 0-1.994-.914-3.077-3.481-4.192l-1.419-.608c-3.076-1.352-3.58-1.79-3.58-3.143 0-1.589 1.385-2.806 3.174-2.806 2.129 0 3.244 1.285 3.547 3.988h.779v-5.24zm49.944 0c-1.348.474-2.5.743-4.461 1.014v.574c.17 0 .341.033.442.033 1.69 0 1.89.205 1.924 1.59v10.952c0 1.453-.335 1.724-2.396 1.825v.677c1.757-.17 2.464-.202 3.646-.202 1.217 0 1.894.032 3.652.202v-.677c-1.758-.067-2.197-.406-2.197-1.756v-8.184c0-2.771 1.215-4.222 3.514-4.222 2.16 0 3.039 1.182 3.039 4.123v8.283c0 1.35-.439 1.689-2.264 1.756v.677c1.756-.17 2.432-.202 3.683-.202 1.215 0 1.894.032 3.685.202v-.677c-2.062-.1-2.402-.372-2.402-1.825v-8.115c0-1.283-.168-2.23-.508-3.04-.674-1.657-2.431-2.704-4.458-2.704-1.957 0-3.345.811-4.563 2.637-.068-1.285-.167-2.163-.336-2.941zm-130.029.066c-1.387.405-2.535.61-4.461.779v.608h.439c1.756.033 1.927.204 1.96 1.657v11.053c0 1.453-.37 1.724-2.432 1.825v.677c1.859-.17 2.568-.205 3.785-.205 1.182 0 1.892.035 3.748.205v-.677c-2.06-.1-2.398-.372-2.398-1.825v-7.065c0-3.348 1.114-5.474 2.87-5.474.608 0 1.016.335 1.016.81v.303l-.069.34c-.033.136-.066.27-.066.336 0 .678.608 1.15 1.386 1.15.844 0 1.419-.644 1.419-1.624 0-1.621-1.251-2.737-2.94-2.737-1.756 0-3.211 1.116-3.953 3.043v-.373c-.069-1.014-.136-1.554-.304-2.806zm-12.656.136c-4.055 0-6.587 3.278-6.587 8.484 0 5.205 2.532 8.25 6.89 8.25 3.311 0 5.473-2.064 5.913-5.546h-1.35c-.406 2.874-1.893 4.43-4.292 4.43-3.074 0-4.425-2.365-4.458-7.64h10.067c-.067-5.205-2.196-7.978-6.183-7.978zm42.143 0c-4.055 0-6.589 3.278-6.589 8.484 0 5.205 2.534 8.25 6.892 8.25 3.311 0 5.475-2.064 5.913-5.546h-1.352c-.405 2.874-1.891 4.43-4.29 4.43-3.074 0-4.427-2.365-4.461-7.64h10.07c-.069-5.205-2.196-7.978-6.183-7.978zm32.225 0c-4.055 0-6.589 3.278-6.589 8.484 0 5.205 2.534 8.25 6.892 8.25 3.311 0 5.473-2.064 5.913-5.546h-1.353c-.406 2.874-1.89 4.43-4.289 4.43-3.074 0-4.427-2.365-4.461-7.64h10.07c-.069-5.205-2.198-7.978-6.183-7.978zm55.887 0c-4.055 0-6.589 3.278-6.589 8.484 0 5.205 2.534 8.25 6.892 8.25 3.311 0 5.473-2.064 5.913-5.546h-1.353c-.404 2.874-1.889 4.43-4.286 4.43-3.076 0-4.428-2.365-4.461-7.64h10.067c-.069-5.205-2.196-7.978-6.183-7.978zm27.159.405-.781 4.395h.679c1.216-3.042 1.755-3.516 3.953-3.516h4.152l-9.154 15.077h11.621l.881-4.867h-.709c-1.016 3.076-1.96 3.988-4.26 3.988h-3.95l9.189-15.077zm-157.447.473c2.196 0 3.31 1.893 3.514 5.883h-7.299c.338-3.887 1.622-5.883 3.785-5.883zm42.14 0c2.196 0 3.311 1.893 3.514 5.883h-7.299c.338-3.887 1.622-5.883 3.785-5.883zm32.227 0c2.196 0 3.311 1.893 3.514 5.883h-7.298c.337-3.887 1.622-5.883 3.784-5.883zm55.887 0c2.196 0 3.311 1.893 3.514 5.883h-7.298c.337-3.887 1.622-5.883 3.784-5.883zm-72.642.27c2.5 0 3.784 2.572 3.784 7.54 0 4.699-1.249 7.131-3.682 7.131s-3.715-2.534-3.715-7.368c0-4.902 1.18-7.303 3.613-7.303zm52.329 3.958h3.21c1.791 0 2.803.302 3.58 1.08.778.778 1.215 2.23 1.215 3.853 0 3.38-1.689 5.275-4.696 5.275h-1.214c-1.792 0-2.095-.273-2.095-1.76zm-13.551 1.34v1.748h7.55v-1.748zm-182.442-25.601c0-.485-.147-.501-.186-.018l-1.546 23.056 1.538.9.193-23.937zm-7.216 28.424 6.49-3.597-1.474-.82-5.198 4.256c-.29.249-.16.352.182.161z"/><path d="m39.013 2.19397c-20.58-.01-37.27197 16.52003-37.27197 36.89203s16.67997 36.885 37.27197 36.892c20.592.006 37.287-16.52 37.287-36.892 0-20.373-16.68-36.89203-37.287-36.89203zm0 72.37903c-14.006 0-24.996-7.284-30.22997-17.3l.809-.297c1.35997 2.219 3.13697 4.17 5.52397 6.807 2.942 3.234 12.246 9.48 23.89 9.48 5.8771.0213 11.6621-1.4606 16.805-4.305 5.1441-2.8452 9.4755-6.958 12.583-11.948.47-.132.62-.336.464-.745 2.799-4.933 4.7-11.13 4.7-17.186 0-3.814-.56-6.917-1.447-9.69-.5489-1.7082-1.2172-3.3756-2-4.99-.0885-.1425-.1343-.3073-.132-.475.141.107.255.246.332.405.541.988 1.753 3.408 2.322 4.983.768 2.102 2.136 5.012 2.136 9.767.008 19.41-15.885 35.505-35.756 35.494zm-29.84597-18.158 26.10297-18.771-2.233-1.274-23.25597 19.34c-2.612-4.735-4.426-10.815-4.426-16.597 0-18.31 14.56997-33.13403 33.01797-33.24703l-4.759 29.61303 2.224 1.293 2.99-30.90103c.056-.39.323-.39.323 0l.176 32.58603 5.297-3.111-5.076-29.48703c18.132.485 33.154 15.11603 33.154 33.19603 0 5.83-1.76 11.92-4.427 16.685l-23.232-19.36-2.237 1.278 24.97 18.117c.6.427.416.621-.222.265l-28.04-16.178v6.063l28.104 10.743c-5.89 9.61-16.514 15.758-28.677 15.758-12.19 0-22.643-6.145-28.533-15.77l28.154-10.75v-6.062l-29.15597 16.85c-.692.381-.875.168-.239-.279zm-.718.36c-1.233-2.557-2.532-6.16-3.07-9.01-.026-.15-.02-.304.02-.45.09.134.158.282.205.437.845 2.616 1.583 4.969 3.511 8.503zm66.26697-23.948c-.0888-.1287-.1573-.2704-.203-.42-2.725-8.408-5.046-11.711-9.519-16.623-5.894-6.46803-15.514-11.46903-25.753-11.48003-19.57-.002-35.44597 15.88603-35.44597 35.46403 0 5.82 1.269 10.848 2.289 13.373 1.195 2.928 3.264 6.872 3.367 7.05.073.145.11.306.11.469-.1344-.1076-.24765-.2391-.334-.388-.593-.862-3.024-5.242-3.777-7.157-1.655-4.166-2.87-8.711-2.87-13.481 0-20.178 16.32197-36.54103 36.50397-36.54103 18.029 0 32.563 12.53003 35.632 29.30203.03.143.03.29 0 .432z"/><path d="m60.647 51.363-19.215-12.883-1.58.903 20.703 12.127c.368.212.446.08.092-.147z"/></g></svg>