<svg fill="none" height="25" viewBox="0 0 186 25" width="186" xmlns="http://www.w3.org/2000/svg" xmlns:xlink="http://www.w3.org/1999/xlink"><clipPath id="a"><path d="m.5 0h185v25h-185z"/></clipPath><g clip-path="url(#a)"><path d="m14.3 2.89844c0-2.000002-1.9-2.500002-3.4-2.500002v.299998c.9 0 1.6.300001 1.6 1.000004 0 .4-.3 1-1.2 1-.7 0-2.2-.4-3.3-.8-1.3-.5-2.5-.900002-3.5-.900002-2 0-3.4 1.500002-3.4 3.200002 0 1.5 1.1 2 1.5 2.2l.1-.2c-.2-.2-.5-.4-.5-1 0-.4.4-1.1 1.4-1.1.9 0 2.1.4 3.7.9 1.4.4 2.9.7 3.7.8v3.1l-1.5 1.29996v.1l1.5 1.3v4.3c-.8.5-1.7.6-2.5.6-1.5 0-2.8-.4-3.9-1.6l4.1-2v-6.89996l-5 2.2c.4-1.3 1.5-2.2 2.6-2.8l-.1-.3c-3 .8-5.7 3.6-5.7 6.99996 0 4 3.3 7 7 7 4 0 6.6-3.2 6.6-6.5h-.2c-.6 1.3-1.5 2.5-2.6 3.1v-4.1l1.6-1.3v-.1l-1.6-1.29996v-3.1c1.5 0 3-1 3-2.9zm-8.7 10.99996-1.2.6c-.7-.9-1.1-2.1-1.1-3.8 0-.69996 0-1.49996.2-2.09996l2.1-.9zm10.6 2.3-1.3 1 .2.2.6-.5 2.2 2 3-2-.1-.2-.8.5-1-1v-6.79996l.8-.6 1.7 1.39996v6.1c0 3.8-.8 4.4-2.5 5v.3c2.8.1 5.4-.8 5.4-5.7v-6.59996l.9-.7-.2-.2-.8.6-2.5-2.1-2.8 2.1v-8.200002h-.2l-3.5 2.400002v.2c.4.2 1 .4 1 1.5zm18.3-1.1-2.5 1.9-2.5-2v-1.2l4.7-3.2v-.1l-2.4-3.59996-5.2 2.8v6.59996l-1 .8.2.2.9-.7 3.4 2.5 4.5-3.6zm-5-1.7v-4.89996l.2-.1 2.2 3.49996zm24.1-11.39996c0-.3-.1-.6-.2-.9h-.2c-.3.8-.7 1.2-1.7 1.2-.9 0-1.5-.5-1.9-.9l-2.9 3.3.2.2 1-.9c.6.5 1.1.9 2.5 1v8.29996l-5.9-10.09996c-.5-.8-1.2-1.9-2.6-1.9-1.6 0-3 1.4-2.8 3.6h.3c.1-.6.4-1.3 1.1-1.3.5 0 1 .5 1.3 1v3.3c-1.8 0-3 .8-3 2.29996 0 .8.4 2 1.6 2.3v-.2c-.2-.2-.3-.4-.3-.7 0-.5.4-.9 1.1-.9h.5v4.2c-2.1 0-3.8 1.2-3.8 3.2 0 1.9 1.6 2.8 3.4 2.7v-.2c-1.1-.1-1.6-.6-1.6-1.3 0-.9.6-1.3 1.4-1.3s1.5.5 2 1.1l2.9-3.2-.2-.2-.7.8c-1.1-1-1.7-1.3-3-1.5v-9.99996l8 13.99996h.6v-13.99996c1.5-.1 2.9-1.3 2.9-3zm7.3 13.09996-2.5 1.9-2.5-2v-1.2l4.7-3.2v-.1l-2.4-3.59996-5.2 2.8v6.59996l-1 .8.2.2.9-.7 3.4 2.5 4.5-3.6zm-5-1.7v-4.89996l.2-.1 2.2 3.49996zm21.3-5.39996-.7.5-1.9-1.6-2.2 2 .9.9v7.49996l-2.4-1.5v-6.19996l.8-.5-2.3-2.2-2.2 2 .9.9v7.19996l-.3.2-2.1-1.5v-5.99996c0-1.4-.7-1.8-1.5-2.3-.7-.5-1.1-.8-1.1-1.5 0-.6.6-.9.9-1.1v-.2c-.8 0-2.9.8-2.9 2.7 0 1 .5 1.4 1 1.9s1 .89996 1 1.79996v5.8l-1.1.8.2.2 1-.8 2.3 2 2.5-1.7 2.8 1.7 5.3-3.1v-6.69996l1.3-1zm18.6-5.5-1 .9-2.2-2-3.3 2.4v-2.2h-.3l.1 16.19996c-.3 0-1.2-.2-1.9-.4l-.2-13.49996c0-1-.7-2.4-2.5-2.4s-3 1.4-3 2.8h.3c.1-.6.4-1.1 1-1.1s1.1.4 1.1 1.7v3.9c-1.8.1-2.9 1.1-2.9 2.39996 0 .8.4 2 1.6 2v-.2c-.4-.2-.5-.5-.5-.7 0-.6.5-.8 1.3-.8h.4v6.2c-1.5.5-2.1 1.6-2.1 2.8 0 1.7 1.3 2.9 3.3 2.9 1.4 0 2.6-.2 3.8-.5 1-.2 2.3-.5 2.9-.5.8 0 1.1.4 1.1.9 0 .7-.3 1-.7 1.1v.2c1.6-.3 2.6-1.3 2.6-2.8s-1.5-2.4-3.1-2.4c-.8 0-2.5.3-3.7.5-1.4.3-2.8.5-3.2.5-.7 0-1.5-.3-1.5-1.3 0-.8.7-1.5 2.4-1.5.9 0 2 .1 3.1.4 1.2.3 2.3.6 3.3.6 1.5 0 2.8-.5 2.8-2.6v-12.29996l1.2-1zm-4.1 6.1c-.3.3-.7.6-1.2.6s-1-.3-1.2-.6v-4.4l1-.7 1.4 1.3zm0 2.99996c-.2-.2-.7-.5-1.2-.5s-1 .3-1.2.5v-2.59996c.2.2.7.5 1.2.5s1-.3 1.2-.5zm0 4.7c0 .8-.5 1.6-1.6 1.6h-.8v-5.9c.2-.2.7-.5 1.2-.5s.9.3 1.2.5zm13.7-7.09996-3.2-2.3-4.9 2.8v6.49996l-1 .8.1.2.8-.6 3.2 2.4 5-3zm-5.4 6.29996v-7.19996l2.5 1.79996v7.1zm14.9-8.39996h-.2c-.3.2-.6.4-.9.4-.4 0-.9-.2-1.1-.5h-.2l-1.7 1.9-1.7-1.9-3 2 .1.2.8-.5 1 1.1v6.29996l-1.3 1 .2.2.6-.5 2.4 2 3.1-2.1-.1-.2-.9.5-1.2-1v-6.99996c.5.5 1.1 1 1.8 1 1.4.09996 2.2-1.3 2.3-2.9zm12 9.59996-3.4 2.3-4.6-7 3.3-5.09996h.2c.4.4 1 .8 1.7.8s1.2-.4 1.5-.8h.2c-.1 2-1.5 3.19996-2.5 3.19996s-1.5-.49996-2.1-.79996l-.3.5 5 7.39996 1-.6zm-11-.5-1.3 1 .2.2.6-.5 2.2 2 3-2-.2-.2-.8.5-1-1v-15.399962h-.1l-3.6 2.400002v.2c.4.2 1 .3 1 1.5zm27.6-13.29996c0-2.000002-1.9-2.500002-3.4-2.500002v.299998c.9 0 1.6.300001 1.6 1.000004 0 .4-.3 1-1.2 1-.7 0-2.2-.4-3.3-.8-1.3-.4-2.5-.8-3.5-.8-2 0-3.4 1.5-3.4 3.2 0 1.5 1.1 2 1.5 2.2l.1-.2c-.3-.2-.6-.4-.6-1 0-.4.4-1.1 1.4-1.1.9 0 2.1.4 3.7.9 1.4.4 2.9.7 3.7.8v3.1l-1.5 1.29996v.1l1.5 1.3v4.3c-.8.5-1.7.6-2.5.6-1.5 0-2.8-.4-3.9-1.6l4.1-2v-6.99996l-5 2.2c.5-1.3 1.6-2.2 2.6-2.9l-.1-.2c-3 .8-5.7 3.5-5.7 6.89996 0 4 3.3 7 7 7 4 0 6.6-3.2 6.6-6.5h-.2c-.6 1.3-1.5 2.5-2.6 3.1v-4.1l1.6-1.3v-.1l-1.5-1.29996v-3c1.5 0 3-1 3-2.9zm-8.7 10.99996-1.2.6c-.7-.9-1.1-2.1-1.1-3.8 0-.69996.1-1.49996.3-2.09996l2.1-.9zm12.2-11.99996h-.1l-2 1.7v.1l1.7 1.9h.2l2-1.7v-.1zm3 14.79996-.8.5-1-1v-6.89996l1-.7-.2-.2-.7.6-1.8-2.1-2.9 2 .2.3.7-.5.9 1.1v6.49996l-1.3 1 .1.2.7-.5 2.2 2 3-2zm16.7-.1-.7.5-1.1-1v-6.79996l1-.8-.2-.2-.8.7-2.3-2.1-3 2.1-2.3-2.1-2.8 2.1-1.8-2.1-2.9 2 .1.3.7-.5 1 1.1v6.49996l-.8.8 2.3 1.9 2.2-2-.9-.9v-6.79996l.9-.6 1.5 1.39996v6l-.8.8 2.3 1.9 2.2-2-.9-.9v-6.59996l.8-.5 1.6 1.39996v6l-.7.7 2.3 2.1 3.1-2.1zm8.7-1.5-2.5 1.9-2.5-2v-1.2l4.7-3.2v-.1l-2.4-3.59996-5.2 2.8v6.79996l3.5 2.5 4.5-3.6zm-5-1.7v-4.89996l.2-.1 2.2 3.49996zm14.1-.9-1.9-1.5c1.3-1.09996 1.8-2.59996 1.8-3.59996v-.6h-.2c-.2.5-.6 1-1.4 1s-1.3-.4-1.8-1l-4.5 2.5v3.59996l1.7 1.3c-1.7 1.5-2 2.5-2 3.3 0 1 .5 1.7 1.3 2l.1-.2c-.2-.2-.4-.3-.4-.8 0-.3.4-.8 1.2-.8 1 0 1.6.7 1.9 1l4.3-2.6v-3.6zm-1.1-2.99996c-.7 1.19996-2.2 2.39996-3.1 2.99996l-1.1-.9v-3.49996c.4 1 1.5 1.8 2.6 1.8.7 0 1.1-.1 1.6-.4zm-1.7 7.99996c-.5-1.1-1.7-1.9-2.9-1.9-.3 0-1.1 0-1.9.5.5-.8 1.8-2.2 3.5-3.2l1.2 1z" fill="#8b949e"/></g></svg>