<svg fill="none" height="32" viewBox="0 0 132 32" width="132" xmlns="http://www.w3.org/2000/svg" xmlns:xlink="http://www.w3.org/1999/xlink"><clipPath id="a"><path d="m.5 0h131v32h-131z"/></clipPath><g clip-path="url(#a)"><path d="m44.9016 4.48148h-7.0318v9.15572h-7.3197v-9.15572h-7.0326v23.03702h7.0326v-9.062h7.3197v9.0613h7.0318zm24.4612 18.40742v-18.40742h-7.0317v23.03702h12.7151l1.0574-4.6288zm-12.2298-18.40742h-7.0318v23.03702h7.0318zm28.5073 0h-7.028v23.03702h7.028zm34.6697 5.87982c0-1.25396 1.253-1.83369 3.273-1.83369 2.216 0 4.626.48448 6.262 1.16246l-.576-5.01509c-1.832-.38624-3.47-.67498-6.452-.67498-5.683 0-9.536 2.24243-9.536 6.941 0 8.0953 10.983 6.4588 10.983 10.217 0 1.4437-1.064 2.2124-3.664 2.2124-2.307 0-5.876-.7687-7.994-1.8299l.773 5.3038c2.118.7725 5.005 1.1557 7.32 1.1557 5.873 0 10.688-1.9282 10.688-7.7128 0-7.7067-11.077-6.2623-11.077-9.9259zm-19.836 11.6644c6.544 0 10.689-3.3749 10.689-9.2547 0-6.45582-4.43-8.77025-11.6549-8.77025-2.7921 0-6.164.19274-8.5707.48073v23.03702h7.0318v-5.4928zm3.755-9.1572c0 2.9864-1.444 5.0128-5.1071 5.0128h-1.1527v-9.52094c.4095-.0225.7927-.0225 1.1527-.0225 3.4671 0 5.1071 1.63725 5.1071 4.53064zm-94.1923 9.1572c6.5473 0 10.6887-3.3749 10.6887-9.2547 0-6.45582-4.4294-8.77025-11.65092-8.77025-2.79591 0-6.16481.19274-8.57448.48073v23.03702h7.03253v-5.4928zm3.7581-9.1572c0 2.9864-1.4474 5.0128-5.10731 5.0128h-1.15496v-9.52094c.40874-.0225.79497-.0225 1.15496-.0225 3.46711 0 5.10731 1.63725 5.10731 4.53064z" fill="#8b949e"/></g></svg>