<svg width="992" height="178" viewBox="0 0 992 178" fill="none" xmlns="http://www.w3.org/2000/svg">
<g clip-path="url(#clip0_534_247)">
<g clip-path="url(#clip1_534_247)">
<g opacity="0.36">
<g filter="url(#filter0_f_534_247)">
<ellipse cx="770.441" cy="79.9999" rx="59.4413" ry="77" fill="#FFD3EB"/>
</g>
<g filter="url(#filter1_f_534_247)">
<ellipse cx="906.14" cy="78.4999" rx="84.8603" ry="71.5" fill="#B6E3FF"/>
</g>
<g filter="url(#filter2_f_534_247)">
<ellipse cx="846.698" cy="78.4999" rx="79.3854" ry="78.5" fill="#ECD8FF"/>
</g>
</g>
<path d="M872.723 17.2628L831.057 17.2628L831.057 64.1602L872.723 64.1602L872.723 17.2628Z" stroke="#AFB8C1" stroke-width="0.40723" stroke-dasharray="0.81 2.04"/>
<path d="M997.72 17.2628L956.055 17.2628L956.055 64.1602L997.72 64.1602L997.72 17.2628Z" stroke="#AFB8C1" stroke-width="0.40723" stroke-dasharray="0.81 2.04"/>
<path d="M872.723 157.955L831.057 157.955L831.057 204.853L872.723 204.853L872.723 157.955Z" stroke="#AFB8C1" stroke-width="0.40723" stroke-dasharray="0.81 2.04"/>
<path d="M997.72 -29.6346L956.055 -29.6346L956.055 17.2628L997.72 17.2628L997.72 -29.6346Z" stroke="#AFB8C1" stroke-width="0.40723" stroke-dasharray="0.81 2.04"/>
<path d="M997.72 157.955L956.055 157.955L956.055 204.853L997.72 204.853L997.72 157.955Z" stroke="#AFB8C1" stroke-width="0.40723" stroke-dasharray="0.81 2.04"/>
<path d="M956.054 111.058L914.389 111.058L914.389 157.955L956.054 157.955L956.054 111.058Z" stroke="#AFB8C1" stroke-width="0.40723" stroke-dasharray="0.81 2.04"/>
<path d="M956.054 17.2628L914.389 17.2628L914.389 64.1602L956.054 64.1602L956.054 17.2628Z" stroke="#AFB8C1" stroke-width="0.40723" stroke-dasharray="0.81 2.04"/>
<path d="M831.057 157.955L789.391 157.955L789.391 204.853L831.057 204.853L831.057 157.955Z" stroke="#AFB8C1" stroke-width="0.40723" stroke-dasharray="0.81 2.04"/>
<path d="M956.054 157.955L914.389 157.955L914.389 204.853L956.054 204.853L956.054 157.955Z" stroke="#AFB8C1" stroke-width="0.40723" stroke-dasharray="0.81 2.04"/>
<path d="M831.057 64.1603L789.391 64.1603L789.391 111.058L831.057 111.058L831.057 64.1603Z" stroke="#AFB8C1" stroke-width="0.40723" stroke-dasharray="0.81 2.04"/>
<path d="M956.054 64.1603L914.389 64.1603L914.389 111.058L956.054 111.058L956.054 64.1603Z" stroke="#AFB8C1" stroke-width="0.40723" stroke-dasharray="0.81 2.04"/>
<path d="M789.392 111.058L747.726 111.058L747.726 157.955L789.392 157.955L789.392 111.058Z" stroke="#AFB8C1" stroke-width="0.40723" stroke-dasharray="0.81 2.04"/>
<path d="M914.389 111.058L872.723 111.058L872.723 157.955L914.389 157.955L914.389 111.058Z" stroke="#AFB8C1" stroke-width="0.40723" stroke-dasharray="0.81 2.04"/>
<path d="M914.389 17.2628L872.723 17.2628L872.723 64.1602L914.389 64.1602L914.389 17.2628Z" stroke="#AFB8C1" stroke-width="0.40723" stroke-dasharray="0.81 2.04"/>
<path d="M914.389 -29.6346L872.723 -29.6346L872.723 17.2628L914.389 17.2628L914.389 -29.6346Z" stroke="#AFB8C1" stroke-width="0.40723" stroke-dasharray="0.81 2.04"/>
<path d="M914.389 157.955L872.723 157.955L872.723 204.853L914.389 204.853L914.389 157.955Z" stroke="#AFB8C1" stroke-width="0.40723" stroke-dasharray="0.81 2.04"/>
<path d="M747.74 157.981L706.074 157.981L706.074 204.878L747.74 204.878L747.74 157.981Z" stroke="#AFB8C1" stroke-width="0.40723" stroke-dasharray="0.81 2.04"/>
<path d="M706.053 111.058L664.387 111.058L664.387 157.955L706.053 157.955L706.053 111.058Z" stroke="#AFB8C1" stroke-width="0.40723" stroke-dasharray="0.81 2.04"/>
<path d="M789.233 64.2113L747.567 64.2113L747.567 111.109L789.233 111.109L789.233 64.2113Z" stroke="#AFB8C1" stroke-width="0.40723" stroke-dasharray="0.81 2.04"/>
<path d="M789.233 17.2883L747.567 17.2883L747.567 64.1858L789.233 64.1858L789.233 17.2883Z" stroke="#AFB8C1" stroke-width="0.40723" stroke-dasharray="0.81 2.04"/>
<path d="M789.233 -29.6346L747.567 -29.6346L747.567 17.2628L789.233 17.2628L789.233 -29.6346Z" stroke="#AFB8C1" stroke-width="0.40723" stroke-dasharray="0.81 2.04"/>
<path d="M747.545 17.2883L705.879 17.2883L705.879 64.1858L747.545 64.1858L747.545 17.2883Z" stroke="#AFB8C1" stroke-width="0.40723" stroke-dasharray="0.81 2.04"/>
<g filter="url(#filter3_d_534_247)">
<rect x="783.971" y="89.4771" width="123.859" height="47.012" rx="3.09364" fill="white"/>
<rect x="783.713" y="89.2192" width="124.374" height="47.5276" rx="3.35144" stroke="#6A737D" stroke-opacity="0.05" stroke-width="0.515606"/>
</g>
<circle cx="810.5" cy="112.5" r="15.5" fill="#CF222E"/>
<path fill-rule="evenodd" clip-rule="evenodd" d="M811.533 105.133C811.186 105.022 810.814 105.022 810.467 105.133L805.217 106.813C804.492 107.045 804 107.719 804 108.48V112C804 113.566 804.319 115.182 805.303 116.682C806.286 118.181 807.888 119.495 810.335 120.537C810.759 120.717 811.241 120.717 811.665 120.537C814.112 119.495 815.714 118.181 816.697 116.682C817.681 115.182 818 113.566 818 112V108.48C818 107.719 817.508 107.045 816.783 106.813L811.533 105.133ZM810.924 106.562C810.973 106.546 811.027 106.546 811.076 106.562L816.326 108.242C816.43 108.275 816.5 108.371 816.5 108.48V112C816.5 113.358 816.225 114.666 815.443 115.859C814.659 117.053 813.322 118.201 811.077 119.157C811.029 119.177 810.971 119.177 810.923 119.157C808.678 118.201 807.341 117.053 806.557 115.859C805.775 114.666 805.5 113.358 805.5 112V108.48C805.5 108.371 805.57 108.275 805.674 108.242L810.924 106.562ZM809.78 110.22C809.487 109.927 809.013 109.927 808.72 110.22C808.427 110.512 808.427 110.987 808.72 111.28L809.939 112.5L808.72 113.72C808.427 114.012 808.427 114.487 808.72 114.78C809.013 115.073 809.487 115.073 809.78 114.78L811 113.561L812.22 114.78C812.513 115.073 812.987 115.073 813.28 114.78C813.573 114.487 813.573 114.012 813.28 113.72L812.061 112.5L813.28 111.28C813.573 110.987 813.573 110.512 813.28 110.22C812.987 109.927 812.513 109.927 812.22 110.22L811 111.439L809.78 110.22Z" fill="white"/>
<path d="M839.957 109.5H836.988V108.887H838.129V104.477H836.988V103.863H839.957V104.477H838.816V108.887H839.957V109.5ZM843.293 111.09C842.312 111.09 841.656 110.66 841.57 109.957H842.227C842.312 110.309 842.738 110.539 843.305 110.539C844.047 110.539 844.457 110.164 844.457 109.484V108.824H844.387C844.199 109.27 843.73 109.539 843.113 109.539C842.133 109.539 841.488 108.832 841.488 107.746V106.984C841.488 105.895 842.137 105.191 843.129 105.191C843.742 105.191 844.207 105.461 844.391 105.918H844.465V105.262H845.121V109.5C845.121 110.496 844.441 111.09 843.293 111.09ZM842.156 107.652C842.156 108.43 842.609 108.938 843.312 108.938C844.012 108.938 844.461 108.434 844.461 107.652V107.07C844.461 106.289 844.012 105.789 843.312 105.789C842.609 105.789 842.156 106.293 842.156 107.07V107.652ZM846.629 109.5V105.262H847.266V106.008H847.32C847.547 105.48 848.031 105.184 848.676 105.184C849.598 105.184 850.098 105.734 850.098 106.75V109.5H849.434V106.918C849.434 106.152 849.121 105.793 848.461 105.793C847.762 105.793 847.293 106.281 847.293 107.004V109.5H846.629ZM853.309 109.578C852.188 109.578 851.473 108.848 851.473 107.703V107.062C851.473 105.918 852.188 105.188 853.309 105.188C854.43 105.188 855.145 105.918 855.145 107.062V107.703C855.145 108.848 854.43 109.578 853.309 109.578ZM853.309 105.773C852.582 105.773 852.129 106.289 852.129 107.121V107.641C852.129 108.477 852.582 108.988 853.309 108.988C854.035 108.988 854.488 108.477 854.488 107.641V107.121C854.488 106.289 854.035 105.773 853.309 105.773ZM858.086 107.602V108.969H859.398V109.5H856.582V108.969H857.438V105.793H856.496V105.262H858.078V106.344H858.164C858.32 105.559 858.848 105.152 859.664 105.152C859.906 105.152 860.137 105.188 860.277 105.246V105.992C860.082 105.922 859.809 105.875 859.578 105.875C858.641 105.875 858.086 106.523 858.086 107.602ZM864.344 108.406H864.988C864.859 109.105 864.188 109.578 863.297 109.578C862.133 109.578 861.457 108.879 861.457 107.672V107.035C861.457 105.918 862.172 105.184 863.25 105.184C864.352 105.184 865 105.914 865 107.141V107.555H862.113V107.727C862.113 108.504 862.574 109.004 863.297 109.004C863.832 109.004 864.227 108.777 864.344 108.406ZM863.246 105.754C862.539 105.754 862.113 106.238 862.113 107.051H864.344C864.344 106.242 863.93 105.754 863.246 105.754ZM872.465 109.5V105.84H871.328V105.273H872.465V104.848C872.465 104.027 872.973 103.645 874.016 103.645C874.262 103.645 874.852 103.664 874.992 103.684V104.227C874.809 104.207 874.262 104.191 874.023 104.191C873.434 104.191 873.121 104.41 873.121 104.836V105.273H874.992V105.84H873.129V109.5H872.465ZM878.035 109.578C876.914 109.578 876.199 108.848 876.199 107.703V107.062C876.199 105.918 876.914 105.188 878.035 105.188C879.156 105.188 879.871 105.918 879.871 107.062V107.703C879.871 108.848 879.156 109.578 878.035 109.578ZM878.035 105.773C877.309 105.773 876.855 106.289 876.855 107.121V107.641C876.855 108.477 877.309 108.988 878.035 108.988C878.762 108.988 879.215 108.477 879.215 107.641V107.121C879.215 106.289 878.762 105.773 878.035 105.773ZM882.812 107.602V108.969H884.125V109.5H881.309V108.969H882.164V105.793H881.223V105.262H882.805V106.344H882.891C883.047 105.559 883.574 105.152 884.391 105.152C884.633 105.152 884.863 105.188 885.004 105.246V105.992C884.809 105.922 884.535 105.875 884.305 105.875C883.367 105.875 882.812 106.523 882.812 107.602ZM840.516 117.379V120.5H839.918V117.574C839.918 117.059 839.73 116.789 839.375 116.789C839.004 116.789 838.777 117.113 838.777 117.641V120.5H838.184V117.57C838.184 117.059 837.996 116.789 837.637 116.789C837.262 116.789 837.027 117.113 837.027 117.641V120.5H836.43V116.262H837.023V116.859H837.094C837.199 116.434 837.504 116.184 837.902 116.184C838.301 116.184 838.582 116.43 838.672 116.848H838.742C838.852 116.441 839.191 116.184 839.617 116.184C840.207 116.184 840.516 116.594 840.516 117.379ZM842.988 120.574C842.18 120.574 841.641 120.066 841.641 119.297C841.641 118.547 842.18 118.102 843.145 118.051L844.309 117.992V117.609C844.309 117.078 843.984 116.785 843.395 116.785C842.906 116.785 842.562 116.992 842.453 117.355H841.801C841.879 116.676 842.535 116.211 843.402 116.211C844.398 116.211 844.969 116.719 844.969 117.602V120.504H844.336V119.867H844.27C844.066 120.32 843.605 120.574 842.988 120.574ZM843.18 119.992C843.82 119.992 844.309 119.566 844.309 119V118.5L843.219 118.551C842.625 118.578 842.312 118.832 842.312 119.273C842.312 119.719 842.645 119.992 843.18 119.992ZM846.629 120.5V116.262H847.266V117.008H847.32C847.547 116.48 848.031 116.184 848.676 116.184C849.598 116.184 850.098 116.734 850.098 117.75V120.5H849.434V117.918C849.434 117.152 849.121 116.793 848.461 116.793C847.762 116.793 847.293 117.281 847.293 118.004V120.5H846.629ZM853.383 115.223C853.07 115.223 852.832 114.988 852.832 114.676C852.832 114.367 853.07 114.133 853.383 114.133C853.695 114.133 853.934 114.367 853.934 114.676C853.934 114.988 853.695 115.223 853.383 115.223ZM855.16 120.5H851.648V119.949H853.102V116.812H851.66V116.262H853.758V119.949H855.16V120.5ZM857.629 120.5V116.84H856.492V116.273H857.629V115.848C857.629 115.027 858.137 114.645 859.18 114.645C859.426 114.645 860.016 114.664 860.156 114.684V115.227C859.973 115.207 859.426 115.191 859.188 115.191C858.598 115.191 858.285 115.41 858.285 115.836V116.273H860.156V116.84H858.293V120.5H857.629ZM864.344 119.406H864.988C864.859 120.105 864.188 120.578 863.297 120.578C862.133 120.578 861.457 119.879 861.457 118.672V118.035C861.457 116.918 862.172 116.184 863.25 116.184C864.352 116.184 865 116.914 865 118.141V118.555H862.113V118.727C862.113 119.504 862.574 120.004 863.297 120.004C863.832 120.004 864.227 119.777 864.344 119.406ZM863.246 116.754C862.539 116.754 862.113 117.238 862.113 118.051H864.344C864.344 117.242 863.93 116.754 863.246 116.754ZM866.602 117.406C866.602 116.672 867.227 116.18 868.16 116.18C869.043 116.18 869.641 116.621 869.719 117.328H869.078C869 116.957 868.645 116.73 868.148 116.73C867.609 116.73 867.262 116.98 867.262 117.367C867.262 117.691 867.48 117.875 868.012 117.992L868.609 118.129C869.434 118.316 869.809 118.676 869.809 119.289C869.809 120.07 869.156 120.578 868.152 120.578C867.191 120.578 866.555 120.129 866.48 119.402H867.156C867.254 119.793 867.629 120.02 868.176 120.02C868.754 120.02 869.121 119.758 869.121 119.352C869.121 119.016 868.914 118.836 868.375 118.715L867.746 118.57C866.98 118.395 866.602 118.008 866.602 117.406ZM872.367 115.125H873.023V116.273H874.742V116.84H873.031V119.23C873.031 119.691 873.355 119.941 873.953 119.941C874.191 119.941 874.617 119.93 874.73 119.918V120.48C874.625 120.5 874.109 120.52 873.906 120.52C872.855 120.52 872.367 120.121 872.367 119.238V116.84H871.238V116.273H872.367V115.125Z" fill="#6E7781"/>
<g filter="url(#filter4_d_534_247)">
<rect x="924.83" y="89.4771" width="123.859" height="47.012" rx="3.09364" fill="white"/>
<rect x="924.572" y="89.2192" width="124.374" height="47.5276" rx="3.35144" stroke="#6A737D" stroke-opacity="0.05" stroke-width="0.515606"/>
</g>
<circle cx="951.5" cy="112.5" r="15.5" fill="#1A7F37"/>
<path fill-rule="evenodd" clip-rule="evenodd" d="M950.467 105.133C950.814 105.022 951.186 105.022 951.533 105.133L956.783 106.813C957.508 107.045 958 107.719 958 108.48V112C958 113.566 957.681 115.182 956.697 116.682C955.714 118.181 954.112 119.495 951.665 120.537C951.241 120.717 950.759 120.717 950.335 120.537C947.888 119.495 946.286 118.181 945.303 116.682C944.319 115.182 944 113.566 944 112V108.48C944 107.719 944.492 107.045 945.217 106.813L950.467 105.133ZM951.076 106.562C951.027 106.546 950.973 106.546 950.924 106.562L945.674 108.242C945.57 108.275 945.5 108.371 945.5 108.48V112C945.5 113.358 945.775 114.666 946.557 115.859C947.341 117.053 948.678 118.201 950.923 119.157C950.971 119.177 951.029 119.177 951.077 119.157C953.322 118.201 954.659 117.053 955.443 115.859C956.225 114.666 956.5 113.358 956.5 112V108.48C956.5 108.371 956.43 108.275 956.326 108.242L951.076 106.562ZM952 115.5C952 116.052 951.552 116.5 951 116.5C950.448 116.5 950 116.052 950 115.5C950 114.948 950.448 114.5 951 114.5C951.552 114.5 952 114.948 952 115.5ZM951.75 109.75C951.75 109.336 951.414 109 951 109C950.586 109 950.25 109.336 950.25 109.75V112.75C950.25 113.164 950.586 113.5 951 113.5C951.414 113.5 951.75 113.164 951.75 112.75V109.75Z" fill="white"/>
<path d="M981.539 101.637C981.539 103.195 980.754 104.117 979.473 104.117C978.191 104.117 977.406 103.195 977.406 101.637V100.727C977.406 99.168 978.191 98.2461 979.473 98.2461C980.754 98.2461 981.539 99.168 981.539 100.727V101.637ZM979.473 103.465C980.328 103.465 980.844 102.809 980.844 101.633V100.73C980.844 99.5547 980.328 98.8984 979.473 98.8984C978.617 98.8984 978.102 99.5547 978.102 100.73V101.633C978.102 102.809 978.617 103.465 979.473 103.465ZM984.684 99.6914C985.664 99.6914 986.305 100.398 986.305 101.488V102.277C986.305 103.363 985.664 104.07 984.684 104.07C984.07 104.07 983.621 103.809 983.438 103.344H983.363V105.43H982.688V99.7617H983.344V100.41H983.414C983.637 99.9414 984.078 99.6914 984.684 99.6914ZM984.492 100.301C983.793 100.301 983.348 100.801 983.348 101.582V102.191C983.348 102.977 983.793 103.477 984.492 103.477C985.191 103.477 985.637 102.973 985.637 102.191V101.582C985.637 100.801 985.191 100.301 984.492 100.301ZM990.508 102.906H991.152C991.023 103.605 990.352 104.078 989.461 104.078C988.297 104.078 987.621 103.379 987.621 102.172V101.535C987.621 100.418 988.336 99.6836 989.414 99.6836C990.516 99.6836 991.164 100.414 991.164 101.641V102.055H988.277V102.227C988.277 103.004 988.738 103.504 989.461 103.504C989.996 103.504 990.391 103.277 990.508 102.906ZM989.41 100.254C988.703 100.254 988.277 100.738 988.277 101.551H990.508C990.508 100.742 990.094 100.254 989.41 100.254ZM992.574 104V99.7617H993.211V100.508H993.266C993.492 99.9805 993.977 99.6836 994.621 99.6836C995.543 99.6836 996.043 100.234 996.043 101.25V104H995.379V101.418C995.379 100.652 995.066 100.293 994.406 100.293C993.707 100.293 993.238 100.781 993.238 101.504V104H992.574ZM1003.77 104.074C1002.96 104.074 1002.42 103.566 1002.42 102.797C1002.42 102.047 1002.96 101.602 1003.93 101.551L1005.09 101.492V101.109C1005.09 100.578 1004.77 100.285 1004.18 100.285C1003.69 100.285 1003.34 100.492 1003.23 100.855H1002.58C1002.66 100.176 1003.32 99.7109 1004.18 99.7109C1005.18 99.7109 1005.75 100.219 1005.75 101.102V104.004H1005.12V103.367H1005.05C1004.85 103.82 1004.39 104.074 1003.77 104.074ZM1003.96 103.492C1004.6 103.492 1005.09 103.066 1005.09 102.5V102L1004 102.051C1003.41 102.078 1003.09 102.332 1003.09 102.773C1003.09 103.219 1003.43 103.492 1003.96 103.492ZM1011 104H1007.48V103.449H1008.93V98.6484H1007.5V98.0977H1009.6V103.449H1011V104ZM1015.23 102.906H1015.88C1015.75 103.605 1015.08 104.078 1014.19 104.078C1013.02 104.078 1012.35 103.379 1012.35 102.172V101.535C1012.35 100.418 1013.06 99.6836 1014.14 99.6836C1015.24 99.6836 1015.89 100.414 1015.89 101.641V102.055H1013V102.227C1013 103.004 1013.46 103.504 1014.19 103.504C1014.72 103.504 1015.12 103.277 1015.23 102.906ZM1014.14 100.254C1013.43 100.254 1013 100.738 1013 101.551H1015.23C1015.23 100.742 1014.82 100.254 1014.14 100.254ZM1018.87 102.102V103.469H1020.18V104H1017.36V103.469H1018.22V100.293H1017.28V99.7617H1018.86V100.844H1018.95C1019.1 100.059 1019.63 99.6523 1020.45 99.6523C1020.69 99.6523 1020.92 99.6875 1021.06 99.7461V100.492C1020.86 100.422 1020.59 100.375 1020.36 100.375C1019.42 100.375 1018.87 101.023 1018.87 102.102ZM1023.26 98.625H1023.91V99.7734H1025.63V100.34H1023.92V102.73C1023.92 103.191 1024.25 103.441 1024.84 103.441C1025.08 103.441 1025.51 103.43 1025.62 103.418V103.98C1025.52 104 1025 104.02 1024.8 104.02C1023.75 104.02 1023.26 103.621 1023.26 102.738V100.34H1022.13V99.7734H1023.26V98.625ZM978.848 115V111.34H977.711V110.773H978.848V110.348C978.848 109.527 979.355 109.145 980.398 109.145C980.645 109.145 981.234 109.164 981.375 109.184V109.727C981.191 109.707 980.645 109.691 980.406 109.691C979.816 109.691 979.504 109.91 979.504 110.336V110.773H981.375V111.34H979.512V115H978.848ZM984.418 115.078C983.297 115.078 982.582 114.348 982.582 113.203V112.562C982.582 111.418 983.297 110.688 984.418 110.688C985.539 110.688 986.254 111.418 986.254 112.562V113.203C986.254 114.348 985.539 115.078 984.418 115.078ZM984.418 111.273C983.691 111.273 983.238 111.789 983.238 112.621V113.141C983.238 113.977 983.691 114.488 984.418 114.488C985.145 114.488 985.598 113.977 985.598 113.141V112.621C985.598 111.789 985.145 111.273 984.418 111.273ZM989.195 113.102V114.469H990.508V115H987.691V114.469H988.547V111.293H987.605V110.762H989.188V111.844H989.273C989.43 111.059 989.957 110.652 990.773 110.652C991.016 110.652 991.246 110.688 991.387 110.746V111.492C991.191 111.422 990.918 111.375 990.688 111.375C989.75 111.375 989.195 112.023 989.195 113.102ZM1001.11 115H997.594V114.449H999.043V109.648H997.605V109.098H999.707V114.449H1001.11V115ZM1004.2 115.078C1003.08 115.078 1002.36 114.348 1002.36 113.203V112.562C1002.36 111.418 1003.08 110.688 1004.2 110.688C1005.32 110.688 1006.04 111.418 1006.04 112.562V113.203C1006.04 114.348 1005.32 115.078 1004.2 115.078ZM1004.2 111.273C1003.47 111.273 1003.02 111.789 1003.02 112.621V113.141C1003.02 113.977 1003.47 114.488 1004.2 114.488C1004.93 114.488 1005.38 113.977 1005.38 113.141V112.621C1005.38 111.789 1004.93 111.273 1004.2 111.273ZM1011.43 110.762L1010.52 115H1009.89L1009.17 111.695H1009.12L1008.4 115H1007.77L1006.86 110.762H1007.5L1008.08 114.16H1008.15L1008.83 110.766H1009.46L1010.14 114.16H1010.21L1010.79 110.762H1011.43ZM1018.87 113.102V114.469H1020.18V115H1017.36V114.469H1018.22V111.293H1017.28V110.762H1018.86V111.844H1018.95C1019.1 111.059 1019.63 110.652 1020.45 110.652C1020.69 110.652 1020.92 110.688 1021.06 110.746V111.492C1020.86 111.422 1020.59 111.375 1020.36 111.375C1019.42 111.375 1018.87 112.023 1018.87 113.102ZM1024.05 109.723C1023.74 109.723 1023.5 109.488 1023.5 109.176C1023.5 108.867 1023.74 108.633 1024.05 108.633C1024.37 108.633 1024.61 108.867 1024.61 109.176C1024.61 109.488 1024.37 109.723 1024.05 109.723ZM1025.83 115H1022.32V114.449H1023.77V111.312H1022.33V110.762H1024.43V114.449H1025.83V115ZM1027.38 111.906C1027.38 111.172 1028.01 110.68 1028.94 110.68C1029.82 110.68 1030.42 111.121 1030.5 111.828H1029.86C1029.78 111.457 1029.43 111.23 1028.93 111.23C1028.39 111.23 1028.04 111.48 1028.04 111.867C1028.04 112.191 1028.26 112.375 1028.79 112.492L1029.39 112.629C1030.21 112.816 1030.59 113.176 1030.59 113.789C1030.59 114.57 1029.94 115.078 1028.93 115.078C1027.97 115.078 1027.34 114.629 1027.26 113.902H1027.94C1028.04 114.293 1028.41 114.52 1028.96 114.52C1029.54 114.52 1029.9 114.258 1029.9 113.852C1029.9 113.516 1029.7 113.336 1029.16 113.215L1028.53 113.07C1027.76 112.895 1027.38 112.508 1027.38 111.906ZM1033.16 112.664L1035.01 110.762H1035.82L1034.17 112.441L1035.93 115H1035.14L1033.7 112.895L1033.11 113.457V115H1032.45V109.098H1033.11V112.664H1033.16ZM979.738 121.691C980.719 121.691 981.359 122.398 981.359 123.488V124.277C981.359 125.363 980.719 126.07 979.738 126.07C979.125 126.07 978.676 125.809 978.492 125.344H978.418V127.43H977.742V121.762H978.398V122.41H978.469C978.691 121.941 979.133 121.691 979.738 121.691ZM979.547 122.301C978.848 122.301 978.402 122.801 978.402 123.582V124.191C978.402 124.977 978.848 125.477 979.547 125.477C980.246 125.477 980.691 124.973 980.691 124.191V123.582C980.691 122.801 980.246 122.301 979.547 122.301ZM983.988 126.074C983.18 126.074 982.641 125.566 982.641 124.797C982.641 124.047 983.18 123.602 984.145 123.551L985.309 123.492V123.109C985.309 122.578 984.984 122.285 984.395 122.285C983.906 122.285 983.562 122.492 983.453 122.855H982.801C982.879 122.176 983.535 121.711 984.402 121.711C985.398 121.711 985.969 122.219 985.969 123.102V126.004H985.336V125.367H985.27C985.066 125.82 984.605 126.074 983.988 126.074ZM984.18 125.492C984.82 125.492 985.309 125.066 985.309 124.5V124L984.219 124.051C983.625 124.078 983.312 124.332 983.312 124.773C983.312 125.219 983.645 125.492 984.18 125.492ZM988.641 120.625H989.297V121.773H991.016V122.34H989.305V124.73C989.305 125.191 989.629 125.441 990.227 125.441C990.465 125.441 990.891 125.43 991.004 125.418V125.98C990.898 126 990.383 126.02 990.18 126.02C989.129 126.02 988.641 125.621 988.641 124.738V122.34H987.512V121.773H988.641V120.625ZM993.586 120.625H994.242V121.773H995.961V122.34H994.25V124.73C994.25 125.191 994.574 125.441 995.172 125.441C995.41 125.441 995.836 125.43 995.949 125.418V125.98C995.844 126 995.328 126.02 995.125 126.02C994.074 126.02 993.586 125.621 993.586 124.738V122.34H992.457V121.773H993.586V120.625ZM1000.4 124.906H1001.04C1000.91 125.605 1000.24 126.078 999.352 126.078C998.188 126.078 997.512 125.379 997.512 124.172V123.535C997.512 122.418 998.227 121.684 999.305 121.684C1000.41 121.684 1001.05 122.414 1001.05 123.641V124.055H998.168V124.227C998.168 125.004 998.629 125.504 999.352 125.504C999.887 125.504 1000.28 125.277 1000.4 124.906ZM999.301 122.254C998.594 122.254 998.168 122.738 998.168 123.551H1000.4C1000.4 122.742 999.984 122.254 999.301 122.254ZM1004.03 124.102V125.469H1005.34V126H1002.53V125.469H1003.38V122.293H1002.44V121.762H1004.02V122.844H1004.11C1004.27 122.059 1004.79 121.652 1005.61 121.652C1005.85 121.652 1006.08 121.688 1006.22 121.746V122.492C1006.03 122.422 1005.75 122.375 1005.52 122.375C1004.59 122.375 1004.03 123.023 1004.03 124.102ZM1007.41 126V121.762H1008.05V122.508H1008.1C1008.33 121.98 1008.81 121.684 1009.46 121.684C1010.38 121.684 1010.88 122.234 1010.88 123.25V126H1010.21V123.418C1010.21 122.652 1009.9 122.293 1009.24 122.293C1008.54 122.293 1008.07 122.781 1008.07 123.504V126H1007.41Z" fill="#6E7781"/>
<g filter="url(#filter5_d_534_247)">
<rect x="746" y="28" width="123.859" height="47.012" rx="3.09364" fill="white"/>
<rect x="745.742" y="27.7422" width="124.374" height="47.5276" rx="3.35144" stroke="#6A737D" stroke-opacity="0.05" stroke-width="0.515606"/>
</g>
<circle cx="772.5" cy="50.5" r="15.5" fill="#1A7F37"/>
<path fill-rule="evenodd" clip-rule="evenodd" d="M766 46.1667C766 44.97 766.97 44 768.167 44C769.363 44 770.333 44.97 770.333 46.1667C770.333 47.1924 769.621 48.0516 768.663 48.2761C768.666 48.2949 768.667 48.314 768.667 48.3333L768.667 53.6667C768.667 53.686 768.666 53.7051 768.663 53.7239C769.621 53.9484 770.333 54.8076 770.333 55.8333C770.333 57.03 769.363 58 768.167 58C766.97 58 766 57.03 766 55.8333C766 54.8076 766.713 53.9484 767.67 53.7239C767.668 53.7051 767.667 53.686 767.667 53.6667L767.667 48.3333C767.667 48.314 767.668 48.2949 767.67 48.2761C766.713 48.0516 766 47.1924 766 46.1667ZM768.167 45C767.522 45 767 45.5223 767 46.1667C767 46.811 767.522 47.3333 768.167 47.3333C768.811 47.3333 769.333 46.811 769.333 46.1667C769.333 45.5223 768.811 45 768.167 45ZM768.167 54.6667C767.522 54.6667 767 55.189 767 55.8333C767 56.4777 767.522 57 768.167 57C768.811 57 769.333 56.4777 769.333 55.8333C769.333 55.189 768.811 54.6667 768.167 54.6667Z" fill="white"/>
<path fill-rule="evenodd" clip-rule="evenodd" d="M777.333 53.7246C776.378 53.9504 775.667 54.8088 775.667 55.8333C775.667 57.03 776.637 58 777.833 58C779.03 58 780 57.03 780 55.8333C780 54.8088 779.289 53.9504 778.333 53.7246V48.1667C778.333 46.786 777.214 45.6667 775.833 45.6667H773.124L773.937 44.8536C774.132 44.6583 774.132 44.3417 773.937 44.1464C773.742 43.9512 773.425 43.9512 773.23 44.1464L771.563 45.8131C771.368 46.0084 771.368 46.325 771.563 46.5202L773.23 48.1869C773.425 48.3821 773.742 48.3821 773.937 48.1869C774.132 47.9916 774.132 47.675 773.937 47.4798L773.124 46.6667H775.833C776.662 46.6667 777.333 47.3382 777.333 48.1667V53.7246ZM776.667 55.8333C776.667 55.189 777.189 54.6667 777.833 54.6667C778.478 54.6667 779 55.189 779 55.8333C779 56.4777 778.478 57 777.833 57C777.189 57 776.667 56.4777 776.667 55.8333Z" fill="white"/>
<path d="M801.812 41.2734V40.7227H800.512V40.1328H802.508V41.332C802.508 42.3906 801.711 43.1172 800.574 43.1172C799.25 43.1172 798.484 42.2266 798.484 40.6836V39.6797C798.484 38.1367 799.25 37.2461 800.574 37.2461C801.746 37.2461 802.48 37.9609 802.508 39.1289H801.812C801.781 38.3945 801.281 37.8984 800.562 37.8984C799.652 37.8984 799.18 38.5117 799.18 39.6797V40.6836C799.18 41.8516 799.656 42.4648 800.566 42.4648C801.336 42.4648 801.812 42.0117 801.812 41.2734ZM806.562 41.9062H807.207C807.078 42.6055 806.406 43.0781 805.516 43.0781C804.352 43.0781 803.676 42.3789 803.676 41.1719V40.5352C803.676 39.418 804.391 38.6836 805.469 38.6836C806.57 38.6836 807.219 39.4141 807.219 40.6406V41.0547H804.332V41.2266C804.332 42.0039 804.793 42.5039 805.516 42.5039C806.051 42.5039 806.445 42.2773 806.562 41.9062ZM805.465 39.2539C804.758 39.2539 804.332 39.7383 804.332 40.5508H806.562C806.562 39.7422 806.148 39.2539 805.465 39.2539ZM808.629 43V38.7617H809.266V39.5078H809.32C809.547 38.9805 810.031 38.6836 810.676 38.6836C811.598 38.6836 812.098 39.2344 812.098 40.25V43H811.434V40.418C811.434 39.6523 811.121 39.293 810.461 39.293C809.762 39.293 809.293 39.7812 809.293 40.5039V43H808.629ZM816.453 41.9062H817.098C816.969 42.6055 816.297 43.0781 815.406 43.0781C814.242 43.0781 813.566 42.3789 813.566 41.1719V40.5352C813.566 39.418 814.281 38.6836 815.359 38.6836C816.461 38.6836 817.109 39.4141 817.109 40.6406V41.0547H814.223V41.2266C814.223 42.0039 814.684 42.5039 815.406 42.5039C815.941 42.5039 816.336 42.2773 816.453 41.9062ZM815.355 39.2539C814.648 39.2539 814.223 39.7383 814.223 40.5508H816.453C816.453 39.7422 816.039 39.2539 815.355 39.2539ZM820.086 41.1016V42.4688H821.398V43H818.582V42.4688H819.438V39.293H818.496V38.7617H820.078V39.8438H820.164C820.32 39.0586 820.848 38.6523 821.664 38.6523C821.906 38.6523 822.137 38.6875 822.277 38.7461V39.4922C822.082 39.4219 821.809 39.375 821.578 39.375C820.641 39.375 820.086 40.0234 820.086 41.1016ZM824.77 43.0742C823.961 43.0742 823.422 42.5664 823.422 41.7969C823.422 41.0469 823.961 40.6016 824.926 40.5508L826.09 40.4922V40.1094C826.09 39.5781 825.766 39.2852 825.176 39.2852C824.688 39.2852 824.344 39.4922 824.234 39.8555H823.582C823.66 39.1758 824.316 38.7109 825.184 38.7109C826.18 38.7109 826.75 39.2188 826.75 40.1016V43.0039H826.117V42.3672H826.051C825.848 42.8203 825.387 43.0742 824.77 43.0742ZM824.961 42.4922C825.602 42.4922 826.09 42.0664 826.09 41.5V41L825 41.0508C824.406 41.0781 824.094 41.332 824.094 41.7734C824.094 42.2188 824.426 42.4922 824.961 42.4922ZM829.422 37.625H830.078V38.7734H831.797V39.3398H830.086V41.7305C830.086 42.1914 830.41 42.4414 831.008 42.4414C831.246 42.4414 831.672 42.4297 831.785 42.418V42.9805C831.68 43 831.164 43.0195 830.961 43.0195C829.91 43.0195 829.422 42.6211 829.422 41.7383V39.3398H828.293V38.7734H829.422V37.625ZM836.234 41.9062H836.879C836.75 42.6055 836.078 43.0781 835.188 43.0781C834.023 43.0781 833.348 42.3789 833.348 41.1719V40.5352C833.348 39.418 834.062 38.6836 835.141 38.6836C836.242 38.6836 836.891 39.4141 836.891 40.6406V41.0547H834.004V41.2266C834.004 42.0039 834.465 42.5039 835.188 42.5039C835.723 42.5039 836.117 42.2773 836.234 41.9062ZM835.137 39.2539C834.43 39.2539 834.004 39.7383 834.004 40.5508H836.234C836.234 39.7422 835.82 39.2539 835.137 39.2539ZM844.355 43V39.3398H843.219V38.7734H844.355V38.3477C844.355 37.5273 844.863 37.1445 845.906 37.1445C846.152 37.1445 846.742 37.1641 846.883 37.1836V37.7266C846.699 37.707 846.152 37.6914 845.914 37.6914C845.324 37.6914 845.012 37.9102 845.012 38.3359V38.7734H846.883V39.3398H845.02V43H844.355ZM850 37.7227C849.688 37.7227 849.449 37.4883 849.449 37.1758C849.449 36.8672 849.688 36.6328 850 36.6328C850.312 36.6328 850.551 36.8672 850.551 37.1758C850.551 37.4883 850.312 37.7227 850 37.7227ZM851.777 43H848.266V42.4492H849.719V39.3125H848.277V38.7617H850.375V42.4492H851.777V43ZM854.887 41.3672H854.836L853.766 43H853.031L854.484 40.8789L853.02 38.7617H853.805L854.859 40.3672H854.914L855.965 38.7617H856.711L855.262 40.8516L856.723 43H855.953L854.887 41.3672ZM799.848 54V50.3398H798.711V49.7734H799.848V49.3477C799.848 48.5273 800.355 48.1445 801.398 48.1445C801.645 48.1445 802.234 48.1641 802.375 48.1836V48.7266C802.191 48.707 801.645 48.6914 801.406 48.6914C800.816 48.6914 800.504 48.9102 800.504 49.3359V49.7734H802.375V50.3398H800.512V54H799.848ZM805.418 54.0781C804.297 54.0781 803.582 53.3477 803.582 52.2031V51.5625C803.582 50.418 804.297 49.6875 805.418 49.6875C806.539 49.6875 807.254 50.418 807.254 51.5625V52.2031C807.254 53.3477 806.539 54.0781 805.418 54.0781ZM805.418 50.2734C804.691 50.2734 804.238 50.7891 804.238 51.6211V52.1406C804.238 52.9766 804.691 53.4883 805.418 53.4883C806.145 53.4883 806.598 52.9766 806.598 52.1406V51.6211C806.598 50.7891 806.145 50.2734 805.418 50.2734ZM810.195 52.1016V53.4688H811.508V54H808.691V53.4688H809.547V50.293H808.605V49.7617H810.188V50.8438H810.273C810.43 50.0586 810.957 49.6523 811.773 49.6523C812.016 49.6523 812.246 49.6875 812.387 49.7461V50.4922C812.191 50.4219 811.918 50.375 811.688 50.375C810.75 50.375 810.195 51.0234 810.195 52.1016ZM822.02 51.082H821.363C821.281 50.5859 820.867 50.2734 820.32 50.2734C819.582 50.2734 819.172 50.7773 819.172 51.6875V52.0703C819.172 52.9805 819.582 53.4805 820.32 53.4805C820.867 53.4805 821.281 53.1719 821.363 52.6875H822.02C821.914 53.5508 821.27 54.0781 820.332 54.0781C819.18 54.0781 818.508 53.3711 818.508 52.1562V51.6016C818.508 50.3867 819.18 49.6797 820.332 49.6797C821.27 49.6797 821.91 50.2109 822.02 51.082ZM826.934 49.7617V54H826.297V53.2539H826.242C826.016 53.7812 825.531 54.0781 824.887 54.0781C823.965 54.0781 823.465 53.5273 823.465 52.5117V49.7617H824.129V52.3438C824.129 53.1094 824.441 53.4688 825.102 53.4688C825.801 53.4688 826.27 52.9805 826.27 52.2578V49.7617H826.934ZM828.602 50.9062C828.602 50.1719 829.227 49.6797 830.16 49.6797C831.043 49.6797 831.641 50.1211 831.719 50.8281H831.078C831 50.457 830.645 50.2305 830.148 50.2305C829.609 50.2305 829.262 50.4805 829.262 50.8672C829.262 51.1914 829.48 51.375 830.012 51.4922L830.609 51.6289C831.434 51.8164 831.809 52.1758 831.809 52.7891C831.809 53.5703 831.156 54.0781 830.152 54.0781C829.191 54.0781 828.555 53.6289 828.48 52.9023H829.156C829.254 53.293 829.629 53.5195 830.176 53.5195C830.754 53.5195 831.121 53.2578 831.121 52.8516C831.121 52.5156 830.914 52.3359 830.375 52.2148L829.746 52.0703C828.98 51.8945 828.602 51.5078 828.602 50.9062ZM834.367 48.625H835.023V49.7734H836.742V50.3398H835.031V52.7305C835.031 53.1914 835.355 53.4414 835.953 53.4414C836.191 53.4414 836.617 53.4297 836.73 53.418V53.9805C836.625 54 836.109 54.0195 835.906 54.0195C834.855 54.0195 834.367 53.6211 834.367 52.7383V50.3398H833.238V49.7734H834.367V48.625ZM840.035 54.0781C838.914 54.0781 838.199 53.3477 838.199 52.2031V51.5625C838.199 50.418 838.914 49.6875 840.035 49.6875C841.156 49.6875 841.871 50.418 841.871 51.5625V52.2031C841.871 53.3477 841.156 54.0781 840.035 54.0781ZM840.035 50.2734C839.309 50.2734 838.855 50.7891 838.855 51.6211V52.1406C838.855 52.9766 839.309 53.4883 840.035 53.4883C840.762 53.4883 841.215 52.9766 841.215 52.1406V51.6211C841.215 50.7891 840.762 50.2734 840.035 50.2734ZM847.023 50.8789V54H846.426V51.0742C846.426 50.5586 846.238 50.2891 845.883 50.2891C845.512 50.2891 845.285 50.6133 845.285 51.1406V54H844.691V51.0703C844.691 50.5586 844.504 50.2891 844.145 50.2891C843.77 50.2891 843.535 50.6133 843.535 51.1406V54H842.938V49.7617H843.531V50.3594H843.602C843.707 49.9336 844.012 49.6836 844.41 49.6836C844.809 49.6836 845.09 49.9297 845.18 50.3477H845.25C845.359 49.9414 845.699 49.6836 846.125 49.6836C846.715 49.6836 847.023 50.0938 847.023 50.8789ZM800.738 60.6914C801.719 60.6914 802.359 61.3984 802.359 62.4883V63.2773C802.359 64.3633 801.719 65.0703 800.738 65.0703C800.125 65.0703 799.676 64.8086 799.492 64.3438H799.418V66.4297H798.742V60.7617H799.398V61.4102H799.469C799.691 60.9414 800.133 60.6914 800.738 60.6914ZM800.547 61.3008C799.848 61.3008 799.402 61.8008 799.402 62.582V63.1914C799.402 63.9766 799.848 64.4766 800.547 64.4766C801.246 64.4766 801.691 63.9727 801.691 63.1914V62.582C801.691 61.8008 801.246 61.3008 800.547 61.3008ZM804.988 65.0742C804.18 65.0742 803.641 64.5664 803.641 63.7969C803.641 63.0469 804.18 62.6016 805.145 62.5508L806.309 62.4922V62.1094C806.309 61.5781 805.984 61.2852 805.395 61.2852C804.906 61.2852 804.562 61.4922 804.453 61.8555H803.801C803.879 61.1758 804.535 60.7109 805.402 60.7109C806.398 60.7109 806.969 61.2188 806.969 62.1016V65.0039H806.336V64.3672H806.27C806.066 64.8203 805.605 65.0742 804.988 65.0742ZM805.18 64.4922C805.82 64.4922 806.309 64.0664 806.309 63.5V63L805.219 63.0508C804.625 63.0781 804.312 63.332 804.312 63.7734C804.312 64.2188 804.645 64.4922 805.18 64.4922ZM809.641 59.625H810.297V60.7734H812.016V61.3398H810.305V63.7305C810.305 64.1914 810.629 64.4414 811.227 64.4414C811.465 64.4414 811.891 64.4297 812.004 64.418V64.9805C811.898 65 811.383 65.0195 811.18 65.0195C810.129 65.0195 809.641 64.6211 809.641 63.7383V61.3398H808.512V60.7734H809.641V59.625ZM814.586 59.625H815.242V60.7734H816.961V61.3398H815.25V63.7305C815.25 64.1914 815.574 64.4414 816.172 64.4414C816.41 64.4414 816.836 64.4297 816.949 64.418V64.9805C816.844 65 816.328 65.0195 816.125 65.0195C815.074 65.0195 814.586 64.6211 814.586 63.7383V61.3398H813.457V60.7734H814.586V59.625ZM821.398 63.9062H822.043C821.914 64.6055 821.242 65.0781 820.352 65.0781C819.188 65.0781 818.512 64.3789 818.512 63.1719V62.5352C818.512 61.418 819.227 60.6836 820.305 60.6836C821.406 60.6836 822.055 61.4141 822.055 62.6406V63.0547H819.168V63.2266C819.168 64.0039 819.629 64.5039 820.352 64.5039C820.887 64.5039 821.281 64.2773 821.398 63.9062ZM820.301 61.2539C819.594 61.2539 819.168 61.7383 819.168 62.5508H821.398C821.398 61.7422 820.984 61.2539 820.301 61.2539ZM825.031 63.1016V64.4688H826.344V65H823.527V64.4688H824.383V61.293H823.441V60.7617H825.023V61.8438H825.109C825.266 61.0586 825.793 60.6523 826.609 60.6523C826.852 60.6523 827.082 60.6875 827.223 60.7461V61.4922C827.027 61.4219 826.754 61.375 826.523 61.375C825.586 61.375 825.031 62.0234 825.031 63.1016ZM828.41 65V60.7617H829.047V61.5078H829.102C829.328 60.9805 829.812 60.6836 830.457 60.6836C831.379 60.6836 831.879 61.2344 831.879 62.25V65H831.215V62.418C831.215 61.6523 830.902 61.293 830.242 61.293C829.543 61.293 829.074 61.7812 829.074 62.5039V65H828.41Z" fill="#6E7781"/>
<g filter="url(#filter6_d_534_247)">
<rect x="883.859" y="28" width="123.859" height="47.012" rx="3.09364" fill="white"/>
<rect x="883.601" y="27.7422" width="124.374" height="47.5276" rx="3.35144" stroke="#6A737D" stroke-opacity="0.05" stroke-width="0.515606"/>
</g>
<circle cx="910.5" cy="51.5" r="15.5" fill="#8250DF"/>
<path fill-rule="evenodd" clip-rule="evenodd" d="M911.533 44.1331C911.186 44.0221 910.814 44.0221 910.467 44.1331L905.217 45.8131C904.492 46.045 904 46.7188 904 47.4798V50.9998C904 52.5659 904.319 54.1823 905.303 55.682C906.286 57.1805 907.888 58.4946 910.335 59.5367C910.759 59.7173 911.241 59.7173 911.665 59.5367C914.112 58.4946 915.714 57.1805 916.697 55.682C917.681 54.1823 918 52.5659 918 50.9998V47.4798C918 46.7188 917.508 46.045 916.783 45.8131L911.533 44.1331ZM910.924 45.5617C910.973 45.5458 911.027 45.5458 911.076 45.5617L916.326 47.2417C916.43 47.2748 916.5 47.3711 916.5 47.4798V50.9998C916.5 52.3582 916.225 53.6662 915.443 54.8592C914.659 56.0535 913.322 57.2007 911.077 58.1567C911.029 58.1773 910.971 58.1773 910.923 58.1567C908.678 57.2007 907.341 56.0535 906.557 54.8592C905.775 53.6662 905.5 52.3582 905.5 50.9998V47.4798C905.5 47.3711 905.57 47.2748 905.674 47.2417L910.924 45.5617ZM914.28 50.2802C914.573 49.9873 914.573 49.5124 914.28 49.2196C913.987 48.9267 913.513 48.9267 913.22 49.2196L910.25 52.1892L909.28 51.2196C908.987 50.9267 908.513 50.9267 908.22 51.2196C907.927 51.5124 907.927 51.9873 908.22 52.2802L909.72 53.7802C910.013 54.0731 910.487 54.0731 910.78 53.7802L914.28 50.2802Z" fill="white"/>
<path d="M939.812 46.7734V46.2227H938.512V45.6328H940.508V46.832C940.508 47.8906 939.711 48.6172 938.574 48.6172C937.25 48.6172 936.484 47.7266 936.484 46.1836V45.1797C936.484 43.6367 937.25 42.7461 938.574 42.7461C939.746 42.7461 940.48 43.4609 940.508 44.6289H939.812C939.781 43.8945 939.281 43.3984 938.562 43.3984C937.652 43.3984 937.18 44.0117 937.18 45.1797V46.1836C937.18 47.3516 937.656 47.9648 938.566 47.9648C939.336 47.9648 939.812 47.5117 939.812 46.7734ZM944.562 47.4062H945.207C945.078 48.1055 944.406 48.5781 943.516 48.5781C942.352 48.5781 941.676 47.8789 941.676 46.6719V46.0352C941.676 44.918 942.391 44.1836 943.469 44.1836C944.57 44.1836 945.219 44.9141 945.219 46.1406V46.5547H942.332V46.7266C942.332 47.5039 942.793 48.0039 943.516 48.0039C944.051 48.0039 944.445 47.7773 944.562 47.4062ZM943.465 44.7539C942.758 44.7539 942.332 45.2383 942.332 46.0508H944.562C944.562 45.2422 944.148 44.7539 943.465 44.7539ZM946.629 48.5V44.2617H947.266V45.0078H947.32C947.547 44.4805 948.031 44.1836 948.676 44.1836C949.598 44.1836 950.098 44.7344 950.098 45.75V48.5H949.434V45.918C949.434 45.1523 949.121 44.793 948.461 44.793C947.762 44.793 947.293 45.2812 947.293 46.0039V48.5H946.629ZM954.453 47.4062H955.098C954.969 48.1055 954.297 48.5781 953.406 48.5781C952.242 48.5781 951.566 47.8789 951.566 46.6719V46.0352C951.566 44.918 952.281 44.1836 953.359 44.1836C954.461 44.1836 955.109 44.9141 955.109 46.1406V46.5547H952.223V46.7266C952.223 47.5039 952.684 48.0039 953.406 48.0039C953.941 48.0039 954.336 47.7773 954.453 47.4062ZM953.355 44.7539C952.648 44.7539 952.223 45.2383 952.223 46.0508H954.453C954.453 45.2422 954.039 44.7539 953.355 44.7539ZM958.086 46.6016V47.9688H959.398V48.5H956.582V47.9688H957.438V44.793H956.496V44.2617H958.078V45.3438H958.164C958.32 44.5586 958.848 44.1523 959.664 44.1523C959.906 44.1523 960.137 44.1875 960.277 44.2461V44.9922C960.082 44.9219 959.809 44.875 959.578 44.875C958.641 44.875 958.086 45.5234 958.086 46.6016ZM962.77 48.5742C961.961 48.5742 961.422 48.0664 961.422 47.2969C961.422 46.5469 961.961 46.1016 962.926 46.0508L964.09 45.9922V45.6094C964.09 45.0781 963.766 44.7852 963.176 44.7852C962.688 44.7852 962.344 44.9922 962.234 45.3555H961.582C961.66 44.6758 962.316 44.2109 963.184 44.2109C964.18 44.2109 964.75 44.7188 964.75 45.6016V48.5039H964.117V47.8672H964.051C963.848 48.3203 963.387 48.5742 962.77 48.5742ZM962.961 47.9922C963.602 47.9922 964.09 47.5664 964.09 47V46.5L963 46.5508C962.406 46.5781 962.094 46.832 962.094 47.2734C962.094 47.7188 962.426 47.9922 962.961 47.9922ZM967.422 43.125H968.078V44.2734H969.797V44.8398H968.086V47.2305C968.086 47.6914 968.41 47.9414 969.008 47.9414C969.246 47.9414 969.672 47.9297 969.785 47.918V48.4805C969.68 48.5 969.164 48.5195 968.961 48.5195C967.91 48.5195 967.422 48.1211 967.422 47.2383V44.8398H966.293V44.2734H967.422V43.125ZM974.234 47.4062H974.879C974.75 48.1055 974.078 48.5781 973.188 48.5781C972.023 48.5781 971.348 47.8789 971.348 46.6719V46.0352C971.348 44.918 972.062 44.1836 973.141 44.1836C974.242 44.1836 974.891 44.9141 974.891 46.1406V46.5547H972.004V46.7266C972.004 47.5039 972.465 48.0039 973.188 48.0039C973.723 48.0039 974.117 47.7773 974.234 47.4062ZM973.137 44.7539C972.43 44.7539 972.004 45.2383 972.004 46.0508H974.234C974.234 45.2422 973.82 44.7539 973.137 44.7539ZM982.355 48.5V44.8398H981.219V44.2734H982.355V43.8477C982.355 43.0273 982.863 42.6445 983.906 42.6445C984.152 42.6445 984.742 42.6641 984.883 42.6836V43.2266C984.699 43.207 984.152 43.1914 983.914 43.1914C983.324 43.1914 983.012 43.4102 983.012 43.8359V44.2734H984.883V44.8398H983.02V48.5H982.355ZM988 43.2227C987.688 43.2227 987.449 42.9883 987.449 42.6758C987.449 42.3672 987.688 42.1328 988 42.1328C988.312 42.1328 988.551 42.3672 988.551 42.6758C988.551 42.9883 988.312 43.2227 988 43.2227ZM989.777 48.5H986.266V47.9492H987.719V44.8125H986.277V44.2617H988.375V47.9492H989.777V48.5ZM992.887 46.8672H992.836L991.766 48.5H991.031L992.484 46.3789L991.02 44.2617H991.805L992.859 45.8672H992.914L993.965 44.2617H994.711L993.262 46.3516L994.723 48.5H993.953L992.887 46.8672ZM937.848 59.5V55.8398H936.711V55.2734H937.848V54.8477C937.848 54.0273 938.355 53.6445 939.398 53.6445C939.645 53.6445 940.234 53.6641 940.375 53.6836V54.2266C940.191 54.207 939.645 54.1914 939.406 54.1914C938.816 54.1914 938.504 54.4102 938.504 54.8359V55.2734H940.375V55.8398H938.512V59.5H937.848ZM943.418 59.5781C942.297 59.5781 941.582 58.8477 941.582 57.7031V57.0625C941.582 55.918 942.297 55.1875 943.418 55.1875C944.539 55.1875 945.254 55.918 945.254 57.0625V57.7031C945.254 58.8477 944.539 59.5781 943.418 59.5781ZM943.418 55.7734C942.691 55.7734 942.238 56.2891 942.238 57.1211V57.6406C942.238 58.4766 942.691 58.9883 943.418 58.9883C944.145 58.9883 944.598 58.4766 944.598 57.6406V57.1211C944.598 56.2891 944.145 55.7734 943.418 55.7734ZM948.195 57.6016V58.9688H949.508V59.5H946.691V58.9688H947.547V55.793H946.605V55.2617H948.188V56.3438H948.273C948.43 55.5586 948.957 55.1523 949.773 55.1523C950.016 55.1523 950.246 55.1875 950.387 55.2461V55.9922C950.191 55.9219 949.918 55.875 949.688 55.875C948.75 55.875 948.195 56.5234 948.195 57.6016ZM959.398 58.4062H960.043C959.914 59.1055 959.242 59.5781 958.352 59.5781C957.188 59.5781 956.512 58.8789 956.512 57.6719V57.0352C956.512 55.918 957.227 55.1836 958.305 55.1836C959.406 55.1836 960.055 55.9141 960.055 57.1406V57.5547H957.168V57.7266C957.168 58.5039 957.629 59.0039 958.352 59.0039C958.887 59.0039 959.281 58.7773 959.398 58.4062ZM958.301 55.7539C957.594 55.7539 957.168 56.2383 957.168 57.0508H959.398C959.398 56.2422 958.984 55.7539 958.301 55.7539ZM964.965 56.582H964.309C964.227 56.0859 963.812 55.7734 963.266 55.7734C962.527 55.7734 962.117 56.2773 962.117 57.1875V57.5703C962.117 58.4805 962.527 58.9805 963.266 58.9805C963.812 58.9805 964.227 58.6719 964.309 58.1875H964.965C964.859 59.0508 964.215 59.5781 963.277 59.5781C962.125 59.5781 961.453 58.8711 961.453 57.6562V57.1016C961.453 55.8867 962.125 55.1797 963.277 55.1797C964.215 55.1797 964.855 55.7109 964.965 56.582ZM968.145 59.5781C967.023 59.5781 966.309 58.8477 966.309 57.7031V57.0625C966.309 55.918 967.023 55.1875 968.145 55.1875C969.266 55.1875 969.98 55.918 969.98 57.0625V57.7031C969.98 58.8477 969.266 59.5781 968.145 59.5781ZM968.145 55.7734C967.418 55.7734 966.965 56.2891 966.965 57.1211V57.6406C966.965 58.4766 967.418 58.9883 968.145 58.9883C968.871 58.9883 969.324 58.4766 969.324 57.6406V57.1211C969.324 56.2891 968.871 55.7734 968.145 55.7734ZM971.547 56.4062C971.547 55.6719 972.172 55.1797 973.105 55.1797C973.988 55.1797 974.586 55.6211 974.664 56.3281H974.023C973.945 55.957 973.59 55.7305 973.094 55.7305C972.555 55.7305 972.207 55.9805 972.207 56.3672C972.207 56.6914 972.426 56.875 972.957 56.9922L973.555 57.1289C974.379 57.3164 974.754 57.6758 974.754 58.2891C974.754 59.0703 974.102 59.5781 973.098 59.5781C972.137 59.5781 971.5 59.1289 971.426 58.4023H972.102C972.199 58.793 972.574 59.0195 973.121 59.0195C973.699 59.0195 974.066 58.7578 974.066 58.3516C974.066 58.0156 973.859 57.8359 973.32 57.7148L972.691 57.5703C971.926 57.3945 971.547 57.0078 971.547 56.4062ZM976.848 61.0078C976.75 61.0078 976.621 61.0039 976.562 60.9961V60.4141C976.613 60.4258 976.734 60.4297 976.797 60.4297C977.195 60.4297 977.414 60.25 977.59 59.7578L977.664 59.5273L976.105 55.2617H976.828L978.016 58.8086H978.066L979.25 55.2617H979.957L978.359 59.6562C977.988 60.6992 977.633 61.0078 976.848 61.0078ZM981.438 56.4062C981.438 55.6719 982.062 55.1797 982.996 55.1797C983.879 55.1797 984.477 55.6211 984.555 56.3281H983.914C983.836 55.957 983.48 55.7305 982.984 55.7305C982.445 55.7305 982.098 55.9805 982.098 56.3672C982.098 56.6914 982.316 56.875 982.848 56.9922L983.445 57.1289C984.27 57.3164 984.645 57.6758 984.645 58.2891C984.645 59.0703 983.992 59.5781 982.988 59.5781C982.027 59.5781 981.391 59.1289 981.316 58.4023H981.992C982.09 58.793 982.465 59.0195 983.012 59.0195C983.59 59.0195 983.957 58.7578 983.957 58.3516C983.957 58.0156 983.75 57.8359 983.211 57.7148L982.582 57.5703C981.816 57.3945 981.438 57.0078 981.438 56.4062ZM987.203 54.125H987.859V55.2734H989.578V55.8398H987.867V58.2305C987.867 58.6914 988.191 58.9414 988.789 58.9414C989.027 58.9414 989.453 58.9297 989.566 58.918V59.4805C989.461 59.5 988.945 59.5195 988.742 59.5195C987.691 59.5195 987.203 59.1211 987.203 58.2383V55.8398H986.074V55.2734H987.203V54.125ZM994.016 58.4062H994.66C994.531 59.1055 993.859 59.5781 992.969 59.5781C991.805 59.5781 991.129 58.8789 991.129 57.6719V57.0352C991.129 55.918 991.844 55.1836 992.922 55.1836C994.023 55.1836 994.672 55.9141 994.672 57.1406V57.5547H991.785V57.7266C991.785 58.5039 992.246 59.0039 992.969 59.0039C993.504 59.0039 993.898 58.7773 994.016 58.4062ZM992.918 55.7539C992.211 55.7539 991.785 56.2383 991.785 57.0508H994.016C994.016 56.2422 993.602 55.7539 992.918 55.7539Z" fill="#6E7781"/>
</g>
</g>
<defs>
<filter id="filter0_f_534_247" x="631" y="-77.0001" width="278.883" height="314" filterUnits="userSpaceOnUse" color-interpolation-filters="sRGB">
<feFlood flood-opacity="0" result="BackgroundImageFix"/>
<feBlend mode="normal" in="SourceGraphic" in2="BackgroundImageFix" result="shape"/>
<feGaussianBlur stdDeviation="40" result="effect1_foregroundBlur_534_247"/>
</filter>
<filter id="filter1_f_534_247" x="701.279" y="-113" width="409.721" height="383" filterUnits="userSpaceOnUse" color-interpolation-filters="sRGB">
<feFlood flood-opacity="0" result="BackgroundImageFix"/>
<feBlend mode="normal" in="SourceGraphic" in2="BackgroundImageFix" result="shape"/>
<feGaussianBlur stdDeviation="60" result="effect1_foregroundBlur_534_247"/>
</filter>
<filter id="filter2_f_534_247" x="687.313" y="-80.0001" width="318.771" height="317" filterUnits="userSpaceOnUse" color-interpolation-filters="sRGB">
<feFlood flood-opacity="0" result="BackgroundImageFix"/>
<feBlend mode="normal" in="SourceGraphic" in2="BackgroundImageFix" result="shape"/>
<feGaussianBlur stdDeviation="40" result="effect1_foregroundBlur_534_247"/>
</filter>
<filter id="filter3_d_534_247" x="777.268" y="84.8366" width="137.264" height="60.4178" filterUnits="userSpaceOnUse" color-interpolation-filters="sRGB">
<feFlood flood-opacity="0" result="BackgroundImageFix"/>
<feColorMatrix in="SourceAlpha" type="matrix" values="0 0 0 0 0 0 0 0 0 0 0 0 0 0 0 0 0 0 127 0" result="hardAlpha"/>
<feOffset dy="2.06243"/>
<feGaussianBlur stdDeviation="3.09364"/>
<feColorMatrix type="matrix" values="0 0 0 0 0.105882 0 0 0 0 0.121569 0 0 0 0 0.137255 0 0 0 0.15 0"/>
<feBlend mode="normal" in2="BackgroundImageFix" result="effect1_dropShadow_534_247"/>
<feBlend mode="normal" in="SourceGraphic" in2="effect1_dropShadow_534_247" result="shape"/>
</filter>
<filter id="filter4_d_534_247" x="918.127" y="84.8366" width="137.264" height="60.4178" filterUnits="userSpaceOnUse" color-interpolation-filters="sRGB">
<feFlood flood-opacity="0" result="BackgroundImageFix"/>
<feColorMatrix in="SourceAlpha" type="matrix" values="0 0 0 0 0 0 0 0 0 0 0 0 0 0 0 0 0 0 127 0" result="hardAlpha"/>
<feOffset dy="2.06243"/>
<feGaussianBlur stdDeviation="3.09364"/>
<feColorMatrix type="matrix" values="0 0 0 0 0.105882 0 0 0 0 0.121569 0 0 0 0 0.137255 0 0 0 0.15 0"/>
<feBlend mode="normal" in2="BackgroundImageFix" result="effect1_dropShadow_534_247"/>
<feBlend mode="normal" in="SourceGraphic" in2="effect1_dropShadow_534_247" result="shape"/>
</filter>
<filter id="filter5_d_534_247" x="739.297" y="23.3595" width="137.264" height="60.4178" filterUnits="userSpaceOnUse" color-interpolation-filters="sRGB">
<feFlood flood-opacity="0" result="BackgroundImageFix"/>
<feColorMatrix in="SourceAlpha" type="matrix" values="0 0 0 0 0 0 0 0 0 0 0 0 0 0 0 0 0 0 127 0" result="hardAlpha"/>
<feOffset dy="2.06243"/>
<feGaussianBlur stdDeviation="3.09364"/>
<feColorMatrix type="matrix" values="0 0 0 0 0.105882 0 0 0 0 0.121569 0 0 0 0 0.137255 0 0 0 0.15 0"/>
<feBlend mode="normal" in2="BackgroundImageFix" result="effect1_dropShadow_534_247"/>
<feBlend mode="normal" in="SourceGraphic" in2="effect1_dropShadow_534_247" result="shape"/>
</filter>
<filter id="filter6_d_534_247" x="877.156" y="23.3595" width="137.264" height="60.4178" filterUnits="userSpaceOnUse" color-interpolation-filters="sRGB">
<feFlood flood-opacity="0" result="BackgroundImageFix"/>
<feColorMatrix in="SourceAlpha" type="matrix" values="0 0 0 0 0 0 0 0 0 0 0 0 0 0 0 0 0 0 127 0" result="hardAlpha"/>
<feOffset dy="2.06243"/>
<feGaussianBlur stdDeviation="3.09364"/>
<feColorMatrix type="matrix" values="0 0 0 0 0.105882 0 0 0 0 0.121569 0 0 0 0 0.137255 0 0 0 0.15 0"/>
<feBlend mode="normal" in2="BackgroundImageFix" result="effect1_dropShadow_534_247"/>
<feBlend mode="normal" in="SourceGraphic" in2="effect1_dropShadow_534_247" result="shape"/>
</filter>
<clipPath id="clip0_534_247">
<rect width="178" height="992" fill="white" transform="translate(992) rotate(90)"/>
</clipPath>
<clipPath id="clip1_534_247">
<rect width="177" height="376" fill="white" transform="translate(991 1) rotate(90)"/>
</clipPath>
</defs>
</svg>
