<svg width="277" height="175" viewBox="0 0 277 175" fill="none" xmlns="http://www.w3.org/2000/svg">
<g opacity="0.7">
<g opacity="0.7">
<g opacity="0.3" filter="url(#filter0_f_526_4155)">
<path d="M277 82.2228L277 228.63L82 228.63C82 228.63 86.7561 149.664 109.268 118.931C142.19 73.9878 277 82.2228 277 82.2228Z" fill="#FFADDA"/>
</g>
<g opacity="0.3" filter="url(#filter1_f_526_4155)">
<ellipse cx="271.56" cy="178.483" rx="110.248" ry="61.3471" transform="rotate(-30 271.56 178.483)" fill="#54AEFF"/>
</g>
<g opacity="0.2" filter="url(#filter2_f_526_4155)">
<ellipse cx="196.457" cy="159.428" rx="109.027" ry="53.2014" transform="rotate(-30 196.457 159.428)" fill="#C297FF"/>
</g>
</g>
<path d="M268.447 105.521L228.559 105.521L228.559 145.409L268.447 145.409L268.447 105.521Z" stroke="#8C959F" stroke-width="0.392991" stroke-dasharray="0.79 1.96"/>
<path d="M228.559 105.521L188.671 105.521L188.671 145.409L228.559 145.409L228.559 105.521Z" stroke="#8C959F" stroke-width="0.392991" stroke-dasharray="0.79 1.96"/>
<path d="M268.447 145.409L228.559 145.409L228.559 185.297L268.447 185.297L268.447 145.409Z" stroke="#8C959F" stroke-width="0.392991" stroke-dasharray="0.79 1.96"/>
<path d="M308.335 105.521L268.447 105.521L268.447 145.409L308.335 145.409L308.335 105.521Z" stroke="#8C959F" stroke-width="0.392991" stroke-dasharray="0.79 1.96"/>
<path d="M308.335 65.6329L268.447 65.6329L268.447 105.521L308.335 105.521L308.335 65.6329Z" stroke="#8C959F" stroke-width="0.392991" stroke-dasharray="0.79 1.96"/>
<path d="M188.519 145.431L148.631 145.431L148.631 185.319L188.519 185.319L188.519 145.431Z" stroke="#8C959F" stroke-width="0.392991" stroke-dasharray="0.79 1.96"/>
<path d="M228.407 65.6329L188.519 65.6329L188.519 105.521L228.407 105.521L228.407 65.6329Z" stroke="#8C959F" stroke-width="0.392991" stroke-dasharray="0.79 1.96"/>
<path d="M148.609 105.543L108.721 105.543L108.721 145.431L148.609 145.431L148.609 105.543Z" stroke="#8C959F" stroke-width="0.392991" stroke-dasharray="0.79 1.96"/>
</g>
<defs>
<filter id="filter0_f_526_4155" x="0.636368" y="0.266861" width="357.727" height="309.727" filterUnits="userSpaceOnUse" color-interpolation-filters="sRGB">
<feFlood flood-opacity="0" result="BackgroundImageFix"/>
<feBlend mode="normal" in="SourceGraphic" in2="BackgroundImageFix" result="shape"/>
<feGaussianBlur stdDeviation="40.6818" result="effect1_foregroundBlur_526_4155"/>
</filter>
<filter id="filter1_f_526_4155" x="106.158" y="36.8337" width="330.803" height="283.299" filterUnits="userSpaceOnUse" color-interpolation-filters="sRGB">
<feFlood flood-opacity="0" result="BackgroundImageFix"/>
<feBlend mode="normal" in="SourceGraphic" in2="BackgroundImageFix" result="shape"/>
<feGaussianBlur stdDeviation="32.5455" result="effect1_foregroundBlur_526_4155"/>
</filter>
<filter id="filter2_f_526_4155" x="33.2456" y="22.9594" width="326.424" height="272.937" filterUnits="userSpaceOnUse" color-interpolation-filters="sRGB">
<feFlood flood-opacity="0" result="BackgroundImageFix"/>
<feBlend mode="normal" in="SourceGraphic" in2="BackgroundImageFix" result="shape"/>
<feGaussianBlur stdDeviation="32.5455" result="effect1_foregroundBlur_526_4155"/>
</filter>
</defs>
</svg>
