<svg width="279" height="174" viewBox="0 0 279 174" fill="none" xmlns="http://www.w3.org/2000/svg">
<g opacity="0.7">
<g opacity="0.25" filter="url(#filter0_f_526_4207)">
<path d="M279 82.2228L279 228.63L82 228.63C82 228.63 86.8049 149.664 109.548 118.931C142.808 73.9878 279 82.2228 279 82.2228Z" fill="#FF9BCE"/>
</g>
<g opacity="0.3" filter="url(#filter1_f_526_4207)">
<ellipse cx="272.56" cy="177.483" rx="110.248" ry="61.3471" transform="rotate(-30 272.56 177.483)" fill="#58A6FF"/>
</g>
<g opacity="0.15" filter="url(#filter2_f_526_4207)">
<ellipse cx="197.457" cy="158.428" rx="109.027" ry="53.2014" transform="rotate(-30 197.457 158.428)" fill="#BC8CFF"/>
</g>
</g>
<path d="M269.447 104.521L229.559 104.521L229.559 144.409L269.447 144.409L269.447 104.521Z" stroke="#6E7781" stroke-width="0.392991" stroke-dasharray="0.79 1.96"/>
<path d="M229.559 104.521L189.671 104.521L189.671 144.409L229.559 144.409L229.559 104.521Z" stroke="#6E7781" stroke-width="0.392991" stroke-dasharray="0.79 1.96"/>
<path d="M269.447 144.409L229.559 144.409L229.559 184.297L269.447 184.297L269.447 144.409Z" stroke="#6E7781" stroke-width="0.392991" stroke-dasharray="0.79 1.96"/>
<path d="M309.335 104.521L269.447 104.521L269.447 144.409L309.335 144.409L309.335 104.521Z" stroke="#6E7781" stroke-width="0.392991" stroke-dasharray="0.79 1.96"/>
<path d="M309.335 64.6329L269.447 64.6329L269.447 104.521L309.335 104.521L309.335 64.6329Z" stroke="#6E7781" stroke-width="0.392991" stroke-dasharray="0.79 1.96"/>
<path d="M189.519 144.431L149.631 144.431L149.631 184.319L189.519 184.319L189.519 144.431Z" stroke="#6E7781" stroke-width="0.392991" stroke-dasharray="0.79 1.96"/>
<path d="M229.407 64.6329L189.519 64.6329L189.519 104.521L229.407 104.521L229.407 64.6329Z" stroke="#6E7781" stroke-width="0.392991" stroke-dasharray="0.79 1.96"/>
<path d="M149.609 104.543L109.721 104.543L109.721 144.431L149.609 144.431L149.609 104.543Z" stroke="#6E7781" stroke-width="0.392991" stroke-dasharray="0.79 1.96"/>
<defs>
<filter id="filter0_f_526_4207" x="0.636368" y="0.266861" width="359.727" height="309.727" filterUnits="userSpaceOnUse" color-interpolation-filters="sRGB">
<feFlood flood-opacity="0" result="BackgroundImageFix"/>
<feBlend mode="normal" in="SourceGraphic" in2="BackgroundImageFix" result="shape"/>
<feGaussianBlur stdDeviation="40.6818" result="effect1_foregroundBlur_526_4207"/>
</filter>
<filter id="filter1_f_526_4207" x="107.158" y="35.8337" width="330.803" height="283.299" filterUnits="userSpaceOnUse" color-interpolation-filters="sRGB">
<feFlood flood-opacity="0" result="BackgroundImageFix"/>
<feBlend mode="normal" in="SourceGraphic" in2="BackgroundImageFix" result="shape"/>
<feGaussianBlur stdDeviation="32.5455" result="effect1_foregroundBlur_526_4207"/>
</filter>
<filter id="filter2_f_526_4207" x="34.2456" y="21.9595" width="326.424" height="272.937" filterUnits="userSpaceOnUse" color-interpolation-filters="sRGB">
<feFlood flood-opacity="0" result="BackgroundImageFix"/>
<feBlend mode="normal" in="SourceGraphic" in2="BackgroundImageFix" result="shape"/>
<feGaussianBlur stdDeviation="32.5455" result="effect1_foregroundBlur_526_4207"/>
</filter>
</defs>
</svg>
