<svg fill="none" height="48" viewBox="0 0 99 48" width="99" xmlns="http://www.w3.org/2000/svg" xmlns:xlink="http://www.w3.org/1999/xlink"><clipPath id="a"><path d="m.5 0h98v48h-98z"/></clipPath><g clip-path="url(#a)"><path clip-rule="evenodd" d="m.5 0h97.0667l-48 48h-49.0667zm48 32.2143v-22.61336h9.6c9.1734 0 13.44 2.98666 13.44 10.23996 0 6.4-4.48 10.0267-11.9466 10.0267h-2.9867v8.5333h-14.5067l-1.0666-3.6266c-3.2 1.0666-6.8267.8533-10.0267 0l-1.4933 3.6266h-8.1067l.4267-1.92c-2.3467 2.1334-6.6134 2.9867-9.3867 2.9867-4.05334 0-7.46667-.8533-10.66667-2.7733l2.98667-5.76c3.2 1.92 5.3333 2.3466 7.8933 2.1333 1.4934 0 3.6267-.4267 3.84-2.3467 0-1.4933-2.1333-2.3466-4.9066-3.2-2.13337-.64-4.48004-1.4933-6.40004-2.7733-2.34666-1.7067-3.41333-3.84-3.41333-6.8267.21333-2.1333.85333-4.0533 2.34667-5.5466 2.13333-2.1334 5.54666-3.41336 9.6-3.41336 3.4133 0 7.68.85333 10.88 2.55996l-3.4133 5.76c-3.0341-1.517-4.7197-1.6856-6.4053-1.8541-.2107-.0211-.4214-.0422-.6347-.0659-2.7734-.2133-4.2667.8534-4.2667 1.92 0 1.4934 2.7733 2.56 5.3333 3.4134 3.84 1.28 8.7467 2.9866 9.6 7.68l7.04-18.77336h8.32zm-12.5866-13.44-2.9867 9.6c1.92.64 4.0533.64 6.1867 0l-2.9867-9.6zm20.6933-2.9867v7.68h2.1333c2.7734 0 4.9067-1.0667 4.9067-4.0533 0-2.7734-2.1333-3.6267-4.9067-3.6267z" fill="#8b949e" fill-rule="evenodd"/></g></svg>