<svg width="946" height="410" viewBox="0 0 946 410" fill="none" xmlns="http://www.w3.org/2000/svg">
<g filter="url(#filter0_d)">
<rect x="105" y="14" width="820" height="368" rx="5.11579" fill="white"/>
<rect x="105.853" y="14.8526" width="818.295" height="366.295" rx="4.26316" stroke="#D1D5DA" stroke-width="1.70526"/>
</g>
<path d="M93 51.5156L106.642 65.1577L106.642 37.8735L93 51.5156Z" fill="#F6F8FA"/>
<path d="M106.642 65.1577L93 51.5156L106.642 37.8735" stroke="#D6D7D8" stroke-width="1.70526"/>
<path d="M107 19.4105C107 17.5269 108.527 16 110.411 16H919.589C921.473 16 923 17.5269 923 19.4105V84H107V19.4105Z" fill="#F6F8FA"/>
<line x1="107" y1="85.1474" x2="925" y2="85.1474" stroke="#D1D5DA" stroke-width="1.70526"/>
<path d="M142.34 59.1992C144.133 59.1992 145.598 58.3672 146.289 56.9727H146.5V59H149.805V41.1641H146.395V48.1602H146.195C145.527 46.7305 144.086 45.8867 142.34 45.8867C139.094 45.8867 137.078 48.4297 137.078 52.5312C137.078 56.6445 139.082 59.1992 142.34 59.1992ZM143.5 48.6523C145.316 48.6523 146.43 50.1406 146.43 52.5547C146.43 54.9688 145.328 56.4453 143.5 56.4453C141.672 56.4453 140.582 54.9805 140.582 52.543C140.582 50.1172 141.684 48.6523 143.5 48.6523ZM161.699 55.3555C161.336 56.2344 160.41 56.7266 159.062 56.7266C157.281 56.7266 156.156 55.4961 156.109 53.5273V53.3516H164.98V52.332C164.98 48.2539 162.73 45.8164 158.922 45.8164C155.078 45.8164 152.711 48.418 152.711 52.6133C152.711 56.7852 155.031 59.2695 158.969 59.2695C162.133 59.2695 164.371 57.7578 164.875 55.3555H161.699ZM158.934 48.3594C160.527 48.3594 161.559 49.4609 161.629 51.2305H156.121C156.238 49.4961 157.352 48.3594 158.934 48.3594ZM175.246 45.8867C173.465 45.8867 172 46.7656 171.297 48.2188H171.086V46.0977H167.781V63.2773H171.191V57.0312H171.402C172.035 58.3906 173.453 59.1992 175.305 59.1992C178.539 59.1992 180.52 56.6914 180.52 52.543C180.52 48.3828 178.516 45.8867 175.246 45.8867ZM174.086 56.4453C172.281 56.4453 171.156 54.9688 171.156 52.5547C171.156 50.1406 172.281 48.6523 174.098 48.6523C175.914 48.6523 177.016 50.1172 177.016 52.543C177.016 54.9805 175.926 56.4453 174.086 56.4453ZM191.652 55.3555C191.289 56.2344 190.363 56.7266 189.016 56.7266C187.234 56.7266 186.109 55.4961 186.062 53.5273V53.3516H194.934V52.332C194.934 48.2539 192.684 45.8164 188.875 45.8164C185.031 45.8164 182.664 48.418 182.664 52.6133C182.664 56.7852 184.984 59.2695 188.922 59.2695C192.086 59.2695 194.324 57.7578 194.828 55.3555H191.652ZM188.887 48.3594C190.48 48.3594 191.512 49.4609 191.582 51.2305H186.074C186.191 49.4961 187.305 48.3594 188.887 48.3594ZM197.734 59H201.145V51.5352C201.145 49.7891 202.117 48.6641 203.699 48.6641C205.316 48.6641 206.078 49.6133 206.078 51.4297V59H209.488V50.6562C209.488 47.5742 207.941 45.8164 205.07 45.8164C203.16 45.8164 201.848 46.7188 201.25 48.1719H201.039V46.0977H197.734V59ZM217.434 59.1992C219.227 59.1992 220.691 58.3672 221.383 56.9727H221.594V59H224.898V41.1641H221.488V48.1602H221.289C220.621 46.7305 219.18 45.8867 217.434 45.8867C214.188 45.8867 212.172 48.4297 212.172 52.5312C212.172 56.6445 214.176 59.1992 217.434 59.1992ZM218.594 48.6523C220.41 48.6523 221.523 50.1406 221.523 52.5547C221.523 54.9688 220.422 56.4453 218.594 56.4453C216.766 56.4453 215.676 54.9805 215.676 52.543C215.676 50.1172 216.777 48.6523 218.594 48.6523ZM231.977 59.1992C233.652 59.1992 235.059 58.4844 235.727 57.2891H235.938V59H239.242V50.1875C239.242 47.4336 237.309 45.8164 233.887 45.8164C230.641 45.8164 228.449 47.3047 228.227 49.6719H231.367C231.648 48.8633 232.469 48.4297 233.699 48.4297C235.105 48.4297 235.879 49.0742 235.879 50.1875V51.2539L232.75 51.4414C229.539 51.6289 227.746 52.9883 227.746 55.3203C227.746 57.6758 229.492 59.1992 231.977 59.1992ZM233.102 56.7031C231.918 56.7031 231.086 56.1055 231.086 55.1094C231.086 54.1602 231.801 53.6094 233.266 53.5156L235.879 53.3398V54.3008C235.879 55.6602 234.684 56.7031 233.102 56.7031ZM250.211 59.1992C253.457 59.1992 255.449 56.6797 255.449 52.543C255.449 48.3828 253.48 45.8867 250.211 45.8867C248.441 45.8867 246.988 46.7422 246.332 48.1602H246.121V41.1641H242.711V59H246.016V56.9727H246.227C246.918 58.3789 248.383 59.1992 250.211 59.1992ZM249.027 48.6523C250.832 48.6523 251.945 50.1406 251.945 52.543C251.945 54.9688 250.844 56.4453 249.027 56.4453C247.223 56.4453 246.098 54.957 246.086 52.5547C246.098 50.1523 247.234 48.6523 249.027 48.6523ZM263.957 59.2695C267.93 59.2695 270.32 56.7617 270.32 52.543C270.32 48.3594 267.895 45.8164 263.957 45.8164C260.02 45.8164 257.594 48.3711 257.594 52.543C257.594 56.75 259.984 59.2695 263.957 59.2695ZM263.957 56.5742C262.129 56.5742 261.098 55.0977 261.098 52.543C261.098 50.0117 262.141 48.5234 263.957 48.5234C265.762 48.5234 266.816 50.0117 266.816 52.543C266.816 55.0977 265.773 56.5742 263.957 56.5742ZM274.082 43.0156V46.2148H272.066V48.8047H274.082V55.5195C274.082 58.0273 275.324 59.0469 278.465 59.0469C279.121 59.0469 279.754 58.9766 280.176 58.8945V56.375C279.848 56.4102 279.613 56.4336 279.168 56.4336C278.008 56.4336 277.492 55.8945 277.492 54.7344V48.8047H280.176V46.2148H277.492V43.0156H274.082Z" fill="#24292E"/>
<path d="M300.719 50.3633C300.391 47.8906 298.457 46.0273 295.258 46.0273C291.543 46.0273 289.281 48.5469 289.281 52.5898C289.281 56.7148 291.555 59.2461 295.27 59.2461C298.422 59.2461 300.391 57.4766 300.719 54.9688H298.27C297.941 56.3516 296.852 57.1016 295.258 57.1016C293.16 57.1016 291.859 55.4023 291.859 52.5898C291.859 49.8359 293.148 48.1719 295.258 48.1719C296.945 48.1719 297.977 49.1211 298.27 50.3633H300.719ZM308.992 59.2461C312.719 59.2461 315.004 56.75 315.004 52.6367C315.004 48.5234 312.707 46.0273 308.992 46.0273C305.266 46.0273 302.969 48.5352 302.969 52.6367C302.969 56.75 305.254 59.2461 308.992 59.2461ZM308.992 57.1016C306.801 57.1016 305.57 55.4727 305.57 52.6367C305.57 49.8008 306.801 48.1602 308.992 48.1602C311.172 48.1602 312.414 49.8008 312.414 52.6367C312.414 55.4609 311.172 57.1016 308.992 57.1016ZM318.039 59H320.559V51.1836C320.559 49.5195 321.719 48.2188 323.254 48.2188C324.754 48.2188 325.715 49.1211 325.715 50.5742V59H328.188V50.9492C328.188 49.4141 329.254 48.2188 330.883 48.2188C332.535 48.2188 333.355 49.0742 333.355 50.832V59H335.875V50.2227C335.875 47.5742 334.375 46.0273 331.797 46.0273C330.027 46.0273 328.562 46.9297 327.918 48.3008H327.719C327.156 46.9297 325.949 46.0273 324.203 46.0273C322.504 46.0273 321.215 46.8711 320.652 48.3008H320.465V46.2734H318.039V59ZM339.414 59H341.934V51.1836C341.934 49.5195 343.094 48.2188 344.629 48.2188C346.129 48.2188 347.09 49.1211 347.09 50.5742V59H349.562V50.9492C349.562 49.4141 350.629 48.2188 352.258 48.2188C353.91 48.2188 354.73 49.0742 354.73 50.832V59H357.25V50.2227C357.25 47.5742 355.75 46.0273 353.172 46.0273C351.402 46.0273 349.938 46.9297 349.293 48.3008H349.094C348.531 46.9297 347.324 46.0273 345.578 46.0273C343.879 46.0273 342.59 46.8711 342.027 48.3008H341.84V46.2734H339.414V59ZM369.156 55.5898C368.688 56.6211 367.645 57.1836 366.121 57.1836C364.105 57.1836 362.805 55.7305 362.723 53.4219V53.3047H371.734V52.4375C371.734 48.4531 369.59 46.0273 366.039 46.0273C362.441 46.0273 360.156 48.6172 360.156 52.6602C360.156 56.7266 362.395 59.2461 366.051 59.2461C368.969 59.2461 371.031 57.8398 371.582 55.5898H369.156ZM366.027 48.0781C367.891 48.0781 369.109 49.4258 369.168 51.4883H362.723C362.863 49.4375 364.164 48.0781 366.027 48.0781ZM374.758 59H377.277V51.5352C377.277 49.4844 378.461 48.2188 380.324 48.2188C382.188 48.2188 383.078 49.25 383.078 51.3594V59H385.598V50.7617C385.598 47.7266 384.027 46.0273 381.18 46.0273C379.258 46.0273 377.992 46.8828 377.371 48.2891H377.184V46.2734H374.758V59ZM390.039 43.0625V46.3086H388.012V48.3242H390.039V55.6484C390.039 58.0977 391.152 59.082 393.953 59.082C394.445 59.082 394.914 59.0234 395.324 58.9531V56.9492C394.973 56.9844 394.75 57.0078 394.363 57.0078C393.109 57.0078 392.559 56.4102 392.559 55.0391V48.3242H395.324V46.3086H392.559V43.0625H390.039ZM406.516 55.5898C406.047 56.6211 405.004 57.1836 403.48 57.1836C401.465 57.1836 400.164 55.7305 400.082 53.4219V53.3047H409.094V52.4375C409.094 48.4531 406.949 46.0273 403.398 46.0273C399.801 46.0273 397.516 48.6172 397.516 52.6602C397.516 56.7266 399.754 59.2461 403.41 59.2461C406.328 59.2461 408.391 57.8398 408.941 55.5898H406.516ZM403.387 48.0781C405.25 48.0781 406.469 49.4258 406.527 51.4883H400.082C400.223 49.4375 401.523 48.0781 403.387 48.0781ZM416.781 59.2109C418.539 59.2109 420.027 58.3789 420.789 56.9844H420.988V59H423.402V41.2812H420.883V48.2891H420.695C420.004 46.8945 418.527 46.0508 416.781 46.0508C413.559 46.0508 411.484 48.6172 411.484 52.625C411.484 56.6562 413.535 59.2109 416.781 59.2109ZM417.496 48.207C419.605 48.207 420.93 49.918 420.93 52.6367C420.93 55.3789 419.617 57.0547 417.496 57.0547C415.363 57.0547 414.086 55.4023 414.086 52.6367C414.086 49.8828 415.375 48.207 417.496 48.207ZM439.141 59.2461C442.867 59.2461 445.152 56.75 445.152 52.6367C445.152 48.5234 442.855 46.0273 439.141 46.0273C435.414 46.0273 433.117 48.5352 433.117 52.6367C433.117 56.75 435.402 59.2461 439.141 59.2461ZM439.141 57.1016C436.949 57.1016 435.719 55.4727 435.719 52.6367C435.719 49.8008 436.949 48.1602 439.141 48.1602C441.32 48.1602 442.562 49.8008 442.562 52.6367C442.562 55.4609 441.32 57.1016 439.141 57.1016ZM448.188 59H450.707V51.5352C450.707 49.4844 451.891 48.2188 453.754 48.2188C455.617 48.2188 456.508 49.25 456.508 51.3594V59H459.027V50.7617C459.027 47.7266 457.457 46.0273 454.609 46.0273C452.688 46.0273 451.422 46.8828 450.801 48.2891H450.613V46.2734H448.188V59ZM475.902 59.2109C479.125 59.2109 481.176 56.6445 481.176 52.6367C481.176 48.5938 479.137 46.0508 475.902 46.0508C474.156 46.0508 472.656 46.9062 471.977 48.2891H471.777V41.2812H469.258V59H471.684V56.9844H471.871C472.633 58.3906 474.121 59.2109 475.902 59.2109ZM475.176 48.207C477.309 48.207 478.586 49.8828 478.586 52.6367C478.586 55.3906 477.309 57.0547 475.176 57.0547C473.055 57.0547 471.742 55.3672 471.73 52.6367C471.742 49.9062 473.066 48.207 475.176 48.207ZM492.578 55.5898C492.109 56.6211 491.066 57.1836 489.543 57.1836C487.527 57.1836 486.227 55.7305 486.145 53.4219V53.3047H495.156V52.4375C495.156 48.4531 493.012 46.0273 489.461 46.0273C485.863 46.0273 483.578 48.6172 483.578 52.6602C483.578 56.7266 485.816 59.2461 489.473 59.2461C492.391 59.2461 494.453 57.8398 495.004 55.5898H492.578ZM489.449 48.0781C491.312 48.0781 492.531 49.4258 492.59 51.4883H486.145C486.285 49.4375 487.586 48.0781 489.449 48.0781ZM498.297 59H500.816V51.5469C500.816 49.5547 501.965 48.2305 504.027 48.2305C505.809 48.2305 506.758 49.2734 506.758 51.3711V59H509.277V50.7734C509.277 47.7617 507.602 46.0391 504.883 46.0391C502.961 46.0391 501.613 46.8828 500.992 48.3008H500.793V41.2812H498.297V59ZM516.355 59.2109C518.031 59.2109 519.426 58.4844 520.188 57.1953H520.387V59H522.812V50.293C522.812 47.6211 521.008 46.0273 517.809 46.0273C514.914 46.0273 512.852 47.4219 512.594 49.5664H515.031C515.312 48.6406 516.285 48.1133 517.691 48.1133C519.414 48.1133 520.305 48.8984 520.305 50.293V51.4062L516.848 51.6172C513.812 51.8047 512.102 53.1289 512.102 55.4141C512.102 57.7344 513.895 59.2109 516.355 59.2109ZM517 57.1836C515.629 57.1836 514.633 56.4922 514.633 55.3086C514.633 54.1484 515.43 53.5273 517.188 53.4102L520.305 53.1992V54.3008C520.305 55.9414 518.898 57.1836 517 57.1836ZM526.516 59H529.035V41.2812H526.516V59ZM533.723 59H536.242V48.3242H539.055V46.3086H536.207V45.0547C536.207 43.7656 536.781 43.1211 538.188 43.1211C538.586 43.1211 538.926 43.1445 539.16 43.1797V41.2812C538.727 41.2109 538.234 41.1641 537.66 41.1641C535.012 41.1641 533.723 42.4062 533.723 44.9375V46.3086H531.625V48.3242H533.723V59ZM553.867 59.2461C557.594 59.2461 559.879 56.75 559.879 52.6367C559.879 48.5234 557.582 46.0273 553.867 46.0273C550.141 46.0273 547.844 48.5352 547.844 52.6367C547.844 56.75 550.129 59.2461 553.867 59.2461ZM553.867 57.1016C551.676 57.1016 550.445 55.4727 550.445 52.6367C550.445 49.8008 551.676 48.1602 553.867 48.1602C556.047 48.1602 557.289 49.8008 557.289 52.6367C557.289 55.4609 556.047 57.1016 553.867 57.1016ZM563.816 59H566.336V48.3242H569.148V46.3086H566.301V45.0547C566.301 43.7656 566.875 43.1211 568.281 43.1211C568.68 43.1211 569.02 43.1445 569.254 43.1797V41.2812C568.82 41.2109 568.328 41.1641 567.754 41.1641C565.105 41.1641 563.816 42.4062 563.816 44.9375V46.3086H561.719V48.3242H563.816V59ZM584.148 63.8867C588.051 63.8867 590.523 61.9883 590.523 58.9766V46.0977H587.219V48.1602H587.008C586.316 46.7539 584.828 45.8867 583.082 45.8867C579.801 45.8867 577.785 48.4414 577.785 52.4375C577.785 56.3047 579.789 58.8125 583.012 58.8125C584.828 58.8125 586.188 58.0742 586.902 56.7148H587.113V59.1172C587.113 60.6055 586.047 61.4727 584.219 61.4727C582.742 61.4727 581.781 60.957 581.605 60.1367H578.23C578.441 62.3984 580.715 63.8867 584.148 63.8867ZM584.195 56.1992C582.344 56.1992 581.289 54.7461 581.289 52.4258C581.289 50.1055 582.355 48.6523 584.195 48.6523C586.035 48.6523 587.148 50.1055 587.148 52.4258C587.148 54.7461 586.047 56.1992 584.195 56.1992ZM595.68 44.1172C596.734 44.1172 597.602 43.2734 597.602 42.2188C597.602 41.1523 596.734 40.3086 595.68 40.3086C594.625 40.3086 593.746 41.1523 593.746 42.2188C593.746 43.2734 594.625 44.1172 595.68 44.1172ZM593.969 59H597.379V46.0977H593.969V59ZM601.809 43.0156V46.2148H599.793V48.8047H601.809V55.5195C601.809 58.0273 603.051 59.0469 606.191 59.0469C606.848 59.0469 607.48 58.9766 607.902 58.8945V56.375C607.574 56.4102 607.34 56.4336 606.895 56.4336C605.734 56.4336 605.219 55.8945 605.219 54.7344V48.8047H607.902V46.2148H605.219V43.0156H601.809ZM610.867 59H614.277V51.5703C614.277 49.8594 615.262 48.6992 616.973 48.6992C618.52 48.6992 619.352 49.6367 619.352 51.4648V59H622.762V50.6914C622.762 47.5977 621.109 45.8516 618.332 45.8516C616.434 45.8516 615.027 46.7422 614.43 48.207H614.219V41.1641H610.867V59ZM637.773 46.0977H634.363V53.5508C634.363 55.3203 633.449 56.4102 631.75 56.4102C630.18 56.4102 629.371 55.4844 629.371 53.6562V46.0977H625.961V54.5C625.961 57.5 627.695 59.2695 630.484 59.2695C632.441 59.2695 633.648 58.4258 634.258 56.9258H634.469V59H637.773V46.0977ZM648.812 59.1992C652.059 59.1992 654.051 56.6797 654.051 52.543C654.051 48.3828 652.082 45.8867 648.812 45.8867C647.043 45.8867 645.59 46.7422 644.934 48.1602H644.723V41.1641H641.312V59H644.617V56.9727H644.828C645.52 58.3789 646.984 59.1992 648.812 59.1992ZM647.629 48.6523C649.434 48.6523 650.547 50.1406 650.547 52.543C650.547 54.9688 649.445 56.4453 647.629 56.4453C645.824 56.4453 644.699 54.957 644.688 52.5547C644.699 50.1523 645.836 48.6523 647.629 48.6523Z" fill="#444D56"/>
<path d="M145.07 137C148.68 137 150.848 135.195 150.848 132.219C150.848 130.004 149.324 128.387 147.039 128.141V127.941C148.703 127.66 150.004 126.078 150.004 124.309C150.004 121.707 148.094 120.09 144.918 120.09H138.121V137H145.07ZM140.746 122.234H144.309C146.254 122.234 147.391 123.16 147.391 124.766C147.391 126.418 146.184 127.285 143.863 127.285H140.746V122.234ZM140.746 134.855V129.289H144.391C146.863 129.289 148.164 130.227 148.164 132.055C148.164 133.883 146.91 134.855 144.543 134.855H140.746ZM164.688 124.273H162.168V131.738C162.168 133.789 161.055 135.031 159.016 135.031C157.164 135.031 156.332 134.023 156.332 131.914V124.273H153.812V132.535C153.812 135.523 155.383 137.246 158.207 137.246C160.141 137.246 161.441 136.426 162.062 134.984H162.262V137H164.688V124.273ZM168.344 137H170.863V129.184C170.863 127.52 172.023 126.219 173.559 126.219C175.059 126.219 176.02 127.121 176.02 128.574V137H178.492V128.949C178.492 127.414 179.559 126.219 181.188 126.219C182.84 126.219 183.66 127.074 183.66 128.832V137H186.18V128.223C186.18 125.574 184.68 124.027 182.102 124.027C180.332 124.027 178.867 124.93 178.223 126.301H178.023C177.461 124.93 176.254 124.027 174.508 124.027C172.809 124.027 171.52 124.871 170.957 126.301H170.77V124.273H168.344V137ZM196.34 124.051C194.605 124.051 193.105 124.93 192.332 126.383H192.145V124.273H189.719V141.242H192.238V135.078H192.438C193.105 136.426 194.547 137.211 196.363 137.211C199.586 137.211 201.637 134.656 201.637 130.637C201.637 126.594 199.586 124.051 196.34 124.051ZM195.625 135.055C193.516 135.055 192.191 133.355 192.191 130.637C192.191 127.906 193.516 126.207 195.637 126.207C197.77 126.207 199.047 127.871 199.047 130.637C199.047 133.402 197.77 135.055 195.625 135.055ZM204.379 127.836C204.379 129.723 205.504 130.801 207.93 131.363L210.156 131.891C211.434 132.195 212.031 132.711 212.031 133.508C212.031 134.551 210.918 135.277 209.348 135.277C207.824 135.277 206.887 134.656 206.57 133.66H204.051C204.273 135.875 206.254 137.246 209.289 137.246C212.336 137.246 214.574 135.641 214.574 133.273C214.574 131.422 213.438 130.379 211.012 129.816L208.891 129.324C207.508 128.996 206.863 128.504 206.863 127.719C206.863 126.688 207.93 125.996 209.336 125.996C210.766 125.996 211.68 126.617 211.914 127.566H214.328C214.082 125.363 212.207 124.027 209.336 124.027C206.453 124.027 204.379 125.621 204.379 127.836ZM475.223 137H477.742V126.324H480.555V124.309H477.707V123.055C477.707 121.766 478.281 121.121 479.688 121.121C480.086 121.121 480.426 121.145 480.66 121.18V119.281C480.227 119.211 479.734 119.164 479.16 119.164C476.512 119.164 475.223 120.406 475.223 122.938V124.309H473.125V126.324H475.223V137ZM483.414 137H485.934V129.395C485.934 127.602 487.281 126.371 489.191 126.371C489.637 126.371 490.387 126.453 490.598 126.512V124.145C490.328 124.086 489.848 124.051 489.473 124.051C487.809 124.051 486.391 124.953 486.027 126.207H485.84V124.273H483.414V137ZM498.086 137.246C501.812 137.246 504.098 134.75 504.098 130.637C504.098 126.523 501.801 124.027 498.086 124.027C494.359 124.027 492.062 126.535 492.062 130.637C492.062 134.75 494.348 137.246 498.086 137.246ZM498.086 135.102C495.895 135.102 494.664 133.473 494.664 130.637C494.664 127.801 495.895 126.16 498.086 126.16C500.266 126.16 501.508 127.801 501.508 130.637C501.508 133.461 500.266 135.102 498.086 135.102ZM507.133 137H509.652V129.184C509.652 127.52 510.812 126.219 512.348 126.219C513.848 126.219 514.809 127.121 514.809 128.574V137H517.281V128.949C517.281 127.414 518.348 126.219 519.977 126.219C521.629 126.219 522.449 127.074 522.449 128.832V137H524.969V128.223C524.969 125.574 523.469 124.027 520.891 124.027C519.121 124.027 517.656 124.93 517.012 126.301H516.812C516.25 124.93 515.043 124.027 513.297 124.027C511.598 124.027 510.309 124.871 509.746 126.301H509.559V124.273H507.133V137ZM541.047 137.41C544.984 137.41 547.281 134.164 547.281 128.562C547.281 122.949 544.949 119.68 541.047 119.68C537.121 119.68 534.789 122.949 534.789 128.527C534.789 134.152 537.098 137.41 541.047 137.41ZM541.047 135.23C538.75 135.23 537.438 132.887 537.438 128.527C537.438 124.227 538.773 121.871 541.047 121.871C543.32 121.871 544.633 124.203 544.633 128.527C544.633 132.898 543.344 135.23 541.047 135.23ZM551.559 137.176C552.555 137.176 553.281 136.438 553.281 135.488C553.281 134.539 552.555 133.801 551.559 133.801C550.574 133.801 549.836 134.539 549.836 135.488C549.836 136.438 550.574 137.176 551.559 137.176ZM560.242 137H562.867V120.09H560.254L555.801 123.254V125.832L560.043 122.797H560.242V137ZM573.859 137.41C577.621 137.41 580.223 135.383 580.223 132.465C580.223 130.285 578.793 128.574 576.625 128.164V127.965C578.406 127.508 579.531 126.066 579.531 124.227C579.531 121.566 577.176 119.68 573.859 119.68C570.543 119.68 568.188 121.566 568.188 124.227C568.188 126.055 569.336 127.52 571.094 127.965V128.164C568.926 128.598 567.508 130.309 567.508 132.477C567.508 135.395 570.098 137.41 573.859 137.41ZM573.859 127.156C572.02 127.156 570.777 126.078 570.777 124.473C570.777 122.844 572.008 121.754 573.859 121.754C575.711 121.754 576.953 122.844 576.953 124.473C576.953 126.078 575.699 127.156 573.859 127.156ZM573.859 135.324C571.691 135.324 570.191 134.07 570.191 132.266C570.191 130.461 571.691 129.219 573.859 129.219C576.027 129.219 577.527 130.461 577.527 132.266C577.527 134.07 576.027 135.324 573.859 135.324ZM584.699 137.176C585.695 137.176 586.422 136.438 586.422 135.488C586.422 134.539 585.695 133.801 584.699 133.801C583.715 133.801 582.977 134.539 582.977 135.488C582.977 136.438 583.715 137.176 584.699 137.176ZM589.773 124.988H592.258C592.258 123.113 593.512 121.848 595.422 121.848C597.297 121.848 598.41 123.102 598.41 124.742C598.41 126.113 597.848 126.957 595.703 129.195L589.914 135.219V137H601.305V134.762H593.5V134.562L597.227 130.812C600.191 127.836 601.047 126.441 601.047 124.484C601.047 121.707 598.762 119.68 595.586 119.68C592.176 119.68 589.773 121.883 589.773 124.988ZM612.203 121.062V124.309H610.176V126.324H612.203V133.648C612.203 136.098 613.316 137.082 616.117 137.082C616.609 137.082 617.078 137.023 617.488 136.953V134.949C617.137 134.984 616.914 135.008 616.527 135.008C615.273 135.008 614.723 134.41 614.723 133.039V126.324H617.488V124.309H614.723V121.062H612.203ZM625.703 137.246C629.43 137.246 631.715 134.75 631.715 130.637C631.715 126.523 629.418 124.027 625.703 124.027C621.977 124.027 619.68 126.535 619.68 130.637C619.68 134.75 621.965 137.246 625.703 137.246ZM625.703 135.102C623.512 135.102 622.281 133.473 622.281 130.637C622.281 127.801 623.512 126.16 625.703 126.16C627.883 126.16 629.125 127.801 629.125 130.637C629.125 133.461 627.883 135.102 625.703 135.102ZM647.289 137.41C651.227 137.41 653.523 134.164 653.523 128.562C653.523 122.949 651.191 119.68 647.289 119.68C643.363 119.68 641.031 122.949 641.031 128.527C641.031 134.152 643.34 137.41 647.289 137.41ZM647.289 135.23C644.992 135.23 643.68 132.887 643.68 128.527C643.68 124.227 645.016 121.871 647.289 121.871C649.562 121.871 650.875 124.203 650.875 128.527C650.875 132.898 649.586 135.23 647.289 135.23ZM657.801 137.176C658.797 137.176 659.523 136.438 659.523 135.488C659.523 134.539 658.797 133.801 657.801 133.801C656.816 133.801 656.078 134.539 656.078 135.488C656.078 136.438 656.816 137.176 657.801 137.176ZM666.484 137H669.109V120.09H666.496L662.043 123.254V125.832L666.285 122.797H666.484V137ZM680.102 137.41C683.863 137.41 686.465 135.383 686.465 132.465C686.465 130.285 685.035 128.574 682.867 128.164V127.965C684.648 127.508 685.773 126.066 685.773 124.227C685.773 121.566 683.418 119.68 680.102 119.68C676.785 119.68 674.43 121.566 674.43 124.227C674.43 126.055 675.578 127.52 677.336 127.965V128.164C675.168 128.598 673.75 130.309 673.75 132.477C673.75 135.395 676.34 137.41 680.102 137.41ZM680.102 127.156C678.262 127.156 677.02 126.078 677.02 124.473C677.02 122.844 678.25 121.754 680.102 121.754C681.953 121.754 683.195 122.844 683.195 124.473C683.195 126.078 681.941 127.156 680.102 127.156ZM680.102 135.324C677.934 135.324 676.434 134.07 676.434 132.266C676.434 130.461 677.934 129.219 680.102 129.219C682.27 129.219 683.77 130.461 683.77 132.266C683.77 134.07 682.27 135.324 680.102 135.324ZM690.941 137.176C691.938 137.176 692.664 136.438 692.664 135.488C692.664 134.539 691.938 133.801 690.941 133.801C689.957 133.801 689.219 134.539 689.219 135.488C689.219 136.438 689.957 137.176 690.941 137.176ZM699.59 129.348H701.699C703.902 129.348 705.262 130.473 705.262 132.277C705.262 134.035 703.809 135.207 701.734 135.207C699.684 135.207 698.266 134.141 698.113 132.477H695.594C695.734 135.453 698.195 137.41 701.77 137.41C705.297 137.41 707.957 135.301 707.957 132.418C707.957 130.098 706.504 128.598 704.254 128.258V128.059C706.023 127.566 707.301 126.219 707.312 124.18C707.324 121.777 705.344 119.68 701.852 119.68C698.289 119.68 696.086 121.73 695.91 124.602H698.395C698.547 122.832 699.777 121.836 701.699 121.836C703.598 121.836 704.723 123.02 704.723 124.508C704.723 126.137 703.457 127.285 701.629 127.285H699.59V129.348Z" fill="#24292E"/>
<path d="M224.289 137H226.809V119.281H224.289V137ZM238.961 133.59C238.492 134.621 237.449 135.184 235.926 135.184C233.91 135.184 232.609 133.73 232.527 131.422V131.305H241.539V130.438C241.539 126.453 239.395 124.027 235.844 124.027C232.246 124.027 229.961 126.617 229.961 130.66C229.961 134.727 232.199 137.246 235.855 137.246C238.773 137.246 240.836 135.84 241.387 133.59H238.961ZM235.832 126.078C237.695 126.078 238.914 127.426 238.973 129.488H232.527C232.668 127.438 233.969 126.078 235.832 126.078ZM248.09 137.211C249.766 137.211 251.16 136.484 251.922 135.195H252.121V137H254.547V128.293C254.547 125.621 252.742 124.027 249.543 124.027C246.648 124.027 244.586 125.422 244.328 127.566H246.766C247.047 126.641 248.02 126.113 249.426 126.113C251.148 126.113 252.039 126.898 252.039 128.293V129.406L248.582 129.617C245.547 129.805 243.836 131.129 243.836 133.414C243.836 135.734 245.629 137.211 248.09 137.211ZM248.734 135.184C247.363 135.184 246.367 134.492 246.367 133.309C246.367 132.148 247.164 131.527 248.922 131.41L252.039 131.199V132.301C252.039 133.941 250.633 135.184 248.734 135.184ZM263.512 141.863C267.121 141.863 269.406 140.023 269.406 137.129V124.273H266.992V126.301H266.793C266.078 124.918 264.543 124.051 262.785 124.051C259.527 124.051 257.488 126.617 257.488 130.473C257.488 134.293 259.504 136.812 262.762 136.812C264.52 136.812 265.926 136.051 266.699 134.668H266.887V137.117C266.887 138.84 265.645 139.871 263.547 139.871C261.848 139.871 260.781 139.262 260.57 138.301H257.992C258.262 140.445 260.324 141.863 263.512 141.863ZM263.477 134.727C261.309 134.727 260.09 133.074 260.09 130.473C260.09 127.871 261.309 126.207 263.477 126.207C265.621 126.207 266.934 127.871 266.934 130.473C266.934 133.074 265.633 134.727 263.477 134.727ZM283.82 124.273H281.301V131.738C281.301 133.789 280.188 135.031 278.148 135.031C276.297 135.031 275.465 134.023 275.465 131.914V124.273H272.945V132.535C272.945 135.523 274.516 137.246 277.34 137.246C279.273 137.246 280.574 136.426 281.195 134.984H281.395V137H283.82V124.273ZM295.844 133.59C295.375 134.621 294.332 135.184 292.809 135.184C290.793 135.184 289.492 133.73 289.41 131.422V131.305H298.422V130.438C298.422 126.453 296.277 124.027 292.727 124.027C289.129 124.027 286.844 126.617 286.844 130.66C286.844 134.727 289.082 137.246 292.738 137.246C295.656 137.246 297.719 135.84 298.27 133.59H295.844ZM292.715 126.078C294.578 126.078 295.797 127.426 295.855 129.488H289.41C289.551 127.438 290.852 126.078 292.715 126.078ZM301.961 140.609L308.043 119.281H305.816L299.746 140.609H301.961ZM320.758 128.363C320.43 125.891 318.496 124.027 315.297 124.027C311.582 124.027 309.32 126.547 309.32 130.59C309.32 134.715 311.594 137.246 315.309 137.246C318.461 137.246 320.43 135.477 320.758 132.969H318.309C317.98 134.352 316.891 135.102 315.297 135.102C313.199 135.102 311.898 133.402 311.898 130.59C311.898 127.836 313.188 126.172 315.297 126.172C316.984 126.172 318.016 127.121 318.309 128.363H320.758ZM329.031 137.246C332.758 137.246 335.043 134.75 335.043 130.637C335.043 126.523 332.746 124.027 329.031 124.027C325.305 124.027 323.008 126.535 323.008 130.637C323.008 134.75 325.293 137.246 329.031 137.246ZM329.031 135.102C326.84 135.102 325.609 133.473 325.609 130.637C325.609 127.801 326.84 126.16 329.031 126.16C331.211 126.16 332.453 127.801 332.453 130.637C332.453 133.461 331.211 135.102 329.031 135.102ZM338.078 137H340.598V129.184C340.598 127.52 341.758 126.219 343.293 126.219C344.793 126.219 345.754 127.121 345.754 128.574V137H348.227V128.949C348.227 127.414 349.293 126.219 350.922 126.219C352.574 126.219 353.395 127.074 353.395 128.832V137H355.914V128.223C355.914 125.574 354.414 124.027 351.836 124.027C350.066 124.027 348.602 124.93 347.957 126.301H347.758C347.195 124.93 345.988 124.027 344.242 124.027C342.543 124.027 341.254 124.871 340.691 126.301H340.504V124.273H338.078V137ZM359.453 137H361.973V129.184C361.973 127.52 363.133 126.219 364.668 126.219C366.168 126.219 367.129 127.121 367.129 128.574V137H369.602V128.949C369.602 127.414 370.668 126.219 372.297 126.219C373.949 126.219 374.77 127.074 374.77 128.832V137H377.289V128.223C377.289 125.574 375.789 124.027 373.211 124.027C371.441 124.027 369.977 124.93 369.332 126.301H369.133C368.57 124.93 367.363 124.027 365.617 124.027C363.918 124.027 362.629 124.871 362.066 126.301H361.879V124.273H359.453V137ZM386.219 137.246C389.945 137.246 392.23 134.75 392.23 130.637C392.23 126.523 389.934 124.027 386.219 124.027C382.492 124.027 380.195 126.535 380.195 130.637C380.195 134.75 382.48 137.246 386.219 137.246ZM386.219 135.102C384.027 135.102 382.797 133.473 382.797 130.637C382.797 127.801 384.027 126.16 386.219 126.16C388.398 126.16 389.641 127.801 389.641 130.637C389.641 133.461 388.398 135.102 386.219 135.102ZM395.266 137H397.785V129.535C397.785 127.484 398.969 126.219 400.832 126.219C402.695 126.219 403.586 127.25 403.586 129.359V137H406.105V128.762C406.105 125.727 404.535 124.027 401.688 124.027C399.766 124.027 398.5 124.883 397.879 126.289H397.691V124.273H395.266V137ZM409.656 137H412.176V129.184C412.176 127.52 413.336 126.219 414.871 126.219C416.371 126.219 417.332 127.121 417.332 128.574V137H419.805V128.949C419.805 127.414 420.871 126.219 422.5 126.219C424.152 126.219 424.973 127.074 424.973 128.832V137H427.492V128.223C427.492 125.574 425.992 124.027 423.414 124.027C421.645 124.027 420.18 124.93 419.535 126.301H419.336C418.773 124.93 417.566 124.027 415.82 124.027C414.121 124.027 412.832 124.871 412.27 126.301H412.082V124.273H409.656V137ZM434.559 137.211C436.234 137.211 437.629 136.484 438.391 135.195H438.59V137H441.016V128.293C441.016 125.621 439.211 124.027 436.012 124.027C433.117 124.027 431.055 125.422 430.797 127.566H433.234C433.516 126.641 434.488 126.113 435.895 126.113C437.617 126.113 438.508 126.898 438.508 128.293V129.406L435.051 129.617C432.016 129.805 430.305 131.129 430.305 133.414C430.305 135.734 432.098 137.211 434.559 137.211ZM435.203 135.184C433.832 135.184 432.836 134.492 432.836 133.309C432.836 132.148 433.633 131.527 435.391 131.41L438.508 131.199V132.301C438.508 133.941 437.102 135.184 435.203 135.184ZM444.602 137H447.121V129.395C447.121 127.602 448.469 126.371 450.379 126.371C450.824 126.371 451.574 126.453 451.785 126.512V124.145C451.516 124.086 451.035 124.051 450.66 124.051C448.996 124.051 447.578 124.953 447.215 126.207H447.027V124.273H444.602V137ZM457.047 129.641H456.848V119.281H454.328V137H456.848V132.371L457.961 131.305L462.344 137H465.438L459.836 129.723L465.086 124.273H462.109L457.047 129.641Z" fill="#0366D6"/>
<path d="M173.746 199.496H177.449L180.895 206H183.93L180.133 199.086C182.195 198.395 183.414 196.543 183.414 194.258C183.414 191.105 181.223 189.09 177.812 189.09H171.121V206H173.746V199.496ZM173.746 191.293H177.449C179.477 191.293 180.719 192.43 180.719 194.316C180.719 196.25 179.547 197.34 177.52 197.34H173.746V191.293ZM194.852 202.59C194.383 203.621 193.34 204.184 191.816 204.184C189.801 204.184 188.5 202.73 188.418 200.422V200.305H197.43V199.438C197.43 195.453 195.285 193.027 191.734 193.027C188.137 193.027 185.852 195.617 185.852 199.66C185.852 203.727 188.09 206.246 191.746 206.246C194.664 206.246 196.727 204.84 197.277 202.59H194.852ZM191.723 195.078C193.586 195.078 194.805 196.426 194.863 198.488H188.418C188.559 196.438 189.859 195.078 191.723 195.078ZM200.57 206H203.09V188.281H200.57V206ZM215.242 202.59C214.773 203.621 213.73 204.184 212.207 204.184C210.191 204.184 208.891 202.73 208.809 200.422V200.305H217.82V199.438C217.82 195.453 215.676 193.027 212.125 193.027C208.527 193.027 206.242 195.617 206.242 199.66C206.242 203.727 208.48 206.246 212.137 206.246C215.055 206.246 217.117 204.84 217.668 202.59H215.242ZM212.113 195.078C213.977 195.078 215.195 196.426 215.254 198.488H208.809C208.949 196.438 210.25 195.078 212.113 195.078ZM224.371 206.211C226.047 206.211 227.441 205.484 228.203 204.195H228.402V206H230.828V197.293C230.828 194.621 229.023 193.027 225.824 193.027C222.93 193.027 220.867 194.422 220.609 196.566H223.047C223.328 195.641 224.301 195.113 225.707 195.113C227.43 195.113 228.32 195.898 228.32 197.293V198.406L224.863 198.617C221.828 198.805 220.117 200.129 220.117 202.414C220.117 204.734 221.91 206.211 224.371 206.211ZM225.016 204.184C223.645 204.184 222.648 203.492 222.648 202.309C222.648 201.148 223.445 200.527 225.203 200.41L228.32 200.199V201.301C228.32 202.941 226.914 204.184 225.016 204.184ZM234.121 196.836C234.121 198.723 235.246 199.801 237.672 200.363L239.898 200.891C241.176 201.195 241.773 201.711 241.773 202.508C241.773 203.551 240.66 204.277 239.09 204.277C237.566 204.277 236.629 203.656 236.312 202.66H233.793C234.016 204.875 235.996 206.246 239.031 206.246C242.078 206.246 244.316 204.641 244.316 202.273C244.316 200.422 243.18 199.379 240.754 198.816L238.633 198.324C237.25 197.996 236.605 197.504 236.605 196.719C236.605 195.688 237.672 194.996 239.078 194.996C240.508 194.996 241.422 195.617 241.656 196.566H244.07C243.824 194.363 241.949 193.027 239.078 193.027C236.195 193.027 234.121 194.621 234.121 196.836ZM255.719 202.59C255.25 203.621 254.207 204.184 252.684 204.184C250.668 204.184 249.367 202.73 249.285 200.422V200.305H258.297V199.438C258.297 195.453 256.152 193.027 252.602 193.027C249.004 193.027 246.719 195.617 246.719 199.66C246.719 203.727 248.957 206.246 252.613 206.246C255.531 206.246 257.594 204.84 258.145 202.59H255.719ZM252.59 195.078C254.453 195.078 255.672 196.426 255.73 198.488H249.285C249.426 196.438 250.727 195.078 252.59 195.078ZM267.883 206H270.402V198.535C270.402 196.484 271.586 195.219 273.449 195.219C275.312 195.219 276.203 196.25 276.203 198.359V206H278.723V197.762C278.723 194.727 277.152 193.027 274.305 193.027C272.383 193.027 271.117 193.883 270.496 195.289H270.309V193.273H267.883V206ZM287.664 206.246C291.391 206.246 293.676 203.75 293.676 199.637C293.676 195.523 291.379 193.027 287.664 193.027C283.938 193.027 281.641 195.535 281.641 199.637C281.641 203.75 283.926 206.246 287.664 206.246ZM287.664 204.102C285.473 204.102 284.242 202.473 284.242 199.637C284.242 196.801 285.473 195.16 287.664 195.16C289.844 195.16 291.086 196.801 291.086 199.637C291.086 202.461 289.844 204.102 287.664 204.102ZM297.602 190.062V193.309H295.574V195.324H297.602V202.648C297.602 205.098 298.715 206.082 301.516 206.082C302.008 206.082 302.477 206.023 302.887 205.953V203.949C302.535 203.984 302.312 204.008 301.926 204.008C300.672 204.008 300.121 203.41 300.121 202.039V195.324H302.887V193.309H300.121V190.062H297.602ZM314.078 202.59C313.609 203.621 312.566 204.184 311.043 204.184C309.027 204.184 307.727 202.73 307.645 200.422V200.305H316.656V199.438C316.656 195.453 314.512 193.027 310.961 193.027C307.363 193.027 305.078 195.617 305.078 199.66C305.078 203.727 307.316 206.246 310.973 206.246C313.891 206.246 315.953 204.84 316.504 202.59H314.078ZM310.949 195.078C312.812 195.078 314.031 196.426 314.09 198.488H307.645C307.785 196.438 309.086 195.078 310.949 195.078ZM319.387 196.836C319.387 198.723 320.512 199.801 322.938 200.363L325.164 200.891C326.441 201.195 327.039 201.711 327.039 202.508C327.039 203.551 325.926 204.277 324.355 204.277C322.832 204.277 321.895 203.656 321.578 202.66H319.059C319.281 204.875 321.262 206.246 324.297 206.246C327.344 206.246 329.582 204.641 329.582 202.273C329.582 200.422 328.445 199.379 326.02 198.816L323.898 198.324C322.516 197.996 321.871 197.504 321.871 196.719C321.871 195.688 322.938 194.996 324.344 194.996C325.773 194.996 326.688 195.617 326.922 196.566H329.336C329.09 194.363 327.215 193.027 324.344 193.027C321.461 193.027 319.387 194.621 319.387 196.836Z" fill="#24292E"/>
<path d="M178.059 275.41C181.832 275.41 184.609 273.242 185.078 269.949H182.465C181.996 271.871 180.297 273.078 178.059 273.078C175.012 273.078 173.113 270.57 173.113 266.551C173.113 262.531 175.012 260.012 178.047 260.012C180.273 260.012 181.973 261.348 182.465 263.445H185.078C184.656 260.059 181.773 257.68 178.047 257.68C173.348 257.68 170.43 261.078 170.43 266.551C170.43 272.012 173.359 275.41 178.059 275.41ZM188.359 275H190.879V267.547C190.879 265.555 192.027 264.23 194.09 264.23C195.871 264.23 196.82 265.273 196.82 267.371V275H199.34V266.773C199.34 263.762 197.664 262.039 194.945 262.039C193.023 262.039 191.676 262.883 191.055 264.301H190.855V257.281H188.359V275ZM206.418 275.211C208.094 275.211 209.488 274.484 210.25 273.195H210.449V275H212.875V266.293C212.875 263.621 211.07 262.027 207.871 262.027C204.977 262.027 202.914 263.422 202.656 265.566H205.094C205.375 264.641 206.348 264.113 207.754 264.113C209.477 264.113 210.367 264.898 210.367 266.293V267.406L206.91 267.617C203.875 267.805 202.164 269.129 202.164 271.414C202.164 273.734 203.957 275.211 206.418 275.211ZM207.062 273.184C205.691 273.184 204.695 272.492 204.695 271.309C204.695 270.148 205.492 269.527 207.25 269.41L210.367 269.199V270.301C210.367 271.941 208.961 273.184 207.062 273.184ZM216.461 275H218.98V267.535C218.98 265.484 220.164 264.219 222.027 264.219C223.891 264.219 224.781 265.25 224.781 267.359V275H227.301V266.762C227.301 263.727 225.73 262.027 222.883 262.027C220.961 262.027 219.695 262.883 219.074 264.289H218.887V262.273H216.461V275ZM236.23 279.863C239.84 279.863 242.125 278.023 242.125 275.129V262.273H239.711V264.301H239.512C238.797 262.918 237.262 262.051 235.504 262.051C232.246 262.051 230.207 264.617 230.207 268.473C230.207 272.293 232.223 274.812 235.48 274.812C237.238 274.812 238.645 274.051 239.418 272.668H239.605V275.117C239.605 276.84 238.363 277.871 236.266 277.871C234.566 277.871 233.5 277.262 233.289 276.301H230.711C230.98 278.445 233.043 279.863 236.23 279.863ZM236.195 272.727C234.027 272.727 232.809 271.074 232.809 268.473C232.809 265.871 234.027 264.207 236.195 264.207C238.34 264.207 239.652 265.871 239.652 268.473C239.652 271.074 238.352 272.727 236.195 272.727ZM254.148 271.59C253.68 272.621 252.637 273.184 251.113 273.184C249.098 273.184 247.797 271.73 247.715 269.422V269.305H256.727V268.438C256.727 264.453 254.582 262.027 251.031 262.027C247.434 262.027 245.148 264.617 245.148 268.66C245.148 272.727 247.387 275.246 251.043 275.246C253.961 275.246 256.023 273.84 256.574 271.59H254.148ZM251.02 264.078C252.883 264.078 254.102 265.426 254.16 267.488H247.715C247.855 265.438 249.156 264.078 251.02 264.078ZM259.867 275H262.387V257.281H259.867V275ZM271.562 275.246C275.289 275.246 277.574 272.75 277.574 268.637C277.574 264.523 275.277 262.027 271.562 262.027C267.836 262.027 265.539 264.535 265.539 268.637C265.539 272.75 267.824 275.246 271.562 275.246ZM271.562 273.102C269.371 273.102 268.141 271.473 268.141 268.637C268.141 265.801 269.371 264.16 271.562 264.16C273.742 264.16 274.984 265.801 274.984 268.637C274.984 271.461 273.742 273.102 271.562 273.102ZM285.988 279.863C289.598 279.863 291.883 278.023 291.883 275.129V262.273H289.469V264.301H289.27C288.555 262.918 287.02 262.051 285.262 262.051C282.004 262.051 279.965 264.617 279.965 268.473C279.965 272.293 281.98 274.812 285.238 274.812C286.996 274.812 288.402 274.051 289.176 272.668H289.363V275.117C289.363 276.84 288.121 277.871 286.023 277.871C284.324 277.871 283.258 277.262 283.047 276.301H280.469C280.738 278.445 282.801 279.863 285.988 279.863ZM285.953 272.727C283.785 272.727 282.566 271.074 282.566 268.473C282.566 265.871 283.785 264.207 285.953 264.207C288.098 264.207 289.41 265.871 289.41 268.473C289.41 271.074 288.109 272.727 285.953 272.727Z" fill="#24292E"/>
<path d="M178.059 344.41C181.832 344.41 184.609 342.242 185.078 338.949H182.465C181.996 340.871 180.297 342.078 178.059 342.078C175.012 342.078 173.113 339.57 173.113 335.551C173.113 331.531 175.012 329.012 178.047 329.012C180.273 329.012 181.973 330.348 182.465 332.445H185.078C184.656 329.059 181.773 326.68 178.047 326.68C173.348 326.68 170.43 330.078 170.43 335.551C170.43 341.012 173.359 344.41 178.059 344.41ZM193.633 344.246C197.359 344.246 199.645 341.75 199.645 337.637C199.645 333.523 197.348 331.027 193.633 331.027C189.906 331.027 187.609 333.535 187.609 337.637C187.609 341.75 189.895 344.246 193.633 344.246ZM193.633 342.102C191.441 342.102 190.211 340.473 190.211 337.637C190.211 334.801 191.441 333.16 193.633 333.16C195.812 333.16 197.055 334.801 197.055 337.637C197.055 340.461 195.812 342.102 193.633 342.102ZM202.68 344H205.199V336.184C205.199 334.52 206.359 333.219 207.895 333.219C209.395 333.219 210.355 334.121 210.355 335.574V344H212.828V335.949C212.828 334.414 213.895 333.219 215.523 333.219C217.176 333.219 217.996 334.074 217.996 335.832V344H220.516V335.223C220.516 332.574 219.016 331.027 216.438 331.027C214.668 331.027 213.203 331.93 212.559 333.301H212.359C211.797 331.93 210.59 331.027 208.844 331.027C207.145 331.027 205.855 331.871 205.293 333.301H205.105V331.273H202.68V344ZM224.055 344H226.574V336.184C226.574 334.52 227.734 333.219 229.27 333.219C230.77 333.219 231.73 334.121 231.73 335.574V344H234.203V335.949C234.203 334.414 235.27 333.219 236.898 333.219C238.551 333.219 239.371 334.074 239.371 335.832V344H241.891V335.223C241.891 332.574 240.391 331.027 237.812 331.027C236.043 331.027 234.578 331.93 233.934 333.301H233.734C233.172 331.93 231.965 331.027 230.219 331.027C228.52 331.027 227.23 331.871 226.668 333.301H226.48V331.273H224.055V344ZM246.73 329C247.609 329 248.324 328.285 248.324 327.418C248.324 326.539 247.609 325.824 246.73 325.824C245.852 325.824 245.137 326.539 245.137 327.418C245.137 328.285 245.852 329 246.73 329ZM245.477 344H247.984V331.273H245.477V344ZM252.578 328.062V331.309H250.551V333.324H252.578V340.648C252.578 343.098 253.691 344.082 256.492 344.082C256.984 344.082 257.453 344.023 257.863 343.953V341.949C257.512 341.984 257.289 342.008 256.902 342.008C255.648 342.008 255.098 341.41 255.098 340.039V333.324H257.863V331.309H255.098V328.062H252.578ZM260.348 334.836C260.348 336.723 261.473 337.801 263.898 338.363L266.125 338.891C267.402 339.195 268 339.711 268 340.508C268 341.551 266.887 342.277 265.316 342.277C263.793 342.277 262.855 341.656 262.539 340.66H260.02C260.242 342.875 262.223 344.246 265.258 344.246C268.305 344.246 270.543 342.641 270.543 340.273C270.543 338.422 269.406 337.379 266.98 336.816L264.859 336.324C263.477 335.996 262.832 335.504 262.832 334.719C262.832 333.688 263.898 332.996 265.305 332.996C266.734 332.996 267.648 333.617 267.883 334.566H270.297C270.051 332.363 268.176 331.027 265.305 331.027C262.422 331.027 260.348 332.621 260.348 334.836Z" fill="#24292E"/>
<path d="M156 197L141 205.66L141 188.34L156 197Z" fill="#24292E"/>
<path d="M156 266L141 274.66L141 257.34L156 266Z" fill="#24292E"/>
<path d="M156 335L141 343.66L141 326.34L156 335Z" fill="#24292E"/>
<rect y="13.5989" width="80" height="80.4863" rx="6" fill="#2867CF"/>
<path d="M43 38.7509V35.7327H38C37.7348 35.7327 37.4804 35.6267 37.2929 35.438C37.1054 35.2493 37 34.9934 37 34.7266V27.6841C37 27.4172 37.1054 27.1613 37.2929 26.9727C37.4804 26.784 37.7348 26.678 38 26.678H45C45.2652 26.678 45.5196 26.784 45.7071 26.9727C45.8946 27.1613 46 27.4172 46 27.6841V38.7509H61C61.7957 38.7509 62.5587 39.0689 63.1213 39.635C63.6839 40.201 64 40.9687 64 41.7692V53.8421H66C66.2652 53.8421 66.5196 53.9481 66.7071 54.1368C66.8946 54.3255 67 54.5814 67 54.8482V64.909C67 65.1758 66.8946 65.4317 66.7071 65.6204C66.5196 65.8091 66.2652 65.9151 66 65.9151H64V71.9515C64 72.752 63.6839 73.5197 63.1213 74.0858C62.5587 74.6518 61.7957 74.9698 61 74.9698H19C18.2044 74.9698 17.4413 74.6518 16.8787 74.0858C16.3161 73.5197 16 72.752 16 71.9515V65.9151H14C13.7348 65.9151 13.4804 65.8091 13.2929 65.6204C13.1054 65.4317 13 65.1758 13 64.909V54.8482C13 54.5814 13.1054 54.3255 13.2929 54.1368C13.4804 53.9481 13.7348 53.8421 14 53.8421H16V41.7692C16 40.9687 16.3161 40.201 16.8787 39.635C17.4413 39.0689 18.2044 38.7509 19 38.7509H43Z" fill="white"/>
<path d="M48.1431 62.5374C48.37 62.7656 48.6777 62.8938 48.9986 62.8938C49.3194 62.8938 49.6272 62.7656 49.8541 62.5374L56.1441 56.2111C56.2565 56.0981 56.3458 55.9638 56.4067 55.816C56.4675 55.6683 56.4989 55.5099 56.4989 55.3499C56.4989 55.1899 56.4675 55.0316 56.4067 54.8838C56.3458 54.736 56.2565 54.6018 56.1441 54.4887L54.8541 53.1929C54.6272 52.9649 54.3197 52.8369 53.9991 52.8369C53.6785 52.8369 53.3709 52.9649 53.1441 53.1929L48.9991 57.3621L47.3541 55.7081C47.1272 55.4801 46.8197 55.3521 46.4991 55.3521C46.1785 55.3521 45.8709 55.4801 45.6441 55.7081L44.3541 57.0039C44.2416 57.117 44.1524 57.2512 44.0915 57.399C44.0306 57.5468 43.9993 57.7052 43.9993 57.8651C43.9993 58.0251 44.0306 58.1835 44.0915 58.3312C44.1524 58.479 44.2416 58.6133 44.3541 58.7263L48.1441 62.5374H48.1431ZM28.1431 62.5374C28.37 62.7656 28.6777 62.8938 28.9986 62.8938C29.3194 62.8938 29.6272 62.7656 29.8541 62.5374L36.1441 56.2111C36.2565 56.0981 36.3458 55.9638 36.4067 55.816C36.4675 55.6683 36.4989 55.5099 36.4989 55.3499C36.4989 55.1899 36.4675 55.0316 36.4067 54.8838C36.3458 54.736 36.2565 54.6018 36.1441 54.4887L34.8541 53.1929C34.6272 52.9649 34.3197 52.8369 33.9991 52.8369C33.6785 52.8369 33.3709 52.9649 33.1441 53.1929L28.9991 57.3621L27.3541 55.7081C27.1272 55.4801 26.8197 55.3521 26.4991 55.3521C26.1785 55.3521 25.8709 55.4801 25.6441 55.7081L24.3541 57.0039C24.2416 57.117 24.1524 57.2512 24.0915 57.399C24.0306 57.5468 23.9993 57.7052 23.9993 57.8651C23.9993 58.0251 24.0306 58.1835 24.0915 58.3312C24.1524 58.479 24.2416 58.6133 24.3541 58.7263L28.1441 62.5374H28.1431Z" fill="#0366D6"/>
<rect x="54" y="62.8967" width="40" height="40.2432" rx="6" fill="#010101"/>
<rect x="52.5" y="61.3967" width="43" height="43.2432" rx="7.5" stroke="white" stroke-opacity="0.8" stroke-width="3"/>
<path fill-rule="evenodd" clip-rule="evenodd" d="M73.5 67.9272C64.9362 67.9272 58 74.8514 58 83.4001C58 90.2469 62.4369 96.0299 68.5981 98.0801C69.3731 98.2154 69.6637 97.7513 69.6637 97.3451C69.6637 96.9776 69.6444 95.7591 69.6444 94.4633C65.75 95.1789 64.7425 93.5156 64.4325 92.6452C64.2581 92.2004 63.5025 90.8271 62.8438 90.4597C62.3012 90.1695 61.5262 89.4539 62.8244 89.4346C64.045 89.4152 64.9169 90.5564 65.2075 91.0205C66.6025 93.3608 68.8306 92.7032 69.7219 92.2971C69.8575 91.2913 70.2644 90.6144 70.71 90.2276C67.2612 89.8407 63.6575 88.5062 63.6575 82.5878C63.6575 80.9051 64.2581 79.5126 65.2463 78.4295C65.0912 78.0427 64.5487 76.4567 65.4012 74.3292C65.4012 74.3292 66.6994 73.923 69.6637 75.9151C70.9037 75.567 72.2213 75.3929 73.5388 75.3929C74.8563 75.3929 76.1738 75.567 77.4138 75.9151C80.3781 73.9037 81.6763 74.3292 81.6763 74.3292C82.5288 76.4567 81.9862 78.0427 81.8313 78.4295C82.8194 79.5126 83.42 80.8858 83.42 82.5878C83.42 88.5255 79.7969 89.8407 76.3481 90.2276C76.91 90.7111 77.3944 91.6395 77.3944 93.0901C77.3944 95.1596 77.375 96.8229 77.375 97.3451C77.375 97.7513 77.6656 98.2348 78.4406 98.0801C81.5177 97.0431 84.1915 95.069 86.0857 92.4356C87.9799 89.8022 88.9992 86.6421 89 83.4001C89 74.8514 82.0637 67.9272 73.5 67.9272Z" fill="white"/>
<defs>
<filter id="filter0_d" x="84.5368" y="0.357895" width="860.926" height="408.926" filterUnits="userSpaceOnUse" color-interpolation-filters="sRGB">
<feFlood flood-opacity="0" result="BackgroundImageFix"/>
<feColorMatrix in="SourceAlpha" type="matrix" values="0 0 0 0 0 0 0 0 0 0 0 0 0 0 0 0 0 0 127 0"/>
<feOffset dy="6.82105"/>
<feGaussianBlur stdDeviation="10.2316"/>
<feColorMatrix type="matrix" values="0 0 0 0 0.105882 0 0 0 0 0.121569 0 0 0 0 0.137255 0 0 0 0.15 0"/>
<feBlend mode="normal" in2="BackgroundImageFix" result="effect1_dropShadow"/>
<feBlend mode="normal" in="SourceGraphic" in2="effect1_dropShadow" result="shape"/>
</filter>
</defs>
</svg>
