<svg fill="none" height="42" viewBox="0 0 148 42" width="148" xmlns="http://www.w3.org/2000/svg"><g fill="#8b949e"><path d="m32.485 7.82995c-.147-.013-3.039-.057-3.039-.057s-2.418-2.351-2.657-2.59c-.0925-.08636-.2103-.1407-.336-.155l.001 35.96305 10.838-2.696s-4.422-29.92905-4.45-30.13405c-.0138-.0873-.0564-.16745-.1212-.22764-.0647-.06019-.1477-.09593-.2358-.10336z"/><path clip-rule="evenodd" d="m32.485 7.832c.088.00746.1709.04425.2354.10445.0646.0602.107.14033.1206.22755.028.205 4.45 30.135 4.45 30.135l-10.838 2.697-25.00799-4.33s2.985-23.098 3.095-23.911c.149-1.076.185-1.111 1.325-1.47l2.015-.625 1.86-.576c.24-1.73 1.09099-3.963 2.20999-5.741 1.588-2.527 3.548-3.949999 5.515-4.005999 1.02-.03 1.871.316 2.535 1.025999.047.052.092.105.137.16l.034-.003c.095-.009.188-.017.283-.017h.006c1.523.003 2.784.872 3.645 2.517.267.51.454 1.018.582 1.43l.52-.16.694-.216c.182-.054.648-.127.887.113.24.239 2.658 2.59 2.658 2.59s2.891.044 3.039.056zm-10.29-1.61 1.24-.384c-.31-1.009-1.045-2.7-2.538-2.983.464 1.2.583 2.587.597 3.584zm-6.185 1.917 4.175-1.294c.013-1.089-.105-2.698-.65-3.836-.579.24-1.068.658-1.417 1.034-.94 1.01-1.705 2.55-2.108 4.096zm2.677-6.182c-.332-.219-.721-.32-1.183-.31-3.037.088-5.686 4.836-6.364 8l1.945-.602 1.484-.46c.382-2.01 1.34-4.094 2.59-5.437.4376-.48133.9544-.88415 1.528-1.191zm.501 16.168 1.259-4.714s-1.085-.542-3.206-.405c-5.505.347-7.99999 4.2-7.75999 8.004.16 2.538 1.65399 3.6 2.96399 4.53 1.021.726 1.93 1.371 2.007 2.577.041.664-.371 1.604-1.525 1.677-1.767.112-3.97499-1.556-3.97499-1.556l-.844 3.595s2.19299 2.352 6.17699 2.1c3.319-.21 5.622-2.867 5.378-6.753-.189-2.987-2.29-4.336-3.95-5.402-1.086-.696-1.983-1.272-2.035-2.105-.025-.387 0-1.928 2.442-2.083 1.664-.105 3.068.535 3.068.535z" fill-rule="evenodd"/><path d="m51.56 23.283c-1.247-.677-1.887-1.247-1.887-2.032 0-.998.89-1.639 2.279-1.639 1.617 0 3.061.677 3.061.677l1.14-3.493s-1.048-.82-4.13-.82c-4.29 0-7.264 2.459-7.264 5.916 0 1.96 1.388 3.458 3.24 4.526 1.496.855 2.03 1.462 2.03 2.352 0 .927-.748 1.675-2.136 1.675-2.069 0-4.022-1.07-4.022-1.07l-1.21 3.494s1.804 1.212 4.841 1.212c4.415 0 7.584-2.174 7.584-6.095-.001-2.101-1.603-3.599-3.527-4.703zm17.588-7.342c-2.172 0-3.88 1.034-5.197 2.602l-.072-.036 1.887-9.87205h-4.914l-4.77 25.12605h4.913l1.638-8.589c.64-3.243 2.314-5.238 3.88-5.238 1.104 0 1.532.748 1.532 1.818 0 .677-.072 1.497-.213 2.174l-1.851 9.836h4.913l1.922-10.157c.214-1.07.357-2.352.357-3.208-.002-2.78-1.462-4.455-4.025-4.455zm15.13 0c-5.91 0-9.825 5.347-9.825 11.299 0 3.813 2.35 6.878 6.764 6.878 5.804 0 9.72-5.203 9.72-11.298 0-3.528-2.066-6.878-6.658-6.878zm-2.42 14.4c-1.674 0-2.386-1.425-2.386-3.208 0-2.815 1.46-7.412 4.13-7.412 1.745 0 2.314 1.497 2.314 2.958 0 3.029-1.458 7.662-4.058 7.662zm21.642-14.4c-3.317 0-5.199 2.923-5.199 2.923h-.07l.285-2.637h-4.344c-.213 1.783-.605 4.49-.996 6.522l-3.418 17.998h4.913l1.352-7.27h.108s1.008.64 2.884.64c5.767 0 9.541-5.915 9.541-11.904 0-3.313-1.461-6.271-5.056-6.271zm-4.7 14.47c-1.275 0-2.03-.712-2.03-.712l.82-4.598c.57-3.064 2.17-5.096 3.88-5.096 1.496 0 1.958 1.39 1.958 2.709 0 3.172-1.887 7.698-4.628 7.698zm16.77-21.52705c-1.566 0-2.812 1.24705-2.812 2.85005 0 1.462.925 2.46 2.314 2.46h.071c1.531 0 2.848-1.034 2.884-2.85 0-1.42605-.962-2.46005-2.457-2.46005zm-6.859 24.87605h4.912l3.348-17.427h-4.95zm20.751-17.462h-3.418l.177-.82c.285-1.676 1.282-3.173 2.92-3.173.874 0 1.566.25 1.566.25l.961-3.85005s-.854-.427-2.671-.427c-1.744 0-3.488.5-4.806 1.64-1.673 1.42505-2.456 3.49205-2.848 5.56005l-.141.82h-2.28l-.712 3.707h2.28l-2.599 13.756h4.913l2.599-13.757h3.382zm11.812.035s-3.071 7.747-4.45 11.975h-.072c-.093-1.362-1.211-11.975-1.211-11.975h-5.162l2.956 16.002c.072.356.036.57-.107.82-.57 1.105-1.531 2.174-2.67 2.959-.926.676-1.958 1.104-2.777 1.39l1.353 4.17c.997-.214 3.061-1.035 4.806-2.674 2.243-2.102 4.307-5.346 6.443-9.766l6.017-12.902z"/></g></svg>