<svg fill="none" height="34" viewBox="0 0 167 34" width="167" xmlns="http://www.w3.org/2000/svg" xmlns:xlink="http://www.w3.org/1999/xlink"><clipPath id="a"><path d="m.5 0h166v34h-166z"/></clipPath><g clip-path="url(#a)"><path clip-rule="evenodd" d="m.5 0h32.694v32.694h-32.694zm5.94436 15.4553h21.06494v1.9463h-21.06494zm42.82534-13.05357c1.6027 0 3.5489.57242 5.2661 1.25932l.9159-1.94623c-1.9461-.915857-3.8924-1.488258-6.2965-1.488258-4.007 0-6.1821 1.602748-6.1821 3.892408 0 3.08569 3.5767 3.64881 6.6279 4.12918 2.2694.35729 4.248.6688 4.248 1.93835 0 1.1449-1.3738 1.9463-4.0069 1.9463-2.0607 0-4.0069-.5724-6.0676-1.7173l-1.0304 2.1752c2.4041 1.2593 4.4649 1.8317 7.098 1.8317 4.4648 0 6.64-1.8317 6.64-4.2359 0-3.41078-3.8616-4.05755-6.9827-4.58031-2.1169-.35456-3.8932-.65207-3.8932-1.7162 0-.91586 1.2593-1.48826 3.6635-1.48826zm17.4013 12.02317c-4.3504 0-7.8994-2.8621-7.8994-7.2125 0-4.23586 3.549-7.2124 7.8994-7.2124s7.8993 2.97654 7.8993 7.2124c-.1145 4.3504-3.5489 7.2125-7.8993 7.2125zm0-12.13524c-3.2055 0-5.2663 2.17516-5.2663 4.92274 0 2.74762 2.0608 4.9228 5.2663 4.9228s5.2662-2.0608 5.2662-4.9228c0-2.74758-2.0607-4.92274-5.2662-4.92274zm10.1889 4.92274c0 4.3504 3.4345 7.2125 8.0135 7.2125 2.6333 0 4.6941-.8015 6.2966-2.1752l-1.3733-1.9463c-1.145.916-2.8625 1.6028-4.9233 1.6028-3.32 0-5.3803-2.06068-5.3803-4.80826s2.0603-4.80828 5.3803-4.80828c2.0608 0 3.6641.80137 4.9233 1.71723l1.3733-1.94621c-1.7166-1.259312-3.6633-2.06068-6.2966-2.06068-4.579 0-8.0135 2.97654-8.0135 7.2124zm17.1726-6.755252h2.5183v13.623452h-2.5183zm6.1815 0v13.509052h12.823v-2.1753h-10.304v-3.54889h7.67v-2.28966h-7.67v-3.32004h9.845v-2.175162zm14.196 2.175162v-2.175162h13.624v2.175162h-5.61v11.33389h-2.518v-11.33389zm15.57-2.175162v13.509052h12.822v-2.1753h-10.304v-3.54889h7.671v-2.28966h-7.671v-3.32004h9.846v-2.175162zm-79.451 29.653352c1.3737 0 2.7475-.3434 3.8923-.8013v-3.8924h2.4042v5.2661c-1.7173 1.1449-4.1214 1.8318-6.411 1.8318-4.5794 0-8.0139-2.8621-8.0139-7.2124 0-4.2359 3.4345-7.2125 8.0139-7.2125 2.6331 0 4.5792.687 6.2965 2.0608l-1.3738 1.9462c-1.2593-.916-2.8621-1.6028-4.9227-1.6028-3.32-.1145-5.3808 2.0607-5.3808 4.8083 0 2.7475 2.0608 4.8082 5.4953 4.8082zm9.6164-11.5636v13.509h12.8221v-2.1752h-10.3034v-3.549h7.6703v-2.2897h-7.6703v-3.32h9.8454v-2.1751zm17.7449 13.5101h-2.5187v-13.6234h2.5187l8.8155 10.1889h.1142c-.1142-2.5186-.1142-4.6937-.1142-6.64v-3.5489h2.4042v13.6234h-2.5192l-8.8149-10.1889c.1144 2.0607.1144 5.4951.1144 6.6399zm14.768-13.5101v13.509h12.8227v-2.1752h-10.3035v-3.549h7.6695v-2.2897h-7.6695v-3.32h9.8445v-2.1751zm22.0957 8.5862h-4.007v5.0373h-2.519v-13.6235h8.701c2.862 0 4.694 1.8317 4.694 4.3503 0 2.4042-1.717 3.8924-3.893 4.2359l4.007 5.0373h-3.205zm1.832-2.2896c1.602 0 2.518-.8015 2.518-1.9463 0-1.2592-.801-2.0607-2.175-2.0607h-6.182v4.1214h5.839zm8.7 7.3269 1.603-3.32h7.213l1.602 3.32h2.748l-6.64-13.6235h-2.634l-6.64 13.6235zm5.267-11.1049 2.633 5.4952h-5.267zm9.845 10.9904v-13.509h2.519v11.3338h9.044v2.1752zm13.28-13.509v13.509h12.822v-2.1752h-10.303v-3.549h7.67v-2.2897h-7.67v-3.32h9.846v-2.1751z" fill="#8b949e" fill-rule="evenodd"/></g></svg>