<svg fill="none" height="40" viewBox="0 0 136 40" width="136" xmlns="http://www.w3.org/2000/svg" xmlns:xlink="http://www.w3.org/1999/xlink"><clipPath id="a"><path d="m.5 0h135v40h-135z"/></clipPath><g clip-path="url(#a)"><path d="m21.5361 0c-11.0654 0-20.0361 8.95446-20.0361 20.0001 0 11.0462 8.9707 19.9999 20.0361 19.9999 11.0666 0 20.0364-8.9537 20.0364-19.9999 0-11.04492-8.9696-20.0001-20.0364-20.0001zm9.1885 28.8459c-.3589.5875-1.1293.7738-1.7179.4132-4.7043-2.8684-10.6264-3.518-17.6007-1.9274-.6721.1529-1.342-.2675-1.49515-.9386-.15384-.6711.26555-1.3398.93935-1.4927 7.6323-1.7406 14.1791-.9911 19.4605 2.2307.5885.3606.7752 1.1273.4139 1.7148zm2.4524-5.4458c-.4522.7337-1.414.9654-2.1486.514-5.3857-3.3045-13.5953-4.2615-19.9655-2.3313-.8262.2491-1.69874-.2156-1.94948-1.0389-.24883-.8246.21699-1.694 1.04168-1.9448 7.2766-2.2039 16.3227-1.1363 22.5075 2.6575.7345.4514.9666 1.4113.5144 2.1435zm.2105-5.6708c-6.4575-3.8287-17.1117-4.1807-23.2771-2.3128-.99005.2997-2.03704-.2582-2.33707-1.2465-.30003-.9887.25839-2.0331 1.24916-2.3336 7.07751-2.14467 18.84291-1.7303 26.27761 2.6754.8925.5276 1.1844 1.6756.6556 2.5634-.5264.8889-1.6806 1.1819-2.5682.6541zm22.6242.7337c-3.4597-.8235-4.0746-1.4014-4.0746-2.6159 0-1.1473 1.0815-1.9195 2.6917-1.9195 1.5599 0 3.1056.5864 4.7277 1.7934.0479.0365.1101.0511.1699.0416.0622-.0091.1148-.0423.1507-.0922l1.6892-2.3769c.0694-.0979.0502-.2328-.0431-.3076-1.9308-1.5459-4.1032-2.2975-6.6442-2.2975-3.7348 0-6.3451 2.2376-6.3451 5.4391 0 3.4332 2.2514 4.6488 6.1418 5.5872 3.3089.7611 3.8688 1.3988 3.8688 2.5385 0 1.2634-1.1293 2.0492-2.9477 2.0492-2.0193 0-3.6678-.6807-5.5101-2.2713-.0454-.0406-.1077-.0573-.1651-.0549-.0622.0047-.1172.0334-.1555.0788l-1.8949 2.2498c-.079.0955-.0694.234.0215.3152 2.1438 1.9107 4.7804 2.9185 7.6275 2.9185 4.0244 0 6.6251-2.1948 6.6251-5.5934.0072-2.8676-1.7131-4.4558-5.9264-5.479zm15.0397-3.4057c-1.7442 0-3.1749.6859-4.3569 2.0914v-1.582c0-.1249-.1004-.2266-.2249-.2266h-3.0983c-.1245 0-.2249.1017-.2249.2266v17.5782c0 .1242.1004.2268.2249.2268h3.0983c.1245 0 .2249-.1026.2249-.2268v-5.5481c1.182 1.3208 2.6127 1.968 4.3569 1.968 3.242 0 6.5246-2.491 6.5246-7.253.0048-4.763-3.2779-7.2548-6.5222-7.2548zm2.9214 7.2545c0 2.4238-1.4954 4.1171-3.6391 4.1171-2.1175 0-3.7157-1.7697-3.7157-4.1171 0-2.3477 1.5982-4.117 3.7157-4.117 2.1078-.0002 3.6391 1.7311 3.6391 4.117zm12.0131-7.2545c-4.1751 0-7.4457 3.2089-7.4457 7.3063 0 4.0534 3.2491 7.2275 7.3954 7.2275 4.1894 0 7.4697-3.198 7.4697-7.2793 0-4.0676-3.2587-7.2545-7.4194-7.2545zm0 11.3955c-2.2203 0-3.8951-1.7816-3.8951-4.1422 0-2.3714 1.6173-4.0922 3.8448-4.0922 2.2347 0 3.9191 1.781 3.9191 4.144 0 2.3709-1.627 4.0904-3.8688 4.0904zm16.3341-11.1127h-3.4094v-3.4788c0-.1247-.1005-.2264-.2249-.2264h-3.0984c-.1244 0-.2273.1017-.2273.2264v3.4788h-1.4882c-.1244 0-.2249.1017-.2249.2266v2.6575c0 .1246.1005.2266.2249.2266h1.4882v6.8771c0 2.7776 1.3853 4.1867 4.12 4.1867 1.11 0 2.031-.2292 2.9-.7212.072-.0382.115-.1147.115-.1959v-2.5316c0-.0764-.041-.1504-.108-.191-.067-.043-.151-.0454-.22-.0096-.596.2986-1.172.4371-1.818.4371-.9934 0-1.4384-.4514-1.4384-1.4593v-6.3911h3.4094c.125 0 .225-.1017.225-.2266v-2.6573c.005-.1249-.096-.2266-.222-.2266zm11.877.0136v-.4273c0-1.257.483-1.8175 1.565-1.8175.646 0 1.165.128 1.746.3215.072.0224.146.0112.204-.0315.059-.0428.093-.1113.093-.1839v-2.6057c0-.0996-.062-.1877-.16-.2171-.613-.1822-1.398-.3692-2.575-.3692-2.859 0-4.373 1.6083-4.373 4.6493v.6544h-1.489c-.124 0-.227.1017-.227.2264v2.6711c0 .1246.103.2266.227.2266h1.489v10.6053c0 .1266.102.2269.227.2269h3.096c.127 0 .227-.1003.227-.2269v-10.6046h2.893l4.431 10.6046c-.503 1.1129-.998 1.335-1.673 1.335-.545 0-1.122-.1624-1.708-.4848-.055-.0286-.122-.0334-.179-.0167-.06.0215-.11.0645-.134.1218l-1.051 2.2999c-.05.1099-.007.2365.098.2938 1.096.5923 2.084.8455 3.307.8455 2.287 0 3.553-1.0652 4.666-3.9264l5.373-13.861c.029-.0697.019-.1486-.024-.2104-.04-.0614-.11-.0984-.184-.0984h-3.225c-.098 0-.184.0614-.215.1519l-3.305 9.418-3.617-9.4242c-.034-.0877-.117-.1457-.211-.1457zm-6.886-.0136h-3.098c-.125 0-.228.1017-.228.2266v13.4894c0 .1266.103.2269.228.2269h3.098c.125 0 .227-.1003.227-.2269v-13.4884c0-.1249-.1-.2276-.227-.2276zm-1.531-6.14251c-1.228 0-2.223.99161-2.223 2.21661 0 1.2256.995 2.2185 2.223 2.2185 1.227 0 2.22-.9929 2.22-2.2185 0-1.2247-.995-2.21661-2.22-2.21661zm27.136 10.47991c-1.225 0-2.179-.9828-2.179-2.1763 0-1.1934.966-2.1874 2.191-2.1874s2.18.9825 2.18 2.175c0 1.1935-.967 2.1887-2.192 2.1887zm.012-4.1473c-1.117 0-1.962.886-1.962 1.971 0 1.0846.84 1.9587 1.95 1.9587 1.118 0 1.962-.8854 1.962-1.9711 0-1.0845-.839-1.9586-1.95-1.9586zm.484 2.1824.617.8617h-.522l-.555-.7905h-.476v.7905h-.435v-2.2842h1.019c.534 0 .883.2716.883.7287.002.3745-.215.6033-.529.6938zm-.369-1.0305h-.567v.7224h.567c.283 0 .452-.1383.452-.3616 0-.235-.169-.3608-.452-.3608z" fill="#8b949e"/></g></svg>