<svg width="52" height="52" viewBox="0 0 52 52" fill="none" xmlns="http://www.w3.org/2000/svg">
<path d="M4 24H16" stroke="white" stroke-opacity="0.7" stroke-width="2" stroke-linecap="round"/>
<path d="M2 28H11" stroke="white" stroke-opacity="0.7" stroke-width="2" stroke-linecap="round"/>
<path d="M4 32H18" stroke="white" stroke-opacity="0.7" stroke-width="2" stroke-linecap="round"/>
<path d="M36 24H48" stroke="white" stroke-opacity="0.7" stroke-width="2" stroke-linecap="round"/>
<path d="M41 28H50" stroke="white" stroke-opacity="0.7" stroke-width="2" stroke-linecap="round"/>
<path d="M34 32H48" stroke="white" stroke-opacity="0.7" stroke-width="2" stroke-linecap="round"/>
<g filter="url(#filter0_d)">
<path fill-rule="evenodd" clip-rule="evenodd" d="M15 44C15 40.1341 11.8659 37 8 37C4.13406 37 1 40.1341 1 44C1 47.8659 4.13406 51 8 51C11.8659 51 15 47.8659 15 44ZM6.60758 41.1934C6.21706 40.8028 5.58389 40.8028 5.19337 41.1934C4.80285 41.5839 4.80285 42.2171 5.19337 42.6076L6.66019 44.0744L5.19337 45.5412C4.80285 45.9317 4.80285 46.5649 5.19337 46.9554C5.58389 47.346 6.21706 47.346 6.60758 46.9554L8.07441 45.4886L9.54123 46.9554C9.93175 47.346 10.5649 47.346 10.9554 46.9554C11.346 46.5649 11.346 45.9317 10.9554 45.5412L9.48862 44.0744L10.9554 42.6076C11.346 42.2171 11.346 41.5839 10.9554 41.1934C10.5649 40.8028 9.93175 40.8028 9.54123 41.1934L8.07441 42.6602L6.60758 41.1934Z" fill="white"/>
</g>
<path fill-rule="evenodd" clip-rule="evenodd" d="M26 28C26.5523 28 27 27.5523 27 27V24C27 23.4477 26.5523 23 26 23C25.4477 23 25 23.4477 25 24V27C25 27.5523 25.4477 28 26 28Z" fill="white"/>
<path fill-rule="evenodd" clip-rule="evenodd" d="M26 29C26.5523 29 27 29.4477 27 30C27 30.5523 26.5523 31 26 31C25.4477 31 25 30.5523 25 30C25 29.4477 25.4477 29 26 29Z" fill="white"/>
<path opacity="0.5" fill-rule="evenodd" clip-rule="evenodd" d="M37.2899 6H6.86957C6.38932 6 6 6.40701 6 6.90909V37.2899C6.63371 37.1013 7.30503 37 8 37C11.866 37 15 40.134 15 44C15 44.695 14.8987 45.3663 14.7101 46H45.1304C45.6107 46 46 45.593 46 45.0909V14.7101C45.3663 14.8987 44.695 15 44 15C40.134 15 37 11.866 37 8C37 7.30503 37.1013 6.63371 37.2899 6ZM26 36C30.9706 36 35 31.9706 35 27C35 22.0294 30.9706 18 26 18C21.0294 18 17 22.0294 17 27C17 31.9706 21.0294 36 26 36Z" fill="white"/>
<g filter="url(#filter1_d)">
<path d="M26 36C30.9706 36 35 31.9706 35 27C35 22.0294 30.9706 18 26 18C21.0294 18 17 22.0294 17 27C17 31.9706 21.0294 36 26 36Z" stroke="white" stroke-width="4"/>
<path d="M41.5 41.7501L33 33.6365" stroke="white" stroke-width="4" stroke-linecap="round"/>
</g>
<path fill-rule="evenodd" clip-rule="evenodd" d="M37.2899 6H6.86957C6.38932 6 6 6.38376 6 6.85714V12H38.2547C37.4638 10.8662 37 9.48725 37 8C37 7.30503 37.1013 6.63371 37.2899 6Z" fill="white"/>
<g filter="url(#filter2_d)">
<path fill-rule="evenodd" clip-rule="evenodd" d="M51 8C51 4.13406 47.8659 1 44 1C40.1341 1 37 4.13406 37 8C37 11.8659 40.1341 15 44 15C47.8659 15 51 11.8659 51 8ZM47.7072 6.70697C48.0977 6.31636 48.0976 5.6832 47.707 5.29275C47.3164 4.90231 46.6832 4.90243 46.2928 5.29303L43.0008 8.5863L41.7065 7.29432C41.3156 6.90416 40.6824 6.90474 40.2922 7.29562C39.9021 7.68651 39.9027 8.31967 40.2935 8.70984L42.2951 10.7078C42.6858 11.0977 43.3186 11.0974 43.7088 10.707L47.7072 6.70697Z" fill="white"/>
</g>
<defs>
<filter id="filter0_d" x="1" y="37" width="14" height="15" filterUnits="userSpaceOnUse" color-interpolation-filters="sRGB">
<feFlood flood-opacity="0" result="BackgroundImageFix"/>
<feColorMatrix in="SourceAlpha" type="matrix" values="0 0 0 0 0 0 0 0 0 0 0 0 0 0 0 0 0 0 127 0"/>
<feOffset dy="1"/>
<feColorMatrix type="matrix" values="0 0 0 0 0.105882 0 0 0 0 0.121569 0 0 0 0 0.137255 0 0 0 0.05 0"/>
<feBlend mode="normal" in2="BackgroundImageFix" result="effect1_dropShadow"/>
<feBlend mode="normal" in="SourceGraphic" in2="effect1_dropShadow" result="shape"/>
</filter>
<filter id="filter1_d" x="15" y="16" width="29.3368" height="29.5776" filterUnits="userSpaceOnUse" color-interpolation-filters="sRGB">
<feFlood flood-opacity="0" result="BackgroundImageFix"/>
<feColorMatrix in="SourceAlpha" type="matrix" values="0 0 0 0 0 0 0 0 0 0 0 0 0 0 0 0 0 0 127 0"/>
<feOffset dy="1"/>
<feColorMatrix type="matrix" values="0 0 0 0 0.105882 0 0 0 0 0.121569 0 0 0 0 0.137255 0 0 0 0.05 0"/>
<feBlend mode="normal" in2="BackgroundImageFix" result="effect1_dropShadow"/>
<feBlend mode="normal" in="SourceGraphic" in2="effect1_dropShadow" result="shape"/>
</filter>
<filter id="filter2_d" x="37" y="1" width="14" height="15" filterUnits="userSpaceOnUse" color-interpolation-filters="sRGB">
<feFlood flood-opacity="0" result="BackgroundImageFix"/>
<feColorMatrix in="SourceAlpha" type="matrix" values="0 0 0 0 0 0 0 0 0 0 0 0 0 0 0 0 0 0 127 0"/>
<feOffset dy="1"/>
<feColorMatrix type="matrix" values="0 0 0 0 0.105882 0 0 0 0 0.121569 0 0 0 0 0.137255 0 0 0 0.05 0"/>
<feBlend mode="normal" in2="BackgroundImageFix" result="effect1_dropShadow"/>
<feBlend mode="normal" in="SourceGraphic" in2="effect1_dropShadow" result="shape"/>
</filter>
</defs>
</svg>
