<svg fill="none" height="44" viewBox="0 0 168 44" width="168" xmlns="http://www.w3.org/2000/svg"><g fill="#8b949e"><path clip-rule="evenodd" d="m21.8952 42.1077c11.1053 0 20.1048-9.0033 20.1048-20.1086s-8.9995-20.10848-20.1048-20.10848-20.10852 9.00318-20.10852 20.10848 9.00322 20.1086 20.10852 20.1086zm-11.1385-21.1651c.0258 7.5735 5.7742 12.2878 11.2973 12.269 6.8199-.0222 10.854-5.623 10.8393-10.7359-.0186-5.1094-2.7966-8.8037-8.9183-10.2963-.0147-.0628-.0257-.1995-.0257-.3288-.0111-3.86058 2.9-7.26678 6.5575-8.02414-.3436-.11823-.9089-.1625-1.4483-.1625-4.1819.01478-8.7963 1.80658-12.1654 4.59213-3.4506 2.85941-6.1549 7.68061-6.1364 12.68651z" fill-rule="evenodd"/><path d="m54.9858 30.3267-6.1475-14.6705h4.0158l3.8347 9.7421 3.7165-9.7421h3.8348l-5.9664 14.6705z"/><path d="m74.9391 22.9169c0-.6096-.0702-1.1896-.2143-1.74-.1404-.5506-.3546-1.0234-.6391-1.4188-.2845-.3988-.6281-.7129-1.0344-.9457-.4065-.2365-.8831-.3546-1.4298-.3546-.5468 0-1.027.1183-1.4297.3546-.4064.2327-.7536.5469-1.0344.9457-.2845.3954-.4987.8682-.6391 1.4188-.1441.5504-.2144 1.1304-.2144 1.74 0 .6317.0703 1.2191.2144 1.7585.1404.5394.3472 1.0123.6207 1.4186.2733.4065.6205.7278 1.0381.9643.4137.2326.8976.3509 1.4444.3509.5467 0 1.0233-.1183 1.4298-.3509.4063-.2365.7499-.5578 1.0344-.9643.2845-.4063.4987-.8792.6391-1.4186.1441-.5394.2143-1.1268.2143-1.7585zm3.7128.0161c0 .9567-.1478 1.8952-.4396 2.8188-.2956.9236-.7315 1.7473-1.3115 2.4788-.5764.7315-1.3079 1.3189-2.1907 1.7661-.8831.447-1.9138.6686-3.0886.6686-1.1785 0-2.2092-.2218-3.0885-.6686-.8829-.447-1.6144-1.0346-2.1944-1.7659-.5764-.7315-1.0122-1.5554-1.3079-2.479-.2917-.9236-.4395-1.8621-.4395-2.8188 0-.9531.1478-1.8841.4395-2.8004.2957-.9125.7315-1.729 1.3079-2.4493.58-.7204 1.3115-1.2968 2.1944-1.7327.8793-.436 1.91-.6576 3.0885-.6576 1.1748 0 2.2018.2218 3.0737.6576.8719.4359 1.6034 1.0123 2.1908 1.7327.5911.7203 1.0307 1.5368 1.3263 2.4493.2918.9163.4396 1.8473.4396 2.8004z"/><path d="m89.9899 18.8865c-.7277-.2845-1.4038-.4286-2.0319-.4286-.6429 0-1.2007.1258-1.6624.3695-.4656.2436-.8498.5725-1.1527.99-.303.4175-.5284.8867-.6798 1.4075-.1515.5173-.2291 1.053-.2291 1.6034 0 .6096.0665 1.1933.1996 1.7548.1292.558.3324 1.0493.6058 1.4667.2698.4175.6132.7537 1.0271 1.0086.4138.2512.905.3806 1.4703.3806.4656 0 .9384-.1293 1.4223-.3806.484-.2549.8276-.5579 1.0308-.9015zm.303 11.4414-.1516-1.123c-.3434.3842-.7979.7241-1.3669 1.0158-.5652.2957-1.2339.4435-2.0024.4435-1.0084 0-1.9026-.2142-2.6672-.6393-.7722-.4247-1.4187-.9937-1.9433-1.703-.5245-.7093-.9273-1.5332-1.2006-2.4679-.2698-.931-.4065-1.9063-.4065-2.9221 0-.9532.1404-1.8879.4212-2.8005.2845-.9124.713-1.7289 1.2893-2.4493.5801-.7203 1.3005-1.2967 2.1724-1.7326.8681-.436 1.8914-.6577 3.0625-.6577.7685 0 1.5997.144 2.4901.4249v-5.6894h3.7719v20.3006z"/><path d="m104.387 23.4502c-.407.0214-.828.0592-1.256.1072-.429.0517-.835.1183-1.223.1995-.82.1624-1.385.4396-1.703.8349-.3142.399-.473.8276-.473 1.2968 0 .4838.1774.8756.536 1.1711.358.2919.86.4396 1.514.4396.492 0 .968-.0997 1.426-.303.459-.2032.854-.4581 1.179-.761zm.303 6.8678-.148-1.0972c-.41.4507-.927.8054-1.559 1.0604-.632.2549-1.323.3841-2.076.3841-.632 0-1.2415-.1072-1.8178-.3214-.5837-.2104-1.0972-.5172-1.5443-.9125-.447-.3953-.809-.8793-1.0824-1.4593-.277-.58-.4137-1.2339-.4137-1.9654 0-.7278.1402-1.3743.4284-1.9322.2845-.5578.6687-1.0269 1.1601-1.4148.4876-.3843 1.0492-.6983 1.681-.9422.6279-.2436 1.2927-.4286 1.9837-.5504.488-.0998 1.024-.1738 1.604-.2255.579-.0517 1.063-.096 1.451-.1367v-.2142c0-.8128-.207-1.3892-.628-1.7363-.417-.3437-.993-.5173-1.725-.5173-.429 0-.839.0517-1.226.1552-.388.0997-.732.2255-1.0386.3769-.3066.1552-.5764.3066-.8127.458-.2328.1515-.4212.2882-.5653.4102l-1.2486-2.6452c.1625-.144.41-.3141.7462-.5172.3362-.2032.7388-.4027 1.2191-.5948.4765-.1922 1.0119-.3548 1.6109-.4877.598-.133 1.245-.1995 1.932-.1995.813 0 1.555.1072 2.224.3214.669.2143 1.249.5469 1.736 1.0049.484.4544.865 1.0307 1.142 1.7326.273.6983.41 1.5443.41 2.538v9.4281z"/><path d="m119.792 13.3714c-.122-.059-.358-.1477-.713-.2587-.358-.1107-.827-.1662-1.418-.1662-.525 0-.968.159-1.323.4729-.354.314-.532.8275-.532 1.5368v.6982h3.166v3.0442h-3.136v11.6261h-3.776v-11.6261h-1.947v-3.0442h1.947v-.7906c0-.9531.122-1.7585.366-2.4197.244-.6576.584-1.197 1.02-1.6108.435-.4175.949-.7241 1.536-.91621.592-.19222 1.231-.28818 1.921-.28818.913 0 1.667.08497 2.265.25869.599.1737.949.2882 1.049.351z"/><path d="m130.081 22.9169c0-.6096-.074-1.1896-.214-1.74-.14-.5506-.355-1.0234-.639-1.4188-.285-.3988-.628-.7129-1.035-.9457-.406-.2365-.882-.3546-1.429-.3546s-1.027.1183-1.43.3546c-.406.2327-.754.5469-1.038.9457-.281.3954-.495.8682-.639 1.4188-.141.5504-.211 1.1304-.211 1.74 0 .6317.07 1.2191.211 1.7585.144.5394.351 1.0123.624 1.4186.273.4065.621.7278 1.035.9643.417.2326.901.3509 1.448.3509s1.023-.1183 1.429-.3509c.407-.2365.75-.5578 1.035-.9643.284-.4063.499-.8792.639-1.4186s.214-1.1268.214-1.7585zm3.713.0161c0 .9567-.148 1.8952-.443 2.8188-.292.9236-.728 1.7473-1.308 2.4788-.576.7315-1.308 1.3189-2.191 1.7661-.883.447-1.914.6686-3.088.6686-1.179 0-2.21-.2218-3.089-.6686-.883-.447-1.614-1.0346-2.194-1.7659-.577-.7315-1.012-1.5554-1.308-2.479s-.44-1.8621-.44-2.8188c0-.9531.144-1.8841.44-2.8004.296-.9125.731-1.729 1.308-2.4493.58-.7204 1.311-1.2968 2.194-1.7327.879-.436 1.91-.6576 3.089-.6576 1.174 0 2.202.2218 3.073.6576.872.4359 1.604 1.0123 2.191 1.7327.591.7203 1.031 1.5368 1.323 2.4493.295.9163.443 1.8473.443 2.8004z"/><path d="m145.509 30.3253v-8.3677c0-1.1157-.233-1.9801-.699-2.5898-.469-.6058-1.115-.9125-1.949-.9125-.588 0-1.131.1514-1.626.458-.499.3031-.932.6393-1.298 1.005v10.407h-3.771v-14.6703h3.44l.18 1.1564c.591-.484 1.253-.8609 1.995-1.1231.74-.2661 1.485-.3953 2.236-.3953.771 0 1.481.1144 2.131.3472.651.2365 1.209.6058 1.674 1.1119.468.5062.827 1.1675 1.082 1.9766.251.8127.381 1.788.381 2.9223v8.6743z"/><path d="m161.026 21.2299c-.042-.5061-.149-.9495-.322-1.3226-.173-.3769-.388-.6798-.642-.9126-.256-.2363-.53-.4063-.825-.5208-.299-.1107-.598-.1662-.905-.1662-.653 0-1.275.2437-1.866.7315-.591.4877-.938 1.2153-1.041 2.1907zm-5.69 2.708c.081 1.2376.466 2.1316 1.16 2.6783.691.5469 1.589.8239 2.686.8239.51 0 .99-.048 1.437-.1366.447-.0923.847-.2071 1.193-.3511.348-.1404.644-.2845.887-.4249.243-.1439.425-.277.55-.3988l1.005 3.0773c-.144.0997-.372.2365-.687.4101-.314.1738-.706.3324-1.17.4877-.467.1514-1.017.2808-1.645.3953-.628.1107-1.319.1661-2.069.1661-.957 0-1.862-.1514-2.726-.4543-.862-.3066-1.618-.7795-2.266-1.4187-.649-.6391-1.167-1.4335-1.551-2.3865-.387-.9533-.58-2.0911-.58-3.41 0-1.2376.178-2.3347.532-3.2879.355-.9531.843-1.7549 1.459-2.4051.622-.6466 1.342-1.1453 2.162-1.4926.823-.3435 1.699-.5171 2.634-.5171s1.796.1552 2.589.458c.791.303 1.474.7759 2.055 1.415.576.6391 1.035 1.4667 1.366 2.4826.337 1.0122.504 2.2204.504 3.6205v.6688z"/></g></svg>