<?xml version="1.0" encoding="UTF-8" standalone="no"?>
<svg xmlns:svg="http://www.w3.org/2000/svg"
     xmlns="http://www.w3.org/2000/svg"
     width="32" height="32"
   viewBox="-20 -20 40 40">
  <path fill="hsl(0,50%,50%)" d="M 15 -0.75 L 16.356153702725916 -2.3910893183422326 L 17.175091432918748 -4.231563394231656 L 17.188877412152227 -6.067142873674736 L 16.328470085432258 -7.653566424489692 L 14.739364580683914 -8.802151569142998 L 12.729448329529623 -9.458684152114882 L 10.667751375880803 -9.735323029573427 L 8.868792511812352 -9.881650724641542 L 7.5012221277837074 -10.202726705997078 L 6.550207597761815 -10.951343910847479 L 5.843850755819455 -12.231762208016105 L 5.1316211996700725 -13.949307792869183 L 4.1851154638504875 -15.825214657364484 L 2.8845055488275513 -17.47402774876731 L 1.2601125055797857 -18.519375621863382 L -0.5246591990780666 -18.710413207451058 L -2.2413094191152787 -18.000466870352565 L -3.6889339697223194 -16.561736294654303 L -4.77645678340234 -14.731154779662752 L -5.563024555272719 -12.90543041357356 L -6.240358636033739 -11.420055640306565 L -7.062030697431712 -10.451980599740688 L -8.244261943880845 -9.977090433620983 L -9.873909240129251 -9.794641958896706 L -11.857754139302402 -9.608006737232897 L -13.933440525713543 -9.132310628956835 L -15.741119454953372 -8.191262079367783 L -16.93345225412911 -6.770347429183726 L -17.28760444040287 -5.009758982968959 L -16.781227696164834 -3.1421059966306015 L -15.60589400987657 -1.3994651005090568 L -14.112184506039124 0.07519382291287147 L -12.703575670311464 1.2793421934097227 L -11.713540816193156 2.3460868067202876 L -11.305955818015553 3.4850486976961665 L -11.431013842705884 4.890825021372268 L -11.850127005503298 6.653166285949756 L -12.220159779501927 8.702979024355093 L -12.207727421733903 10.815901879049092 L -11.594876830961693 12.674795161109522 L -10.341364107106868 13.97120567882233 L -8.584450761694514 14.511262939407562 L -6.579085147081951 14.28878781847394 L -4.6018321548144305 13.498762335510584 L -2.853853969012455 12.48426848950958 L -1.3975706340090763 11.632720246342142 L -0.14873524488438086 11.254832565261488 L 1.0747731932906686 11.486153788262014 L 2.466799059125532 12.243846938731783 L 4.142303221900512 13.253118202058353 L 6.076814339161277 14.134484722814426 L 8.099564110177633 14.522877275807147 L 9.944407272520532 14.179274075304114 L 11.341408104583563 13.058627376013018 L 12.11663744059418 11.313131002313316 L 12.263804034761266 9.232040926580684 L 11.960376691956043 7.140626150588009 L 11.519810484397324 5.294055444391948 L 11.293817459488219 3.8026609190983196 L 11.55651847658085 2.613018427537343 L 12.409455629956376 1.549003431643635 L 13.740209888308467 0.3956273022654824 Z"></path>
</svg>
