<?xml version="1.0" encoding="UTF-8" standalone="no"?>
<!-- Generator: Adobe Illustrator 27.9.6, SVG Export Plug-In . SVG Version: 9.03 Build 54986)  -->

<svg
   version="1.1"
   id="Warstwa_1"
   x="0px"
   y="0px"
   viewBox="0 0 124.5807 124.62048"
   xml:space="preserve"
   sodipodi:docname="premium-icon.svg"
   width="124.5807"
   height="124.62048"
   inkscape:version="1.4 (e7c3feb100, 2024-10-09)"
   xmlns:inkscape="http://www.inkscape.org/namespaces/inkscape"
   xmlns:sodipodi="http://sodipodi.sourceforge.net/DTD/sodipodi-0.dtd"
   xmlns="http://www.w3.org/2000/svg"
   xmlns:svg="http://www.w3.org/2000/svg"><defs
   id="defs4" /><sodipodi:namedview
   id="namedview4"
   pagecolor="#ffffff"
   bordercolor="#000000"
   borderopacity="0.25"
   inkscape:showpageshadow="2"
   inkscape:pageopacity="0.0"
   inkscape:pagecheckerboard="0"
   inkscape:deskcolor="#d1d1d1"
   inkscape:zoom="3.7977011"
   inkscape:cx="36.864407"
   inkscape:cy="52.926755"
   inkscape:window-width="1920"
   inkscape:window-height="1008"
   inkscape:window-x="0"
   inkscape:window-y="44"
   inkscape:window-maximized="1"
   inkscape:current-layer="g4" />
<style
   type="text/css"
   id="style1">
	.st0{fill:#242424;}
	.st1{fill:#AE0002;}
	.st2{fill-rule:evenodd;clip-rule:evenodd;fill:#AE0002;}
	.st3{fill-rule:evenodd;clip-rule:evenodd;fill:#FFFFFF;}
</style>

<g
   id="g4"
   transform="translate(-225.27606,-108.84324)">
	<path
   class="st2"
   d="m 262.3,228.1 c 28.7,12.8 63.1,2.1 79.2,-25.8 17.2,-29.8 7,-67.9 -22.8,-85.1 -29.8,-17.2 -67.9,-7 -85.1,22.8 -13.6,23.6 -10,52.5 6.9,72 4.8,-1.6 9.1,-7.5 9.1,-13 v -0.4 -27 c 0.5,-21.3 16.7,-37.4 38,-37.9 19.8,0.5 35.3,14.4 37.8,34.1 l 0.2,1.9 c 0.3,13.1 -4.9,24.3 -15.2,32.4 -9.5,6.7 -19.2,8.3 -30.4,6.9 0.2,-8.8 0.7,-18.3 8.6,-23.8 1.8,-1.1 3.5,-2.2 5.2,-3.5 1.6,-1.2 2.9,-2.4 3.9,-4.1 1,-1.9 1.5,-3.7 1.6,-5.9 -0.3,-6.4 -4.7,-11.3 -11.7,-11.7 -6.7,0.3 -11.3,5 -11.7,11.7 v 27.9 c -0.2,12.6 -5.3,21.7 -13.6,28.5"
   id="path3"
   style="fill:#ae0002;fill-opacity:1" />
	
</g>
</svg>
