<svg width="512" height="512" fill="none" xmlns="http://www.w3.org/2000/svg"><path fill-rule="evenodd" clip-rule="evenodd" d="M226.791 95.088c1.399-44.374-13.55-70.535-56.522-87.816-12.214 42.724 38.211 82.118 56.522 87.816Z" fill="#D1D3D4" stroke="#000" stroke-width="4.79" stroke-linejoin="round"/><path fill-rule="evenodd" clip-rule="evenodd" d="M343.329 170.29c1.398-36.437-7.805-51.143-14.712-61.659-7.007-9.81-23.822-25.226-44.482-25.872-19.537-.612-24.235 10.187-42.259 10.839-2.955-32.821 21.815-50.832 21.815-50.832s-6.773-9.573-12.376-11.912c-8.06 7.163-30.244 31.053-25.111 61.795-16.584-3.17-28.29-12.662-45.712-9.235-23.733 4.67-43.297 19.02-54.447 50.507-11.149 31.489 3.935 68.225 7.215 78.716 3.282 10.501 27.553 55.099 46.577 61.663 19.019 6.565 19.025 3.606 29.193-.327 10.17-3.936 25.581-11.151 48.219-2.949 22.624 8.197 25.575 10.162 39.675.98 14.111-9.18 32.473-37.714 36.734-45.915 4.264-8.198 6.561-12.464 7.878-16.726 13.709-6.842.535-6.418 1.793-39.073Z" fill="#D1D3D4" stroke="#000" stroke-width="4.79" stroke-linejoin="round"/><path d="M380.153 436.587a34.004 34.004 0 0 0 31.527-20.963 34.013 34.013 0 0 0 2.602-13.041c.004-34.523.004-87.871.004-122.489a34.008 34.008 0 0 0-34.008-34.007h-28.033a7.553 7.553 0 0 1-7.557-7.557v-17.816H123.583l.557 261.125a7.563 7.563 0 0 0 3.495 6.358c9.847 5.702 41.416 16.531 107.698 16.531 67.684 0 97.939-14.498 106.602-21.045a7.517 7.517 0 0 0 2.717-5.785c.036-7.226.036-23.971.036-33.864a7.55 7.55 0 0 1 7.714-7.555c8.314.117 18.277.134 27.751.108Zm-35.465-150.778c0-2.505.995-4.908 2.765-6.68a9.454 9.454 0 0 1 6.681-2.766H378.2c2.505 0 4.908.996 6.68 2.766a9.45 9.45 0 0 1 2.766 6.68v109.929a9.453 9.453 0 0 1-2.766 6.681 9.454 9.454 0 0 1-6.68 2.766h-24.066a9.458 9.458 0 0 1-6.681-2.766 9.456 9.456 0 0 1-2.765-6.681V285.809Z" fill="#fff" stroke="#000" stroke-width="4.79" stroke-linejoin="round"/><path fill-rule="evenodd" clip-rule="evenodd" d="M145.38 218.522v234.247a7.56 7.56 0 0 0 3.784 6.55c9.562 4.557 37.3 15.433 85.933 15.433 48.955 0 75.87-13.215 84.882-18.662a7.538 7.538 0 0 0 3.452-6.331c.021-31.062.021-231.237.021-231.237H145.38Z" fill="#FBB040"/><path d="M171.554 258.198v181.025" stroke="#FFDB96" stroke-width="11.022" stroke-linecap="round"/><path fill-rule="evenodd" clip-rule="evenodd" d="M272.163 266.591c0-3.778-2.224-8.29-5.876-10.555a31.619 31.619 0 0 1-13.115-15.681c-48.349 1.626-92.48-6.864-114.711-12.859a185.848 185.848 0 0 0-17.327-4.024c-13.306-2.639-23.42-14.325-23.42-28.374 0-15.463 12.27-28.029 27.599-28.579 2.957-16.356 17.233-28.772 34.441-28.772 19.35 0 35.035 15.689 35.035 35.037 0 4.071-.735 7.969-2.011 11.608l.104.017c4.321-13.514 16.972-23.307 31.922-23.307 14.854 0 27.436 9.677 31.831 23.065a35.314 35.314 0 0 1-.191-3.679c0-20.124 16.312-36.437 36.433-36.437 16.29 0 30.076 10.692 34.741 25.434l3.176-.827a28.492 28.492 0 0 1 14.041-3.694c15.811 0 28.63 12.819 28.625 28.627 0 14.483-10.752 26.452-24.711 28.362a42.248 42.248 0 0 0-9.24 2.399c-8.296 3.127-16.779 5.719-25.349 7.858a31.472 31.472 0 0 1-3.606 11.772 39.144 39.144 0 0 0-4.497 21.268c-.004.446.013 2.781.013 3.231 0 9.363-7.587 15.061-16.958 15.061a16.95 16.95 0 0 1-15.659-10.464 16.947 16.947 0 0 1-1.29-6.487Z" fill="#fff" stroke="#000" stroke-width="4.79" stroke-linecap="round" stroke-linejoin="round"/></svg>