<svg width="512" height="512" fill="none" xmlns="http://www.w3.org/2000/svg"><g clip-path="url(#a)"><path fill-rule="evenodd" clip-rule="evenodd" d="M498.471 113.861c.182.671.274 1.363.276 2.058v108.032a7.878 7.878 0 0 1-3.958 6.833l-90.673 52.204v103.474a7.897 7.897 0 0 1-3.939 6.833L210.905 502.252c-.434.246-.906.404-1.379.571-.177.059-.344.168-.532.217a7.932 7.932 0 0 1-4.036 0c-.217-.059-.414-.177-.621-.256-.433-.158-.886-.295-1.299-.532L13.804 393.295a7.889 7.889 0 0 1-3.958-6.833V62.366c0-.71.099-1.399.276-2.068.059-.227.197-.433.276-.66.147-.413.285-.837.502-1.22.147-.257.364-.463.541-.7.227-.315.433-.64.7-.916.226-.226.521-.393.777-.59.286-.237.542-.493.867-.68h.01l94.621-54.478a7.895 7.895 0 0 1 7.877 0l94.621 54.478h.02c.315.197.581.443.867.67.256.197.541.374.768.59.275.286.472.611.709.926.167.236.393.443.531.7.227.393.355.807.512 1.22.079.227.217.433.276.67a7.99 7.99 0 0 1 .276 2.058v202.427l78.848-45.401V115.909c0-.689.098-1.388.275-2.048.069-.236.197-.443.276-.67.158-.413.295-.837.512-1.221.148-.256.364-.462.532-.699.236-.315.433-.64.709-.915.226-.227.512-.394.768-.591.295-.236.551-.492.866-.679h.01l94.631-54.48a7.888 7.888 0 0 1 7.877 0l94.622 54.48c.335.196.591.443.886.669.246.197.532.374.758.591.276.285.473.61.709.925.177.237.394.443.532.699.226.384.354.808.512 1.221.088.227.216.434.275.67Zm-15.498 105.531v-89.836l-33.112 19.062-45.745 26.338v89.837l78.867-45.401h-.01Zm-94.621 162.511v-89.896l-44.997 25.699-128.492 73.334v90.742l173.489-99.879ZM25.62 76.003v305.9l173.469 99.869V391.05l-90.624-51.289-.029-.019-.04-.02c-.305-.177-.561-.433-.846-.65-.247-.197-.532-.354-.749-.571l-.019-.03c-.256-.246-.434-.551-.65-.827-.197-.266-.434-.492-.591-.768l-.01-.029c-.177-.296-.285-.65-.413-.985-.128-.295-.296-.571-.375-.886v-.01c-.098-.374-.118-.768-.157-1.152-.04-.295-.118-.591-.118-.886V121.403L58.732 95.055 25.62 76.012v-.01Zm86.744-59.018-78.838 45.38 78.819 45.381 78.828-45.39-78.828-45.371h.019Zm41 283.214 45.735-26.328V76.003l-33.113 19.062-45.745 26.338v197.868l33.123-19.072ZM396.239 70.538l-78.829 45.381 78.829 45.381 78.818-45.391-78.818-45.371Zm-7.887 104.418-45.745-26.338-33.113-19.062v89.836l45.736 26.329 33.122 19.072v-89.837ZM206.966 377.403l115.624-66.009 57.796-32.984-78.769-45.352-90.693 52.215-82.658 47.586 78.7 44.544Z" fill="#FF2D20"/></g><defs><clipPath id="a"><path fill="#fff" transform="translate(9.846)" d="M0 0h492.308v512H0z"/></clipPath></defs></svg>