<svg width="512" height="512" fill="none" xmlns="http://www.w3.org/2000/svg"><g clip-path="url(#a)"><path d="M256 511.655c140.835 0 255.004-114.169 255.004-255.004C511.004 115.817 396.835 1.648 256 1.648 115.165 1.648.996 115.817.996 256.65.996 397.486 115.165 511.655 256 511.655Z" fill="#1A171B"/><path d="M366.978 95.874c-25.87.902-48.45 15.16-65.259 34.883-18.611 21.626-30.993 47.276-39.914 73.457-15.957-13.079-28.269-30.01-53.871-37.394-19.789-5.681-40.574-3.335-59.687 10.906-9.055 6.763-15.292 16.987-18.259 26.598-7.68 24.976 8.075 47.203 15.231 55.184l15.645 16.767c3.225 3.287 10.993 11.863 7.196 24.159-4.104 13.368-20.221 22.024-36.753 16.924-7.383-2.251-17.99-7.751-15.615-15.497.982-3.168 3.249-5.538 4.465-8.278 1.115-2.353 1.647-4.118 1.986-5.154 3.02-9.861-1.106-22.691-11.669-25.948-9.853-3.02-19.936-.628-23.844 12.061-4.433 14.413 2.464 40.573 39.412 51.965 43.289 13.3 79.908-10.27 85.101-41.012 3.271-19.255-5.423-33.559-21.35-51.957l-12.978-14.352c-7.861-7.854-10.56-21.239-2.424-31.527 6.865-8.678 16.643-12.382 32.656-8.027 23.375 6.348 33.794 22.566 51.18 35.647-7.178 23.546-11.869 47.18-16.117 68.373l-2.588 15.8c-12.427 65.188-21.914 100.982-46.568 121.532-4.966 3.532-12.067 8.819-22.769 9.188-5.61.173-7.423-3.686-7.5-5.367-.134-3.939 3.185-5.744 5.39-7.517 3.296-1.797 8.278-4.777 7.939-14.326-.358-11.284-9.706-21.068-23.217-20.62-10.12.345-25.546 9.87-24.966 27.304.603 18.007 17.388 31.503 42.693 30.648 13.527-.464 43.733-5.971 73.503-41.358 34.648-40.566 44.339-87.07 51.628-121.107l8.136-44.937c4.521.542 9.354.903 14.611 1.028 43.154.911 64.739-21.442 65.06-37.7.213-9.84-6.457-19.522-15.794-19.303-6.684.189-15.081 4.638-17.097 13.882-1.969 9.068 13.732 17.252 1.46 25.201-8.718 5.642-24.347 9.619-46.357 6.387l4.002-22.119c8.168-41.946 18.243-93.543 56.462-94.798 2.785-.141 12.977.126 13.214 6.865.07 2.251-.488 2.825-3.124 7.979-2.683 4.018-3.695 7.439-3.57 11.37.369 10.71 8.513 17.748 20.291 17.324 15.77-.51 20.307-15.864 20.048-23.749-.638-18.528-20.166-30.232-46.021-29.385h.002Z" fill="#fff"/></g><defs><clipPath id="a"><path fill="#fff" transform="translate(.996)" d="M0 0h510.008v512H0z"/></clipPath></defs></svg>