<svg width="512" height="512" fill="none" xmlns="http://www.w3.org/2000/svg"><path fill-rule="evenodd" clip-rule="evenodd" d="M256 102.4c-68.267 0-110.933 34.133-128 102.4 25.6-34.133 55.467-46.933 89.6-38.4 19.475 4.864 33.394 19.001 48.801 34.636C291.499 226.512 320.55 256 384 256c68.267 0 110.933-34.133 128-102.4-25.6 34.133-55.467 46.933-89.6 38.4-19.475-4.864-33.394-19.001-48.801-34.636C348.501 131.887 319.45 102.4 256 102.4ZM128 256C59.733 256 17.067 290.133 0 358.4c25.6-34.133 55.467-46.933 89.6-38.4 19.475 4.873 33.394 19.001 48.801 34.636C163.499 380.113 192.55 409.6 256 409.6c68.267 0 110.933-34.133 128-102.4-25.6 34.133-55.467 46.933-89.6 38.4-19.475-4.864-33.394-19.001-48.801-34.636C220.501 285.487 191.45 256 128 256Z" fill="#38BDF8"/></svg>